<?xml version="1.0" encoding="utf-8"?>
<!-- Generator: Adobe Illustrator 27.8.1, SVG Export Plug-In . SVG Version: 6.00 Build 0)  -->
<svg version="1.1" id="Слой_1" xmlns="http://www.w3.org/2000/svg" xmlns:xlink="http://www.w3.org/1999/xlink" x="0px" y="0px"
	 viewBox="0 0 721.3 880.3" style="enable-background:new 0 0 721.3 880.3;" xml:space="preserve">
<style type="text/css">
	.st0{fill:#FFFFFF;stroke:#FFFFFF;stroke-width:50;stroke-miterlimit:10;}
	.st1{fill:#FFFFFF;stroke:#FFFFFF;stroke-width:40;stroke-miterlimit:10;}
	.st2{fill:#FFFFFF;stroke:#FFFFFF;stroke-width:30;stroke-miterlimit:10;}
	.st3{fill:#231F20;stroke:#FCFCFC;stroke-width:50;stroke-miterlimit:10;}
	.st4{fill:#ACABB1;}
	.st5{fill:#00E7F0;}
	.st6{fill:#898890;}
	.st7{fill:#91CC04;}
	.st8{fill:#FFDA44;}
	.st9{fill:#231F20;}
	.st10{fill:#FF9811;}
	.st11{fill:#FF5023;}
	.st12{fill:#AB2300;}
	.st13{fill:#29589F;}
	.st14{fill:#DAE6F1;}
	.st15{fill:#5290DB;}
	.st16{fill:#231F20;stroke:#231F20;stroke-width:5;stroke-miterlimit:10;}
</style>
<g>
	<g>
		<ellipse class="st0" cx="342.9" cy="812.3" rx="31.9" ry="28.9"/>
		<ellipse class="st0" cx="498.7" cy="791.6" rx="31.9" ry="28.9"/>
		<path class="st0" d="M167.8,540c-0.4,0.1-0.7,0.1-1.1,0.2l-54.6,2.3c-6.5,0.4-12.1-4.1-12.4-10c-0.4-5.9,4.6-10.9,11.1-11.3
			l54.8-2.3c6.5-0.4,12.1,4.3,12.3,10.2C178.1,534.4,173.8,539.1,167.8,540z"/>
		<path class="st0" d="M530.3,737.9l-218.8,29l15-27.5c5.3-9.8,14.8-17.1,26.3-20.6l142.3-41c5.9-1.6,9.1-7.3,7.3-12.6
			c-1.7-4.7-6.9-7.8-12.3-7l-148.4,42.6c-15.3,5.6-27.8,16-35.2,29.3L287,766.6c-4.1,7.5-0.7,16.5,7.5,20.1c3,1.3,6.5,1.9,9.7,1.4
			l229.3-30.4c6-0.8,10.2-5.9,9.4-11.4C542.2,741,536.6,737.1,530.3,737.9z"/>
		<ellipse class="st0" cx="342.9" cy="812.3" rx="11.4" ry="10.4"/>
		<ellipse class="st0" cx="498.7" cy="791.6" rx="11.4" ry="10.4"/>
		<path class="st0" d="M558.4,627.6l-15.9-98.4c-1.3-7.8-9.2-13-17.6-11.9c-0.2,0-0.4,0.1-0.4,0.1l-245.9,38.9
			c-0.2,0.1-0.5,0.1-0.6,0.1l-1.1,0.2l-79.2,12.3L178,540.2c6.3-5.9,6.1-15.3-0.5-21.1c-3.2-2.8-7.6-4.4-12.3-4.1l-54.7,2.5
			c-9.1,0.4-16,7.4-15.6,15.6s8.1,14.5,17.1,14l0,0l54.5-2.5c0.9,0,2.1-0.1,2.9-0.4l106.9,156c7.8,11.4,23.1,17,37.4,13.5
			c-4.7,4.5-8.6,9.6-11.5,15.2L282.6,765c-5.2,9.5-0.9,21.1,9.7,25.8c3.8,1.7,8.2,2.3,12.3,1.7l10-1.4c-13.1,13.9-11,34.8,4.3,46.6
			s38.3,10,51.4-4c13.1-13.9,11-34.8-4.3-46.6c-1.1-0.9-2.3-1.7-3.5-2.4l108-14.3c-13.1,13.9-11,34.8,4.3,46.6
			c15.3,11.8,38.3,10,51.4-4c13.1-13.9,11-34.8-4.3-46.6c-1.1-0.9-2.3-1.7-3.5-2.4l15.5-2.1c8.6-1.2,14.5-8.4,13.3-16.1
			c-1.3-7.8-9.2-13.2-17.8-12l-209.8,27.8l11.1-20.2c4.8-8.7,13.3-15.4,23.5-18.3l142.3-41c8.2-2.4,12.9-10.4,10.2-17.9
			c-0.7-1.9-1.7-3.7-3.2-5.1l41.3-11.9C554,644.7,559.7,636.3,558.4,627.6z M166.4,535.8l-54.5,2.6c-3.9,0.2-7.3-2.6-7.6-6.3
			c-0.2-3.5,2.9-6.7,6.8-6.9l54.5-2.5c3.9-0.2,7.3,2.6,7.5,6.1C173.3,532.5,170.2,535.6,166.4,535.8z M369.9,808.7
			c2.2,13.6-8.1,26-23.1,28s-28.8-7.4-30.9-20.9c-2.2-13.6,8.1-26,23.1-28C353.9,785.8,367.7,795.1,369.9,808.7z M525.7,788.1
			c2.2,13.6-8.1,26-23.1,28c-15,2-28.8-7.4-30.9-20.9c-2.2-13.6,8.1-26,23.1-28C509.8,765.1,523.6,774.5,525.7,788.1z M493.7,673.8
			l-142.3,41c-12.6,3.7-23.1,11.8-28.9,22.6l-15,27.7c-1.2,2-0.2,4.6,2,5.7c0.8,0.4,1.7,0.5,2.7,0.4L531,742.2
			c3.4-0.5,6.9,1.8,7.3,5c0.5,3.2-2,6.2-5.5,6.7l-229.1,30.3c-6.6,0.9-12.6-3.2-13.6-9.2c-0.4-2.2,0-4.4,1.2-6.4l19.7-36.1
			c6.8-12.3,18.4-22.2,32.7-27.3l147.8-42.5c2.8-0.2,5.7,1.4,6.4,4.1l0,0C499.1,669.6,497.2,672.8,493.7,673.8z M312.9,705.4
			c-10.6,3.1-22.3-0.8-28.3-9.5L203,576l29.7-4.6l293.8-46.3c3.4-0.6,6.8,1.4,7.3,4.6l10.6,66.3l3.3,20.8l1.9,11.7
			c0.5,4.7-2.4,9.1-7.5,10.5l0,0L312.9,705.4z"/>
		<path class="st0" d="M345.3,826.7c8.7-1.2,14.9-8.6,13.5-16.5c-1.3-7.9-9.5-13.4-18.2-12.3c-8.7,1.2-14.9,8.6-13.5,16.5
			C328.3,822.3,336.5,827.9,345.3,826.7z M342,806.1c3.9-0.5,7.2,1.9,7.8,5.2s-2.1,6.5-5.8,7c-3.9,0.5-7.2-1.9-7.8-5.2
			C335.6,809.6,338.3,806.6,342,806.1z"/>
		<path class="st0" d="M501,806c8.7-1.2,14.9-8.6,13.5-16.5s-9.5-13.4-18.2-12.3s-14.9,8.6-13.5,16.5
			C484.2,801.7,492.3,807.2,501,806z M497.8,785.5c3.9-0.5,7.2,1.9,7.8,5.2c0.5,3.5-2.1,6.5-5.8,7c-3.9,0.5-7.2-1.9-7.8-5.2
			C491.4,789.1,494.1,786,497.8,785.5z"/>
	</g>
</g>
<g>
	<g>
		<circle class="st1" cx="21.1" cy="809" r="1.9"/>
		<polygon class="st0" points="42.1,805.6 42.1,792.7 31.6,788.9 198.7,320.3 219.5,327.7 56.8,783.6 665.4,782.6 528.5,321.7 
			549.6,315.5 690.6,790.4 681.6,793.1 681.6,804.5 		"/>
		<circle class="st2" cx="707.5" cy="813.6" r="0.8"/>
	</g>
	<g>
		<g>
			<path class="st3" d="M547.3,228.6c4.7,2.3,9.3,4.9,13.6,7.8c3.6,2.5,8.6,1.7,11.1-1.9c2.5-3.6,1.7-8.6-1.9-11.1
				c-5-3.5-10.3-6.5-15.8-9.1c-4-1.9-8.8-0.3-10.7,3.7S543.3,226.7,547.3,228.6L547.3,228.6z"/>
			<path class="st3" d="M506.9,277.8c0.7,0,1.4-0.1,2-0.3c15.5-4,30.7-9.3,45.2-16c3.9-1.9,5.6-6.6,3.7-10.6
				c-1.9-4-6.6-5.7-10.6-3.8c-13.7,6.2-27.9,11.2-42.5,14.9c-3.9,1-6.4,4.8-5.9,8.7S502.9,277.8,506.9,277.8L506.9,277.8z"/>
			<path class="st3" d="M407.4,109.6c4.1,1.5,8,3.3,11.9,5.3c3.9,2.1,8.7,0.6,10.8-3.3c2.1-3.9,0.6-8.7-3.3-10.8
				c-4.5-2.4-9.1-4.5-13.9-6.2c-2.7-1.1-5.8-0.6-8,1.3s-3.3,4.7-2.8,7.6C402.6,106.3,404.6,108.7,407.4,109.6z"/>
			<path class="st3" d="M447,150.1c0,4.4,3.6,7.9,8,7.9h0.1c4.4,0,7.9-3.6,7.9-8c-0.7-14.4-7.4-27.9-18.6-37
				c-3.3-2.8-8.2-2.5-11.1,0.7s-2.7,8.2,0.4,11.2C441.4,131.1,446.2,140.2,447,150.1z"/>
			<path class="st3" d="M367.1,261.9c13.2,0,24-10.7,24-24s-10.7-24-24-24c-13.2,0-24,10.7-24,24S353.9,261.9,367.1,261.9z
				 M367.1,229.9c4.4,0,8,3.6,8,8s-3.6,8-8,8s-8-3.6-8-8S362.7,229.9,367.1,229.9z"/>
			<path class="st3" d="M439,253.9c13.2,0,24-10.7,24-24c0-13.2-10.7-24-24-24c-13.2,0-24,10.7-24,24S425.8,253.9,439,253.9z
				 M439,221.9c4.4,0,8,3.6,8,8s-3.6,8-8,8s-8-3.6-8-8S434.6,221.9,439,221.9z"/>
			<path class="st3" d="M295.2,253.9c13.2,0,24-10.7,24-24c0-13.2-10.7-24-24-24s-24,10.7-24,24C271.3,243.2,282,253.9,295.2,253.9z
				 M295.2,221.9c4.4,0,8,3.6,8,8s-3.6,8-8,8s-8-3.6-8-8S290.8,221.9,295.2,221.9z"/>
			<path class="st3" d="M119.9,243.2v0.2c0,0.1,0.1,0.2,0.1,0.3c3.7,24.1,30,53.9,69.4,78.9l14,8.3c0.8,0.4,1.6,0.9,2.5,1.3
				c0.8,0.4,1.7,0.9,2.6,1.4c1.5,0.8,3,1.6,4.5,2.4c0.9,0.5,1.7,0.9,2.6,1.4c1.7,0.9,3.5,1.8,5.4,2.6c0.8,0.4,1.6,0.8,2.4,1.2
				c2.3,1.1,4.8,2.2,7.3,3.3l1.1,0.5c2.9,1.3,6,2.6,9.2,3.9l1.5,0.6c2.6,1.1,5.3,2.1,8.1,3.1c1.1,0.4,2.2,0.8,3.2,1.2
				c2.3,0.8,4.6,1.6,6.9,2.4c1.3,0.4,2.7,0.9,4,1.3c2.2,0.7,4.4,1.4,6.7,2.1c1.5,0.4,3,0.9,4.5,1.3c2.2,0.6,4.5,1.3,6.8,1.9
				c1.6,0.4,3.2,0.8,4.9,1.2c2.3,0.6,4.6,1.1,7,1.6c1.7,0.4,3.4,0.8,5.2,1.1c2.4,0.5,4.8,1,7.2,1.4c1.8,0.3,3.6,0.7,5.4,1
				c2.5,0.4,5,0.8,7.6,1.2c1.8,0.3,3.6,0.5,5.4,0.8c2.7,0.3,5.4,0.6,8.2,0.9c1.8,0.2,3.5,0.4,5.3,0.5c3.1,0.3,6.2,0.4,9.3,0.6
				c1.5,0.1,3.1,0.2,4.6,0.3c4.7,0.2,9.5,0.3,14.4,0.3s9.6-0.1,14.4-0.3c1.6-0.1,3.1-0.2,4.6-0.3c3.1-0.2,6.2-0.4,9.3-0.6
				c1.8-0.2,3.5-0.4,5.3-0.5c2.7-0.3,5.5-0.6,8.2-0.9c1.8-0.2,3.6-0.5,5.4-0.8c2.5-0.4,5.1-0.7,7.6-1.2c1.8-0.3,3.6-0.6,5.4-1
				c2.4-0.4,4.8-0.9,7.2-1.4c1.7-0.4,3.4-0.7,5.2-1.1c2.4-0.5,4.7-1.1,7-1.6c1.6-0.4,3.3-0.8,4.9-1.2c2.3-0.6,4.5-1.2,6.8-1.9
				c1.5-0.4,3-0.9,4.5-1.3c2.3-0.7,4.5-1.4,6.7-2.1c1.3-0.4,2.7-0.9,4-1.3c2.4-0.8,4.7-1.6,7-2.4c1.1-0.4,2.2-0.7,3.2-1.1
				c2.8-1,5.5-2.1,8.2-3.2c0.5-0.2,0.9-0.4,1.4-0.5c3.2-1.3,6.2-2.6,9.2-3.9l0.9-0.4c2.6-1.1,5.1-2.3,7.6-3.4l2.2-1.1
				c1.9-0.9,3.8-1.8,5.6-2.7c0.8-0.4,1.6-0.8,2.4-1.3c1.6-0.8,3.2-1.7,4.7-2.5l2.3-1.3c0.9-0.5,1.8-1,2.6-1.4l13.9-8.5
				c39.4-24.9,65.7-54.7,69.4-78.9c0-0.1,0.1-0.2,0.1-0.3v-0.6c0.3-1.6,0.4-3.3,0.4-5c0-32.1-44.7-60.1-119.8-75.7v-12.3
				c-0.5-20-8.4-39.1-22.3-53.5c-8-8.6-17.2-16-27.5-21.8c-16.8-9.4-35.2-15.6-54.3-18c0.1-0.8,0.2-1.7,0.2-2.5
				c0-13.2-10.7-24-24-24c-13.2,0-24,10.7-24,24c0,0.8,0.1,1.6,0.2,2.3c-28.6,3.5-55.4,15.7-76.9,34.9
				c-16.8,14.9-26.6,36.1-27.2,58.6V162c-74.9,15.8-119.6,43.9-119.6,75.9c0,1.6,0.1,3.3,0.3,4.9
				C119.8,242.9,119.8,243.1,119.9,243.2z M367.1,46.2c4.4,0,8,3.6,8,8c0,1.6-0.5,3.2-1.5,4.6c-2.4,3.1-6.6,4.1-10.2,2.4
				c-1.2-0.5-2.2-1.4-2.9-2.4c-0.9-1.3-1.4-2.9-1.4-4.6C359.1,49.8,362.7,46.2,367.1,46.2z M255.3,150.1
				c0.6-18.1,8.6-35.2,22.2-47.1c20.3-18.1,46-29.1,73.2-31.4c0.1,0.1,0.2,0.2,0.4,0.3c0.4,0.4,0.9,0.7,1.4,1.1
				c0.8,0.6,1.6,1.2,2.4,1.7c1.1,0.6,2.2,1.2,3.3,1.6h0.1c5.6,2.5,12,2.5,17.6,0h0.1c1.2-0.4,2.3-1,3.4-1.6c0.8-0.5,1.6-1,2.3-1.6
				c0.5-0.4,1-0.7,1.5-1.2c0.1-0.1,0.2-0.2,0.4-0.3c18.9,1.8,37.1,7.6,53.6,16.9c8.8,4.9,16.8,11.2,23.6,18.7
				c11.2,11.5,17.6,26.8,18.1,42.8v8c0,8.8-22.9,23.8-71.9,29.6V158c0-22.1-17.9-39.9-39.9-39.9c-22.1,0-39.9,17.9-39.9,39.9v29.6
				c-49-5.8-71.9-20.8-71.9-29.6V150.1z M351.2,150h-6.5c2.7-7.7,9.2-13.5,17.2-15.4c8-1.8,16.4,0.6,22.2,6.4c2.5,2.6,4.4,5.6,5.6,9
				h-6.6c-4.4,0-8,3.6-8,8s3.6,8,8,8h8v23.2c-7.9,0.6-16.3,0.8-24.7,0.8c-4.6,0-9.2-0.1-13.6-0.3c-1.5-0.1-2.9-0.2-4.3-0.2
				c-1.8-0.1-3.6-0.2-5.3-0.4V166h8c4.4,0,8-3.6,8-8C359.2,153.6,355.6,150,351.2,150z M255.3,182.2c18.6,12.5,50.4,19.7,79.1,22.3
				c10.4,1,21.3,1.5,32.6,1.5c11.3,0,22.1-0.5,32.5-1.5h0.2c28.8-2.6,60.6-9.8,79.1-22.3v55.7c0,13-43.6,31.9-111.8,31.9
				s-111.7-18.9-111.7-31.9L255.3,182.2L255.3,182.2z M239.3,178.5v59.4c0,31.5,64.3,47.9,127.8,47.9s127.8-16.5,127.8-47.9v-59.4
				c63.4,13.6,103.8,36.5,103.8,59.4c0,0.9-0.1,1.8-0.2,2.7c0,0.1,0,0.3-0.1,0.4c-0.1,0.6-0.3,1.2-0.4,1.8c-0.1,0.4-0.2,0.9-0.4,1.3
				c-0.2,0.6-0.5,1.2-0.7,1.8c-0.2,0.4-0.3,0.9-0.6,1.3c-0.3,0.6-0.7,1.2-1,1.8c-0.3,0.4-0.5,0.9-0.8,1.3c-0.4,0.6-0.9,1.2-1.3,1.8
				c-0.3,0.4-0.6,0.9-1,1.3c-0.5,0.6-1,1.2-1.6,1.8c-0.4,0.4-0.8,0.9-1.2,1.3c-0.6,0.6-1.2,1.2-1.8,1.7c-0.5,0.4-0.9,0.9-1.4,1.3
				c-0.7,0.6-1.4,1.2-2.1,1.8c-0.5,0.4-1,0.9-1.6,1.3c-0.7,0.6-1.5,1.1-2.3,1.7c-0.6,0.4-1.2,0.9-1.8,1.3c-0.8,0.5-1.7,1.1-2.5,1.6
				c-0.7,0.4-1.4,0.9-2.1,1.3c-0.9,0.5-1.8,1.1-2.7,1.6c-0.8,0.4-1.5,0.9-2.3,1.3c-1,0.5-2,1-3,1.6c-0.8,0.4-1.6,0.9-2.5,1.3
				c-1,0.5-2.1,1-3.1,1.5s-1.8,0.9-2.8,1.3s-2.1,0.9-3.1,1.4s-2.1,0.9-3.2,1.4c-1.1,0.5-2.2,0.9-3.3,1.3s-2.2,0.9-3.4,1.3
				s-2.4,0.9-3.6,1.3c-1.2,0.4-2.3,0.8-3.5,1.3c-1.2,0.4-2.5,0.8-3.8,1.3c-1.3,0.4-2.4,0.8-3.7,1.2c-1.3,0.4-2.5,0.8-3.8,1.2
				s-2.6,0.8-4,1.2c-1.3,0.4-2.6,0.7-3.9,1.1c-1.4,0.4-2.9,0.8-4.3,1.2c-1.3,0.4-2.7,0.7-4,1c-1.5,0.4-3,0.8-4.5,1.2
				c-1.4,0.3-2.8,0.7-4.3,1c-1.4,0.3-3,0.7-4.6,1.1c-1.4,0.3-2.9,0.6-4.4,0.9c-1.6,0.3-3.2,0.7-4.8,1c-1.4,0.3-2.9,0.5-4.4,0.8
				c-1.7,0.3-3.4,0.7-5.1,1c-1.5,0.3-2.9,0.5-4.4,0.7l-5.4,0.9c-1.6,0.3-3.2,0.5-4.9,0.7c-1.8,0.3-3.5,0.5-5.3,0.8s-3.5,0.5-5.2,0.7
				s-3.5,0.5-5.2,0.7c-1.8,0.2-3.5,0.4-5.2,0.6s-3.6,0.4-5.5,0.6s-3.5,0.3-5.3,0.5c-1.9,0.2-3.8,0.4-5.7,0.5
				c-1.9,0.1-3.9,0.3-5.8,0.4c-1.8,0.1-3.6,0.3-5.4,0.4c-2,0.1-4,0.2-6,0.4c-1.8,0.1-3.7,0.2-5.5,0.3c-1.7,0.1-3.4,0.1-5.1,0.2
				c-2.2,0.1-4.4,0.2-6.7,0.3c-3.2,0.1-6.5,0.2-9.7,0.2c-0.8,0-1.5,0-2.2,0.1c-4,0.1-8.1,0.1-12.2,0.1s-8.2,0-12.2-0.1
				c-1.5,0-3-0.1-4.5-0.1c-2.5-0.1-5-0.1-7.5-0.2c-1.9-0.1-3.8-0.2-5.7-0.2c-1.9-0.1-4.1-0.2-6.1-0.3c-1.7-0.1-3.3-0.2-4.9-0.3
				c-2.2-0.1-4.4-0.2-6.6-0.4c-1.7-0.1-3.4-0.3-5-0.4c-2.1-0.2-4.2-0.3-6.2-0.5c-1.8-0.2-3.6-0.3-5.3-0.5c-1.8-0.2-3.8-0.3-5.6-0.5
				c-1.8-0.2-3.7-0.4-5.6-0.6c-1.7-0.2-3.4-0.4-5.1-0.6c-1.9-0.2-3.7-0.5-5.5-0.7c-1.6-0.2-3.3-0.4-4.9-0.6
				c-1.8-0.2-3.5-0.5-5.2-0.8c-1.7-0.3-3.3-0.5-4.9-0.7c-1.6-0.3-3.3-0.6-5-0.8c-1.7-0.3-3.3-0.5-4.9-0.8c-1.6-0.3-3.3-0.6-4.9-0.9
				c-1.5-0.3-3.1-0.6-4.6-0.9c-1.7-0.3-3.3-0.7-4.9-1c-1.4-0.3-2.9-0.6-4.3-0.9c-1.6-0.4-3.2-0.7-4.8-1.1c-1.3-0.3-2.7-0.6-4-0.9
				c-1.6-0.4-3.1-0.8-4.7-1.2c-1.3-0.3-2.6-0.6-3.8-1c-1.5-0.4-3-0.8-4.5-1.3c-1.2-0.3-2.4-0.7-3.6-1c-1.5-0.4-2.9-0.9-4.4-1.3
				c-1.1-0.4-2.3-0.7-3.4-1.1c-1.4-0.5-2.8-0.9-4.2-1.4c-1.1-0.4-2.2-0.7-3.3-1.1c-1.4-0.5-2.7-1-4-1.5c-1-0.4-2.1-0.7-3.1-1.1
				c-1.3-0.5-2.6-1-3.8-1.5c-0.9-0.4-1.9-0.7-2.8-1.1c-1.2-0.5-2.4-1-3.6-1.6c-0.9-0.4-1.8-0.8-2.7-1.2c-1.2-0.5-2.2-1.1-3.3-1.6
				c-0.8-0.4-1.7-0.8-2.5-1.2c-1-0.5-2-1.1-3-1.6c-0.8-0.4-1.7-0.9-2.4-1.3c-1-0.5-1.9-1.1-2.8-1.6c-0.8-0.4-1.5-0.9-2.3-1.3
				c-0.9-0.5-1.7-1.1-2.5-1.6c-0.7-0.4-1.4-0.9-2.1-1.3c-0.8-0.5-1.5-1.1-2.2-1.6s-1.3-0.9-1.9-1.4c-0.6-0.5-1.3-1-1.9-1.6
				c-0.6-0.5-1.2-1-1.8-1.5s-1.1-1-1.7-1.6c-0.5-0.6-1.1-1-1.6-1.5s-0.9-1-1.4-1.6c-0.5-0.5-1-1-1.4-1.6c-0.4-0.6-0.8-1-1.1-1.5
				c-0.3-0.5-0.8-1.1-1.2-1.6s-0.6-1-0.9-1.5s-0.7-1.1-0.9-1.7c-0.3-0.5-0.4-1-0.6-1.4c-0.2-0.5-0.5-1.1-0.7-1.7
				c-0.2-0.6-0.2-0.9-0.4-1.4c-0.2-0.6-0.3-1.2-0.4-1.8c0-0.1,0-0.3-0.1-0.4c-0.2-0.9-0.2-1.7-0.3-2.6
				C135.5,215.1,175.9,192.1,239.3,178.5z"/>
		</g>
	</g>
	<path class="st4" d="M606.7,237.9c0,1.4-0.1,2.7-0.3,4.1v0.2c-6.7,42.2-111.3,75.6-239.3,75.6s-232.6-33.5-239.3-75.6V242
		c-0.2-1.3-0.3-2.7-0.3-4.1c0-29.6,48.2-55.4,119.8-69.2v69.2c0,22,53.7,39.9,119.8,39.9s119.8-17.9,119.8-39.9v-69.2
		C558.6,182.6,606.7,208.4,606.7,237.9z"/>
	<path class="st4" d="M445.7,204.2c-4.7-3.2-9.6-6-14.7-8.5L445.7,204.2z"/>
	<path class="st4" d="M387.1,244.2c15.1-3.8,29.7-9,43.9-15.4L387.1,244.2z"/>
	<path class="st5" d="M486.9,150.1v8c0,18.4-37.2,33.9-87.9,38.5v-38.5c0-17.6-14.3-31.9-31.9-31.9s-31.9,14.3-31.9,31.9v38.5
		c-50.6-4.6-87.9-20.1-87.9-38.5v-8c0.6-20.2,9.6-39.3,24.7-52.8C294.7,77,323.6,65,354,63.4c3,4.3,7.9,6.9,13.1,6.9
		s10.1-2.6,13.1-6.9c21.4,1.5,42.2,7.7,60.9,18.3c9.5,5.4,18.2,12.2,25.6,20.2C479.2,114.8,486.4,132,486.9,150.1z"/>
	<path class="st6" d="M399.1,196.5c-10.1,1-20.9,1.4-31.9,1.4s-21.8-0.5-31.9-1.4c-50.6-4.6-87.9-20.1-87.9-38.5v79.9
		c0,22,53.7,39.9,119.8,39.9S487,259.9,487,237.9V158C486.9,176.4,449.7,191.9,399.1,196.5z M295.2,245.9c-8.8,0-16-7.2-16-16
		s7.2-16,16-16s16,7.2,16,16S304,245.9,295.2,245.9z M367.1,253.9c-8.8,0-16-7.2-16-16s7.2-16,16-16s16,7.2,16,16
		S375.9,253.9,367.1,253.9z M439,245.9c-8.8,0-16-7.2-16-16s7.2-16,16-16s16,7.2,16,16C454.9,238.7,447.8,245.9,439,245.9z"/>
	<path class="st4" d="M423,107.9c-4.2-2.2-8.5-4.1-12.9-5.8L423,107.9z"/>
	<path class="st4" d="M455,150.1c-0.7-12.2-6.5-23.5-16-31.1L455,150.1z"/>
	<path class="st7" d="M399.1,158v38.5c-10.1,1-20.9,1.4-31.9,1.4s-21.8-0.5-31.9-1.4V158c0-17.6,14.3-31.9,31.9-31.9
		S399.1,140.4,399.1,158z"/>
	<path class="st8" d="M383.1,237.9c0,8.8-7.2,16-16,16s-16-7.2-16-16s7.2-16,16-16C375.9,221.9,383.1,229.1,383.1,237.9z"/>
	<path class="st8" d="M455,229.9c0,8.8-7.2,16-16,16s-16-7.2-16-16s7.2-16,16-16C447.8,214,455,221.1,455,229.9z"/>
	<path class="st8" d="M311.2,229.9c0,8.8-7.2,16-16,16s-16-7.2-16-16s7.2-16,16-16C304,214,311.2,221.1,311.2,229.9z"/>
	<path class="st4" d="M367.1,198c-11,0-21.8-0.5-31.9-1.4L367.1,198z"/>
	<path class="st8" d="M664,785.4L533.8,326.2c-103.4,62-232.5,62-335.9,0l-67,186.2c1,0.2-84.2,274-83.3,274.4
		C86.6,785.2,619.3,785.7,664,785.4z"/>
	<g>
		<g>
			<path class="st9" d="M546.5,229.3c4.6,2.3,9.2,4.9,13.4,7.8c3.6,2.5,8.5,1.7,11-1.9c2.5-3.6,1.7-8.6-1.9-11.1
				c-4.9-3.5-10.2-6.5-15.6-9.1c-4-1.9-8.7-0.3-10.6,3.7C541,222.6,542.5,227.4,546.5,229.3L546.5,229.3z"/>
			<path class="st9" d="M506.6,278.8c0.7,0,1.4-0.1,2-0.3c15.3-4,30.3-9.3,44.7-16c3.9-1.9,5.5-6.6,3.7-10.6
				c-1.9-4-6.5-5.7-10.5-3.8c-13.5,6.2-27.6,11.2-42,14.9c-3.9,1-6.3,4.8-5.8,8.7C499.3,275.7,502.6,278.7,506.6,278.8L506.6,278.8z
				"/>
			<path class="st9" d="M408.2,110c4.1,1.5,7.9,3.3,11.8,5.3c3.9,2.1,8.6,0.6,10.7-3.3s0.6-8.7-3.3-10.8c-4.4-2.4-9-4.5-13.7-6.2
				c-2.7-1.1-5.7-0.6-7.9,1.3c-2.2,1.9-3.3,4.7-2.8,7.6C403.5,106.7,405.5,109.1,408.2,110z"/>
			<path class="st9" d="M447.4,150.6c0,4.4,3.6,7.9,7.9,7.9h0.1c4.3,0,7.8-3.6,7.8-8c-0.7-14.4-7.3-28-18.4-37.1
				c-3.3-2.8-8.1-2.5-11,0.7c-2.9,3.2-2.7,8.2,0.4,11.2C441.8,131.6,446.6,140.7,447.4,150.6z"/>
			<path class="st9" d="M368.4,262.7c13,0,23.7-10.7,23.7-24.1c0-13.2-10.6-24.1-23.7-24.1c-13,0-23.7,10.7-23.7,24.1
				S355.4,262.7,368.4,262.7z M368.4,230.7c4.3,0,7.9,3.6,7.9,8c0,4.4-3.6,8-7.9,8c-4.3,0-7.9-3.6-7.9-8
				C360.5,234.3,364.1,230.7,368.4,230.7z"/>
			<path class="st9" d="M439.5,254.7c13,0,23.7-10.7,23.7-24.1c0-13.3-10.6-24.1-23.7-24.1c-13,0-23.7,10.7-23.7,24.1
				C415.7,244,426.3,254.7,439.5,254.7z M439.5,222.7c4.3,0,7.9,3.6,7.9,8c0,4.4-3.6,8-7.9,8s-7.9-3.6-7.9-8
				C431.6,226.3,435.1,222.7,439.5,222.7z"/>
			<path class="st9" d="M297.4,254.7c13,0,23.7-10.7,23.7-24.1c0-13.3-10.6-24.1-23.7-24.1s-23.7,10.7-23.7,24.1
				C273.7,244,284.3,254.7,297.4,254.7z M297.4,222.7c4.3,0,7.9,3.6,7.9,8c0,4.4-3.6,8-7.9,8c-4.3,0-7.9-3.6-7.9-8
				C289.5,226.3,293,222.7,297.4,222.7z"/>
			<path class="st9" d="M207,331.4c0.8,0.4,1.6,0.9,2.5,1.3c0.9,0.4,1.7,0.9,2.6,1.4c1.5,0.8,3,1.6,4.5,2.4c0.9,0.5,1.7,0.9,2.6,1.4
				c1.7,0.9,3.5,1.8,5.4,2.6c0.8,0.4,1.6,0.8,2.4,1.2c2.3,1.1,4.8,2.2,7.2,3.3l1.1,0.5c2.9,1.3,5.9,2.6,9.1,3.9l1.5,0.6
				c2.6,1.1,5.3,2.1,8,3.1c1.1,0.4,2.2,0.8,3.2,1.2c2.3,0.8,4.6,1.6,6.8,2.4c1.3,0.4,2.7,0.9,4,1.3c2.2,0.7,4.4,1.4,6.6,2.1
				c1.5,0.4,3,0.9,4.5,1.3c2.2,0.6,4.5,1.3,6.7,1.9c1.6,0.4,3.2,0.8,4.9,1.2c2.3,0.6,4.6,1.1,6.9,1.6c1.7,0.4,3.4,0.8,5.2,1.1
				c2.4,0.5,4.8,1,7.1,1.4c1.8,0.3,3.6,0.7,5.4,1c2.5,0.4,5,0.8,7.5,1.2c1.8,0.3,3.6,0.5,5.4,0.8c2.7,0.3,5.4,0.6,8.1,0.9
				c1.8,0.2,3.5,0.4,5.3,0.5c3.1,0.3,6.1,0.4,9.2,0.6c1.5,0.1,3.1,0.2,4.6,0.3c4.7,0.2,9.4,0.3,14.3,0.3c4.9,0,9.5-0.1,14.3-0.3
				c1.6-0.1,3.1-0.2,4.6-0.3c3.1-0.2,6.1-0.4,9.2-0.6c1.8-0.2,3.5-0.4,5.3-0.5c2.7-0.3,5.5-0.6,8.1-0.9c1.8-0.2,3.6-0.5,5.4-0.8
				c2.5-0.4,5.1-0.7,7.5-1.2c1.8-0.3,3.6-0.6,5.4-1c2.4-0.4,4.8-0.9,7.1-1.4c1.7-0.4,3.4-0.7,5.2-1.1c2.4-0.5,4.7-1.1,6.9-1.6
				c1.6-0.4,3.3-0.8,4.9-1.2c2.3-0.6,4.5-1.2,6.7-1.9c1.5-0.4,3-0.9,4.5-1.3c2.3-0.7,4.5-1.4,6.6-2.1c1.3-0.4,2.7-0.9,4-1.3
				c2.4-0.8,4.7-1.6,6.9-2.4c1.1-0.4,2.2-0.7,3.2-1.1c2.8-1,5.5-2.1,8.1-3.2c0.5-0.2,0.9-0.4,1.4-0.5c3.2-1.3,6.1-2.6,9.1-3.9
				l0.9-0.4c2.6-1.1,5.1-2.3,7.5-3.4l2.2-1.1c1.9-0.9,3.8-1.8,5.6-2.7c0.8-0.4,1.6-0.8,2.4-1.3c1.6-0.8,3.2-1.7,4.7-2.5l2.3-1.3
				c0.9-0.5,1.8-1,2.6-1.4l13.7-8.6c39.1-24.9,65.1-54.7,68.8-79c0-0.1,0.1-0.2,0.1-0.3v-0.5c0.3-1.6,0.4-3.3,0.4-5
				c0-32.1-44.3-60.1-118.8-75.7v-12.3c-0.5-20-8.3-39.1-22.1-53.5c-7.9-8.6-17.1-16-27.3-21.8c-16.7-9.4-34.9-15.6-53.8-18
				c0.1-0.8,0.2-1.7,0.2-2.5c0-13.2-10.6-24-23.8-24c-13.1,0-23.8,10.7-23.8,24c0,0.8,0.1,1.6,0.2,2.3
				c-28.4,3.5-54.9,15.7-76.2,34.9c-16.7,14.9-26.4,36.1-27,58.6v12.2c-74.5,15.5-118.8,43.6-118.8,75.6c0,1.6,0.1,3.3,0.3,4.9
				c-0.1,0.1-0.1,0.3,0,0.4v0.2c0,0.1,0.1,0.2,0.1,0.3c3.7,24.1,29.7,53.9,68.8,79 M532,312.7c-49.5,29.6-105.6,45.3-162.8,45.4
				c-22.2,0-44.2-2.4-65.9-7.1c-34-7.4-66.6-20.3-96.6-38.2c-8.4-5.1-16.6-10.7-24.4-16.7l0.8,0.2c2.2,0.9,4.5,1.8,6.7,2.6l1.5,0.6
				c2.9,1.1,5.8,2.1,8.9,3.1l0.3,0.1c2.9,1,5.7,1.9,8.7,2.8c0.9,0.3,1.8,0.5,2.7,0.8c2.3,0.7,4.6,1.3,6.8,1.9
				c1.1,0.3,2.2,0.6,3.4,0.9c2.2,0.6,4.4,1.1,6.5,1.7c1.2,0.3,2.5,0.6,3.7,0.9c2.2,0.5,4.5,1,6.7,1.5c1.3,0.3,2.5,0.5,3.8,0.8
				c2.4,0.5,4.8,1,7.1,1.4c1.2,0.2,2.4,0.5,3.7,0.7c2.8,0.5,5.6,1,8.3,1.5c1,0.2,1.9,0.3,2.8,0.5c3.8,0.6,7.6,1.2,11.6,1.8h0.2
				c3.8,0.5,7.6,1,11.5,1.5l3.7,0.4c2.8,0.3,5.6,0.6,8.3,0.9l4.6,0.4c2.6,0.2,5.2,0.5,7.7,0.7l5,0.4c2.6,0.2,5.2,0.4,7.7,0.5
				c1.7,0.1,3.4,0.2,5.1,0.3c2.7,0.2,5.4,0.3,8,0.4c1.6,0.1,3.3,0.1,4.9,0.2c3,0.1,5.8,0.2,8.8,0.3l4.3,0.1
				c4.4,0.1,8.8,0.1,13.3,0.1c4.5,0,8.8-0.1,13.3-0.1l4.3-0.1c3-0.1,5.9-0.1,8.8-0.3c1.7-0.1,3.3-0.1,4.9-0.2c2.7-0.1,5.4-0.2,8-0.4
				c1.7-0.1,3.4-0.2,5.1-0.3c2.6-0.2,5.2-0.3,7.7-0.5l5-0.4c2.6-0.2,5.2-0.4,7.7-0.7l4.6-0.4c2.8-0.3,5.6-0.6,8.3-0.9l3.7-0.4
				c3.9-0.5,7.7-1,11.5-1.5h0.2c3.9-0.5,7.7-1.1,11.6-1.8c1-0.2,1.9-0.3,2.8-0.5l8.3-1.5c1.2-0.2,2.4-0.5,3.7-0.7
				c2.4-0.5,4.8-0.9,7.1-1.4c1.3-0.3,2.6-0.5,3.8-0.8c2.3-0.5,4.5-1,6.7-1.5c1.2-0.3,2.5-0.6,3.7-0.9c2.2-0.5,4.5-1.1,6.5-1.7
				c1.1-0.3,2.3-0.6,3.4-0.9c2.3-0.6,4.6-1.3,6.8-1.9c0.9-0.3,1.8-0.5,2.7-0.8c3-0.9,5.9-1.8,8.7-2.8l0.3-0.1c3.1-1,5.9-2.1,8.9-3.1
				l1.5-0.6c2.3-0.9,4.6-1.7,6.7-2.6l0.7-0.3C548.5,302,540.4,307.6,532,312.7z M369.2,46.4c4.4,0,7.9,3.6,7.9,8
				c0,1.6-0.5,3.2-1.5,4.6c-2.4,3.1-6.5,4.1-10.1,2.4c-1.2-0.5-2.2-1.4-2.9-2.4c-0.9-1.3-1.4-2.9-1.4-4.6
				C361.3,50,364.8,46.4,369.2,46.4z M258.4,150.4c0.6-18.1,8.5-35.2,22-47.1c20.1-18.1,45.6-29.1,72.6-31.4
				c0.1,0.1,0.2,0.2,0.4,0.3c0.4,0.4,0.9,0.7,1.4,1.1c0.8,0.6,1.6,1.2,2.4,1.7c1.1,0.6,2.2,1.2,3.3,1.6h0.1c5.6,2.5,11.9,2.5,17.4,0
				h0.1c1.2-0.4,2.3-1,3.4-1.6c0.8-0.5,1.6-1,2.3-1.6c0.5-0.4,1-0.7,1.5-1.2c0.1-0.1,0.2-0.2,0.4-0.3c18.7,1.8,36.8,7.6,53.1,16.9
				c8.7,4.9,16.7,11.2,23.4,18.7c11.1,11.5,17.4,26.8,17.9,42.8v8c0,8.8-22.7,23.8-71.3,29.6v-29.6c0-22.1-17.7-39.9-39.6-39.9
				c-21.9,0-39.6,17.9-39.6,39.9V188c-48.6-5.8-71.3-20.8-71.3-29.6V150.4z M353.4,150.3H347c2.7-7.7,9.1-13.5,17.1-15.4
				c7.9-1.8,16.3,0.6,22,6.4c2.5,2.6,4.4,5.6,5.6,9h-6.5c-4.4,0-7.9,3.6-7.9,8c0,4.5,3.6,8,7.9,8h7.9v23.2
				c-7.8,0.6-16.2,0.8-24.5,0.8c-4.6,0-9.1-0.1-13.5-0.3c-1.5-0.1-2.9-0.2-4.3-0.2c-1.8-0.1-3.6-0.2-5.3-0.4v-23.1h7.9
				c4.4,0,7.9-3.6,7.9-8C361.4,153.9,357.8,150.3,353.4,150.3z M258.4,182.5c18.4,12.5,50,19.7,78.4,22.3c10.3,1,21.1,1.5,32.3,1.5
				s21.9-0.5,32.2-1.5h0.2c28.6-2.6,60.1-9.8,78.4-22.3v55.7c0,13-43.2,31.9-110.8,31.9s-110.8-18.9-110.8-31.9L258.4,182.5z
				 M242.5,178.8v59.4c0,31.5,63.7,47.9,126.7,47.9s126.7-16.5,126.7-47.9v-59.4c62.9,13.6,102.9,36.5,102.9,59.4
				c0,0.9-0.1,1.8-0.2,2.7c0,0.1,0,0.3-0.1,0.4c-0.1,0.6-0.3,1.2-0.4,1.8c-0.1,0.4-0.2,0.9-0.4,1.3c-0.2,0.6-0.5,1.2-0.7,1.8
				c-0.2,0.4-0.3,0.9-0.6,1.3c-0.3,0.6-0.7,1.2-1,1.8c-0.3,0.4-0.5,0.9-0.8,1.3c-0.4,0.6-0.9,1.2-1.3,1.8c-0.3,0.4-0.6,0.9-1,1.3
				c-0.5,0.6-1,1.2-1.6,1.8c-0.4,0.4-0.8,0.9-1.2,1.3c-0.6,0.6-1.2,1.2-1.8,1.7c-0.5,0.4-0.9,0.9-1.4,1.3c-0.7,0.6-1.4,1.2-2.1,1.8
				c-0.5,0.4-1,0.9-1.6,1.3c-0.7,0.6-1.5,1.1-2.3,1.7c-0.6,0.4-1.2,0.9-1.8,1.3c-0.8,0.5-1.7,1.1-2.5,1.6c-0.7,0.4-1.4,0.9-2.1,1.3
				c-0.9,0.5-1.8,1.1-2.7,1.6c-0.8,0.4-1.5,0.9-2.3,1.3c-1,0.5-2,1-3,1.6c-0.8,0.4-1.6,0.9-2.5,1.3c-1,0.5-2.1,1-3.1,1.5
				c-1,0.5-1.8,0.9-2.8,1.3c-1,0.4-2.1,0.9-3.1,1.4c-1,0.5-2.1,0.9-3.2,1.4c-1.1,0.5-2.2,0.9-3.3,1.3c-1.1,0.4-2.2,0.9-3.4,1.3
				c-1.2,0.4-2.4,0.9-3.6,1.3c-1.2,0.4-2.3,0.8-3.5,1.3c-1.2,0.4-2.5,0.8-3.8,1.3c-1.3,0.4-2.4,0.8-3.7,1.2s-2.5,0.8-3.8,1.2
				c-1.3,0.4-2.6,0.8-4,1.2c-1.3,0.4-2.6,0.7-3.9,1.1c-1.4,0.4-2.9,0.8-4.3,1.2c-1.3,0.4-2.7,0.7-4,1c-1.5,0.4-3,0.8-4.5,1.2
				c-1.4,0.3-2.8,0.7-4.3,1c-1.4,0.3-3,0.7-4.6,1.1c-1.4,0.3-2.9,0.6-4.4,0.9c-1.6,0.3-3.2,0.7-4.8,1c-1.4,0.3-2.9,0.5-4.4,0.8
				c-1.7,0.3-3.4,0.7-5.1,1c-1.5,0.3-2.9,0.5-4.4,0.7l-5.4,0.9c-1.6,0.3-3.2,0.5-4.9,0.7c-1.8,0.3-3.5,0.5-5.3,0.8
				c-1.8,0.3-3.5,0.5-5.2,0.7c-1.7,0.2-3.5,0.5-5.2,0.7c-1.8,0.2-3.5,0.4-5.2,0.6c-1.7,0.2-3.6,0.4-5.5,0.6s-3.5,0.3-5.3,0.5
				c-1.9,0.2-3.8,0.4-5.7,0.5c-1.9,0.1-3.9,0.3-5.7,0.4c-1.8,0.1-3.6,0.3-5.4,0.4c-2,0.1-4,0.2-5.9,0.4c-1.8,0.1-3.7,0.2-5.5,0.3
				c-1.7,0.1-3.4,0.1-5.1,0.2c-2.2,0.1-4.4,0.2-6.6,0.3c-3.2,0.1-6.4,0.2-9.6,0.2c-0.8,0-1.5,0-2.2,0.1c-4,0.1-8,0.1-12.1,0.1
				c-4.1,0-8.1,0-12.1-0.1c-1.5,0-3-0.1-4.5-0.1c-2.5-0.1-5-0.1-7.4-0.2c-1.9-0.1-3.8-0.2-5.7-0.2c-1.9-0.1-4.1-0.2-6-0.3
				c-1.7-0.1-3.3-0.2-4.9-0.3c-2.2-0.1-4.4-0.2-6.5-0.4c-1.7-0.1-3.4-0.3-5-0.4c-2.1-0.2-4.2-0.3-6.1-0.5c-1.8-0.2-3.6-0.3-5.3-0.5
				c-1.8-0.2-3.8-0.3-5.6-0.5c-1.8-0.2-3.7-0.4-5.6-0.6c-1.7-0.2-3.4-0.4-5.1-0.6c-1.9-0.2-3.7-0.5-5.5-0.7
				c-1.6-0.2-3.3-0.4-4.9-0.6c-1.8-0.2-3.5-0.5-5.2-0.8c-1.7-0.3-3.3-0.5-4.9-0.7c-1.6-0.3-3.3-0.6-5-0.8c-1.7-0.3-3.3-0.5-4.9-0.8
				c-1.6-0.3-3.3-0.6-4.9-0.9c-1.5-0.3-3.1-0.6-4.6-0.9c-1.7-0.3-3.3-0.7-4.9-1c-1.4-0.3-2.9-0.6-4.3-0.9c-1.6-0.4-3.2-0.7-4.8-1.1
				c-1.3-0.3-2.7-0.6-4-0.9c-1.6-0.4-3.1-0.8-4.7-1.2c-1.3-0.3-2.6-0.6-3.8-1c-1.5-0.4-3-0.8-4.5-1.3c-1.2-0.3-2.4-0.7-3.6-1
				c-1.5-0.4-2.9-0.9-4.4-1.3c-1.1-0.4-2.3-0.7-3.4-1.1c-1.4-0.5-2.8-0.9-4.2-1.4c-1.1-0.4-2.2-0.7-3.3-1.1c-1.4-0.5-2.7-1-4-1.5
				c-1-0.4-2.1-0.7-3.1-1.1c-1.3-0.5-2.6-1-3.8-1.5c-0.9-0.4-1.9-0.7-2.8-1.1c-1.2-0.5-2.4-1-3.6-1.6c-0.9-0.4-1.8-0.8-2.7-1.2
				c-1.2-0.5-2.2-1.1-3.3-1.6c-0.8-0.4-1.7-0.8-2.5-1.2c-1-0.5-2-1.1-3-1.6c-0.8-0.4-1.7-0.9-2.4-1.3c-1-0.5-1.9-1.1-2.8-1.6
				c-0.8-0.4-1.5-0.9-2.3-1.3c-0.9-0.5-1.7-1.1-2.5-1.6c-0.7-0.4-1.4-0.9-2.1-1.3c-0.8-0.5-1.5-1.1-2.2-1.6
				c-0.7-0.5-1.3-0.9-1.9-1.4c-0.6-0.5-1.3-1-1.9-1.6c-0.6-0.5-1.2-1-1.8-1.5c-0.6-0.5-1.1-1-1.7-1.6c-0.5-0.6-1.1-1-1.6-1.5
				c-0.5-0.5-0.9-1-1.4-1.6c-0.5-0.5-1-1-1.4-1.6s-0.8-1-1.1-1.5c-0.3-0.5-0.8-1.1-1.2-1.6s-0.6-1-0.9-1.5s-0.7-1.1-0.9-1.7
				c-0.3-0.5-0.4-1-0.6-1.4c-0.2-0.5-0.5-1.1-0.7-1.7c-0.2-0.6-0.2-0.9-0.4-1.4c-0.2-0.6-0.3-1.2-0.4-1.8c0-0.1,0-0.3-0.1-0.4
				c-0.2-0.9-0.2-1.7-0.3-2.6C139.6,215.4,179.7,192.4,242.5,178.8z"/>
			<path class="st9" d="M178.1,295l52.2,40.5l43.4,15.6c0,0,146.4,38.9,236.4-15.6s59.6-43.8,59.6-43.8l-71,18.4
				c0,0-161.5,24.9-244.7,1.6C170.7,288.4,178.1,295,178.1,295z"/>
		</g>
	</g>
	<g>
		<circle class="st9" cx="40.5" cy="796.7" r="11.9"/>
		<circle class="st9" cx="678.8" cy="796.6" r="11"/>
		<polygon class="st9" points="40.3,808.6 40.3,795.7 29.8,791.9 196.9,323.3 217.6,330.7 55,786.6 663.5,785.6 526.7,324.7 
			547.8,318.5 688.8,793.4 679.8,796.1 679.8,807.6 		"/>
	</g>
</g>
<g>
	
		<ellipse transform="matrix(0.9874 -0.1585 0.1585 0.9874 -80.6721 65.5201)" class="st10" cx="370.3" cy="538.4" rx="125.6" ry="125.1"/>
	
		<ellipse transform="matrix(0.9874 -0.1585 0.1585 0.9874 -80.6758 65.5235)" class="st8" cx="370.3" cy="538.4" rx="104.6" ry="104.2"/>
	<path class="st11" d="M272,467.6l196.7,141.7"/>
	<path class="st11" d="M299.2,636.4l142.4-196.1"/>
	
		<ellipse transform="matrix(0.9874 -0.1585 0.1585 0.9874 -70.8141 58.3252)" class="st12" cx="330.2" cy="473" rx="16.8" ry="16.7"/>
	<ellipse class="st11" cx="290" cy="513.3" rx="8.4" ry="8.4"/>
	<ellipse class="st11" cx="317.4" cy="525.8" rx="8.4" ry="8.4"/>
	
		<ellipse transform="matrix(0.9874 -0.1585 0.1585 0.9874 -88.1029 56.0197)" class="st12" cx="307.1" cy="580.2" rx="16.8" ry="16.7"/>
	<ellipse class="st11" cx="347.4" cy="620.2" rx="8.4" ry="8.4"/>
	<ellipse class="st11" cx="359.9" cy="592.8" rx="8.4" ry="8.4"/>
	
		<ellipse transform="matrix(0.9874 -0.1585 0.1585 0.9874 -90.5307 72.7146)" class="st12" cx="410.5" cy="603.8" rx="16.8" ry="16.7"/>
	<ellipse class="st11" cx="450.7" cy="563.5" rx="8.4" ry="8.4"/>
	<ellipse class="st11" cx="423.3" cy="551" rx="8.4" ry="8.4"/>
	
		<ellipse transform="matrix(0.9874 -0.1585 0.1585 0.9874 -73.2279 75.0167)" class="st12" cx="433.6" cy="496.5" rx="16.8" ry="16.7"/>
	<ellipse class="st11" cx="393.2" cy="456.6" rx="8.4" ry="8.4"/>
	<ellipse class="st11" cx="380.6" cy="483.9" rx="8.4" ry="8.4"/>
	<g>
		<path class="st9" d="M349.8,410.7c-70.8,11.4-119,77.7-107.6,148.3c11.3,70.5,77.9,118.5,148.6,107.1s119-77.7,107.6-148.3
			C487.1,447.4,420.6,399.5,349.8,410.7z M489.4,515l-12.4,2c-5.1-25.3-19.1-48-39.6-63.9l7.3-10.1C468,460.8,483.8,486.4,489.4,515
			z M430.7,448.2c-21.5-14.4-47.6-20.5-73.4-17.4l-1.9-12.3c29.1-3.6,58.5,3.3,82.8,19.6L430.7,448.2z M364.7,529.1l-73-52.6
			c14.7-18.7,35.5-31.4,58.8-36.1L364.7,529.1z M382.1,637.7c-23.6,2.7-47.4-2.9-67.1-15.9l52.9-72.8L382.1,637.7z M376.1,547.7
			l73,52.6c-14.7,18.7-35.5,31.4-58.8,36.1L376.1,547.7z M358.7,438.9c23.6-2.7,47.4,2.9,67.1,15.9l-52.9,72.8L358.7,438.9z
			 M349.1,432.1c-25.4,5.1-48.2,19.1-64.3,39.5l-10.1-7.3c17.9-23.1,43.7-38.9,72.5-44.5L349.1,432.1L349.1,432.1z M359.8,535.9
			l-89.2,14.3c-2.7-23.5,3-47.2,16-67L359.8,535.9z M361,544.2L308.1,617c-18.7-14.6-31.5-35.4-36.2-58.6L361,544.2z M310,628.6
			c21.5,14.4,47.6,20.5,73.4,17.4l1.9,12.3c-29.1,3.6-58.5-3.3-82.8-19.6L310,628.6z M391.7,644.7c25.4-5.1,48.2-19.1,64.3-39.5
			l10.1,7.3c-17.9,23.1-43.7,38.9-72.5,44.5L391.7,644.7L391.7,644.7z M381,540.9l89.2-14.3c2.7,23.5-3,47.2-16,67L381,540.9z
			 M379.7,532.6l52.9-72.8c18.7,14.6,31.5,35.4,36.2,58.6L379.7,532.6z M269.6,471.1l10.1,7.3c-14.5,21.5-20.7,47.4-17.6,73.1
			l-12.4,2C246.3,524.6,253.3,495.3,269.6,471.1L269.6,471.1z M251.2,561.8l12.4-2c5.1,25.3,19.1,48,39.6,63.9l-7.4,10.1
			C272.7,616,256.9,590.4,251.2,561.8z M471.1,605.7l-10.1-7.3c14.5-21.5,20.7-47.4,17.6-73.1l12.4-2
			C494.4,552.3,487.4,581.5,471.1,605.7L471.1,605.7z"/>
		<path class="st9" d="M333.5,493.6c11.4-1.9,19.2-12.5,17.3-23.9c-1.9-11.4-12.5-19.1-23.9-17.3c-11.4,1.9-19.2,12.5-17.3,23.9
			C311.3,487.7,322,495.4,333.5,493.6z M328.2,460.6c6.9-1.1,13.3,3.5,14.4,10.4c1.1,6.9-3.6,13.2-10.5,14.3
			c-6.9,1.1-13.3-3.5-14.4-10.4C316.7,468.1,321.3,461.8,328.2,460.6z"/>
		<path class="st9" d="M292,525.6c6.9-1.1,11.5-7.4,10.5-14.3c-1.1-6.9-7.5-11.4-14.4-10.4c-6.9,1.1-11.5,7.4-10.5,14.3
			C278.7,522.1,285.1,526.7,292,525.6z M289.3,509.1c2.3-0.4,4.4,1.2,4.8,3.5c0.4,2.4-1.2,4.5-3.5,4.8c-2.3,0.4-4.4-1.2-4.8-3.5
			C285.4,511.6,287,509.5,289.3,509.1z"/>
		<path class="st9" d="M319.4,538.1c6.9-1.1,11.5-7.4,10.5-14.3c-1.1-6.9-7.5-11.4-14.4-10.4c-6.9,1.1-11.5,7.4-10.5,14.3
			C306.1,534.6,312.5,539.2,319.4,538.1z M316.8,521.6c2.3-0.4,4.4,1.2,4.8,3.5c0.4,2.4-1.2,4.5-3.5,4.8c-2.3,0.4-4.4-1.2-4.8-3.5
			C312.9,524.1,314.5,521.9,316.8,521.6z"/>
		<path class="st9" d="M310.4,600.8c11.4-1.9,19.2-12.5,17.3-23.9c-1.9-11.4-12.5-19.1-23.9-17.3c-11.4,1.8-19.2,12.5-17.3,23.9
			C288.2,594.9,299,602.6,310.4,600.8z M305.2,567.8c6.9-1.1,13.3,3.5,14.4,10.4c1.1,6.9-3.6,13.2-10.5,14.3
			c-6.9,1.1-13.3-3.5-14.4-10.4C293.6,575.5,298.2,569,305.2,567.8z"/>
		<path class="st9" d="M349.4,632.5c6.9-1.1,11.5-7.4,10.5-14.3c-1.1-6.9-7.5-11.4-14.4-10.4c-6.9,1.1-11.5,7.4-10.5,14.3
			C336.1,629,342.5,633.6,349.4,632.5z M346.8,616c2.3-0.4,4.4,1.2,4.8,3.5c0.3,2.3-1.2,4.5-3.5,4.8c-2.3,0.4-4.4-1.2-4.8-3.5
			C343,618.6,344.6,616.4,346.8,616z"/>
		<path class="st9" d="M362,605.2c6.9-1.1,11.5-7.4,10.5-14.3c-1-6.9-7.5-11.4-14.4-10.4c-6.9,1.1-11.5,7.4-10.5,14.3
			C348.7,601.7,355.2,606.4,362,605.2z M359.3,588.8c2.3-0.4,4.4,1.2,4.8,3.5c0.3,2.3-1.2,4.5-3.5,4.8c-2.3,0.4-4.4-1.2-4.8-3.5
			C355.5,591.2,357.1,589.1,359.3,588.8z"/>
		<path class="st9" d="M289.2,534.5l-4.2,0.6c-2.3,0.4-3.8,2.5-3.5,4.8c0.3,2.3,2.5,3.8,4.8,3.5l4.2-0.6c2.3-0.4,3.8-2.5,3.5-4.8
			C293.6,535.7,291.5,534.2,289.2,534.5z"/>
		<path class="st9" d="M350.7,495l-4.2,0.6c-2.3,0.4-3.8,2.5-3.5,4.8c0.3,2.3,2.5,3.8,4.8,3.5l4.2-0.6c2.3-0.4,3.8-2.5,3.5-4.8
			S353,494.6,350.7,495z"/>
		<path class="st9" d="M336.5,565l4.2-0.6c2.3-0.4,3.8-2.5,3.5-4.8c-0.3-2.3-2.5-3.8-4.8-3.5l-4.2,0.6c-2.3,0.4-3.8,2.5-3.5,4.8
			C332,563.7,334.2,565.3,336.5,565z"/>
		<path class="st9" d="M366.5,612.1l-3.5,4.8c-1.4,1.9-1.1,4.4,0.8,5.9c1.9,1.4,4.5,1,5.9-0.8c0.1,0,0-0.1,0.1-0.1l3.5-4.8
			c1.3-2,0.9-4.5-1.1-5.8C370.4,609.9,367.8,610.3,366.5,612.1z"/>
		<path class="st9" d="M407.2,583.2c-11.4,1.9-19.2,12.5-17.3,23.9c1.9,11.4,12.5,19.1,23.9,17.3c11.4-1.9,19.2-12.5,17.3-23.9
			C429.4,589,418.6,581.3,407.2,583.2z M412.5,616.1c-6.9,1.1-13.3-3.5-14.4-10.4s3.6-13.2,10.5-14.3c6.9-1.1,13.3,3.5,14.4,10.4
			C424,608.6,419.3,615,412.5,616.1z"/>
		<path class="st9" d="M448.7,551c-6.9,1.1-11.5,7.4-10.5,14.3c1.1,6.9,7.5,11.4,14.4,10.4c6.9-1.1,11.5-7.4,10.5-14.3
			C462,554.7,455.6,550,448.7,551z M451.4,567.6c-2.3,0.4-4.4-1.2-4.8-3.5c-0.3-2.3,1.2-4.5,3.5-4.8c2.3-0.4,4.4,1.2,4.8,3.5
			C455.2,565.1,453.7,567.2,451.4,567.6z"/>
		<path class="st9" d="M421.3,538.6c-6.9,1.1-11.5,7.4-10.5,14.3s7.5,11.4,14.4,10.4c6.9-1.1,11.5-7.4,10.5-14.3
			C434.6,542.2,428.2,537.5,421.3,538.6z M423.9,555.1c-2.3,0.4-4.4-1.2-4.8-3.5c-0.3-2.3,1.2-4.5,3.5-4.8c2.3-0.4,4.4,1.2,4.8,3.5
			C427.8,552.6,426.2,554.7,423.9,555.1z"/>
		<path class="st9" d="M430.3,476c-11.4,1.9-19.2,12.5-17.3,23.9c1.9,11.4,12.5,19.1,23.9,17.3c11.4-1.8,19.2-12.5,17.3-23.9
			C452.5,481.9,441.7,474.1,430.3,476z M435.6,508.9c-6.9,1.1-13.3-3.5-14.4-10.4c-1.1-6.9,3.6-13.2,10.5-14.3
			c6.9-1.1,13.3,3.5,14.4,10.4C447.1,501.3,442.4,507.7,435.6,508.9z"/>
		<path class="st9" d="M391.3,444.1c-6.9,1.1-11.5,7.4-10.5,14.3c1.1,6.9,7.5,11.4,14.4,10.4c6.9-1.1,11.5-7.4,10.5-14.3
			C404.6,447.6,398.1,443.1,391.3,444.1z M394,460.6c-2.3,0.4-4.4-1.2-4.8-3.5c-0.4-2.4,1.2-4.5,3.5-4.8c2.3-0.4,4.4,1.2,4.8,3.5
			C397.8,458.1,396.2,460.3,394,460.6z"/>
		<path class="st9" d="M378.7,471.6c-6.9,1.1-11.5,7.4-10.5,14.3c1.1,6.9,7.5,11.4,14.4,10.4c6.9-1,11.5-7.4,10.5-14.3
			C392,475.1,385.6,470.4,378.7,471.6z M381.4,488c-2.3,0.4-4.4-1.2-4.8-3.5c-0.3-2.3,1.2-4.5,3.5-4.8c2.3-0.4,4.4,1.2,4.8,3.5
			C385.2,485.5,383.6,487.7,381.4,488z"/>
		<path class="st9" d="M451.5,542.3l4.2-0.6c2.3-0.4,3.8-2.5,3.5-4.8c-0.3-2.3-2.5-3.8-4.8-3.5l-4.2,0.6c-2.3,0.4-3.8,2.5-3.5,4.8
			C447.1,541,449.2,542.6,451.5,542.3z"/>
		<path class="st9" d="M390,581.7l4.2-0.6c2.3-0.4,3.8-2.5,3.5-4.8c-0.3-2.3-2.5-3.8-4.8-3.5l-4.2,0.6c-2.3,0.4-3.8,2.5-3.5,4.8
			C385.5,580.5,387.7,582,390,581.7z"/>
		<path class="st9" d="M404.3,511.8l-4.2,0.6c-2.3,0.4-3.8,2.5-3.5,4.8c0.3,2.3,2.5,3.8,4.8,3.5l4.2-0.6c2.3-0.4,3.8-2.5,3.5-4.8
			C408.7,513,406.6,511.5,404.3,511.8z"/>
		<path class="st9" d="M371.5,466.4c1.1-0.2,2.1-0.8,2.7-1.7l3.5-4.8c1.3-2,0.9-4.5-1.1-5.8c-1.9-1.3-4.4-0.9-5.8,0.9l-3.5,4.8
			c-1.4,1.9-0.9,4.5,1,5.8C369.3,466.4,370.4,466.6,371.5,466.4z"/>
	</g>
</g>
<g>
	<ellipse class="st13" cx="338.1" cy="812.3" rx="31.2" ry="28.9"/>
	<ellipse class="st13" cx="490.6" cy="791.6" rx="31.2" ry="28.9"/>
	<path class="st14" d="M521.6,737.9l-214.2,29l14.6-27.5c5.2-9.8,14.4-17.1,25.8-20.6l139.4-41c5.8-1.6,8.9-7.3,7.1-12.6
		c-1.6-4.7-6.7-7.8-12.1-7l-145.3,42.6c-15,5.6-27.2,16-34.4,29.3l-19.2,36.4c-4,7.5-0.7,16.5,7.4,20.1c3,1.3,6.3,1.9,9.6,1.4
		l224.4-30.3c5.9-0.8,10-5.9,9.2-11.4C533.1,741,527.6,737.1,521.6,737.9z"/>
	<ellipse class="st15" cx="338.1" cy="812.3" rx="11.2" ry="10.4"/>
	<ellipse class="st15" cx="490.6" cy="791.6" rx="11.2" ry="10.4"/>
	<path class="st16" d="M549,627.6l-15.5-98.4c-1.3-7.8-9-13-17.2-11.9c-0.2,0-0.4,0.1-0.4,0.1l-240.8,38.9c-0.2,0.1-0.5,0.1-0.6,0.1
		l-1.1,0.2l-77.6,12.3l-19.3-28.7c6.2-5.9,5.9-15.3-0.4-21.1c-3.2-2.8-7.5-4.4-12-4.1l-53.6,2.5c-8.9,0.4-15.6,7.4-15.2,15.6
		s7.9,14.5,16.8,14l0,0l53.5-2.5c0.9,0,2-0.1,2.9-0.4l104.6,156c7.7,11.4,22.5,17,36.6,13.5c-4.6,4.5-8.4,9.6-11.3,15.2L279.1,765
		c-5,9.5-0.9,21.1,9.6,25.8c3.7,1.7,8,2.3,12.2,1.7l9.8-1.4c-12.8,13.9-10.7,34.8,4.2,46.6s37.5,10,50.3-4
		c12.8-13.9,10.7-34.8-4.2-46.6c-1.1-0.9-2.3-1.7-3.5-2.4l105.7-14.3c-12.8,13.9-10.7,34.8,4.2,46.6c15,11.8,37.5,10,50.3-4
		c12.8-13.9,10.7-34.8-4.2-46.6c-1.1-0.9-2.3-1.7-3.5-2.4l15.1-2.1c8.4-1.2,14.2-8.4,13-16.1c-1.2-7.8-9-13.2-17.4-12l-205.4,27.8
		l10.9-20.2c4.7-8.7,13.1-15.4,23-18.3l139.4-41c8-2.4,12.6-10.4,9.9-17.9c-0.6-1.9-1.7-3.7-3.2-5.1l40.5-11.9
		C544.8,644.7,550.4,636.3,549,627.6z M165.2,535.8l-53.4,2.6c-3.8,0.2-7.1-2.6-7.4-6.3c-0.2-3.5,2.8-6.7,6.6-6.9l53.5-2.5
		c3.8-0.2,7.1,2.6,7.4,6.1C172,532.5,169,535.6,165.2,535.8z M364.5,808.7c2.2,13.6-7.9,26-22.6,28c-14.7,2-28.1-7.4-30.3-20.9
		c-2.2-13.6,7.9-26,22.6-28C348.9,785.8,362.4,795.1,364.5,808.7z M517.1,788.1c2.2,13.6-7.9,26-22.6,28c-14.7,2-28.1-7.4-30.3-20.9
		c-2.2-13.6,7.9-26,22.6-28C501.4,765.1,514.9,774.5,517.1,788.1z M485.7,673.8l-139.4,41c-12.3,3.7-22.6,11.8-28.4,22.6l-14.6,27.7
		c-1.2,2-0.2,4.6,2,5.7c0.8,0.4,1.7,0.5,2.6,0.4l214.2-28.9c3.4-0.5,6.7,1.8,7.1,5s-2,6.2-5.3,6.7l-224.4,30.3
		c-6.4,0.9-12.3-3.2-13.3-9.2c-0.4-2.2,0-4.4,1.2-6.4l19.3-36.1c6.6-12.3,18-22.2,32-27.3l144.8-42.5c2.7-0.2,5.5,1.4,6.3,4.1l0,0
		C491,669.6,489.1,672.8,485.7,673.8z M308.6,705.4c-10.5,3.1-21.8-0.8-27.8-9.5l-80-119.9l29-4.6l287.7-46.3
		c3.3-0.6,6.6,1.4,7.1,4.6l10.5,66.3l3.4,20.6l1.9,11.7c0.5,4.7-2.4,9.1-7.3,10.5l0,0L308.6,705.4z"/>
	<path d="M340.3,826.7c8.6-1.2,14.5-8.6,13.3-16.5s-9.2-13.4-17.8-12.3c-8.6,1.2-14.5,8.6-13.3,16.5
		C323.7,822.3,331.8,827.9,340.3,826.7z M337.1,806.1c3.8-0.5,7,1.9,7.6,5.2c0.5,3.3-2.1,6.5-5.7,7c-3.8,0.5-7-1.9-7.6-5.2
		C331,809.6,333.6,806.6,337.1,806.1z"/>
	<path d="M492.9,806c8.6-1.2,14.5-8.6,13.3-16.5c-1.3-7.9-9.2-13.4-17.8-12.3c-8.6,1.2-14.5,8.6-13.3,16.5
		C476.4,801.7,484.3,807.2,492.9,806z M489.7,785.5c3.8-0.5,7,1.9,7.6,5.2c0.5,3.5-2.1,6.5-5.7,7c-3.8,0.5-7-1.9-7.6-5.2
		C483.5,789.1,486.1,786,489.7,785.5z"/>
</g>
</svg>
