<?xml version="1.0" encoding="utf-8"?>
<!-- Generator: Adobe Illustrator 23.0.0, SVG Export Plug-In . SVG Version: 6.00 Build 0)  -->
<svg version="1.1" id="Слой_1" xmlns="http://www.w3.org/2000/svg" xmlns:xlink="http://www.w3.org/1999/xlink" x="0px" y="0px"
	 viewBox="0 0 549.3 655.3" style="enable-background:new 0 0 549.3 655.3;" xml:space="preserve">
<style type="text/css">
	.st0{fill:#231F20;stroke:#FCFCFC;stroke-width:50;stroke-miterlimit:10;}
	.st1{fill:#FF9811;stroke:#FCFCFC;stroke-width:50;stroke-miterlimit:10;}
	.st2{fill:#FFDA44;stroke:#FCFCFC;stroke-width:50;stroke-miterlimit:10;}
	.st3{fill:#FF5023;stroke:#FCFCFC;stroke-width:50;stroke-miterlimit:10;}
	.st4{fill:#AB2300;stroke:#FCFCFC;stroke-width:50;stroke-miterlimit:10;}
	.st5{fill:#ACABB1;}
	.st6{fill:#00E7F0;}
	.st7{fill:#898890;}
	.st8{fill:#91CC04;}
	.st9{fill:#FFDA44;}
	.st10{fill:#231F20;}
	.st11{fill:#FF9811;}
	.st12{fill:#FF5023;}
	.st13{fill:#AB2300;}
</style>
<g>
	<g>
		<path class="st0" d="M453.5,224.7c4.7,2.3,9.3,4.9,13.6,7.8c3.6,2.5,8.6,1.7,11.1-1.9c2.5-3.6,1.7-8.6-1.9-11.1
			c-5-3.5-10.3-6.5-15.8-9.1c-4-1.9-8.8-0.3-10.7,3.7S449.5,222.8,453.5,224.7L453.5,224.7z"/>
		<path class="st0" d="M413.1,273.9c0.7,0,1.4-0.1,2-0.3c15.5-4,30.7-9.3,45.2-16c3.9-1.9,5.6-6.6,3.7-10.6c-1.9-4-6.6-5.7-10.6-3.8
			c-13.7,6.2-27.9,11.2-42.5,14.9c-3.9,1-6.4,4.8-5.9,8.7S409.1,273.9,413.1,273.9L413.1,273.9z"/>
		<path class="st0" d="M313.6,105.7c4.1,1.5,8,3.3,11.9,5.3c3.9,2.1,8.7,0.6,10.8-3.3c2.1-3.9,0.6-8.7-3.3-10.8
			c-4.5-2.4-9.1-4.5-13.9-6.2c-2.7-1.1-5.8-0.6-8,1.3s-3.3,4.7-2.8,7.6C308.8,102.4,310.8,104.8,313.6,105.7z"/>
		<path class="st0" d="M353.2,146.2c0,4.4,3.6,7.9,8,7.9h0.1c4.4,0,7.9-3.6,7.9-8c-0.7-14.4-7.4-27.9-18.6-37
			c-3.3-2.8-8.2-2.5-11.1,0.7c-2.9,3.2-2.7,8.2,0.4,11.2C347.6,127.2,352.4,136.3,353.2,146.2z"/>
		<path class="st0" d="M273.3,258c13.2,0,24-10.7,24-24s-10.7-24-24-24c-13.2,0-24,10.7-24,24S260.1,258,273.3,258z M273.3,226
			c4.4,0,8,3.6,8,8s-3.6,8-8,8c-4.4,0-8-3.6-8-8S268.9,226,273.3,226z"/>
		<path class="st0" d="M345.2,250c13.2,0,24-10.7,24-24c0-13.2-10.7-24-24-24c-13.2,0-24,10.7-24,24C321.2,239.3,332,250,345.2,250z
			 M345.2,218c4.4,0,8,3.6,8,8c0,4.4-3.6,8-8,8s-8-3.6-8-8C337.2,221.6,340.8,218,345.2,218z"/>
		<path class="st0" d="M201.4,250c13.2,0,24-10.7,24-24c0-13.2-10.7-24-24-24s-24,10.7-24,24C177.5,239.3,188.2,250,201.4,250z
			 M201.4,218c4.4,0,8,3.6,8,8c0,4.4-3.6,8-8,8c-4.4,0-8-3.6-8-8C193.4,221.6,197,218,201.4,218z"/>
		<path class="st0" d="M451,318.7c39.4-24.9,65.7-54.7,69.4-78.9c0-0.1,0.1-0.2,0.1-0.3v-0.2c0-0.1,0-0.2,0-0.4
			c0.3-1.6,0.4-3.3,0.4-5c0-32.1-44.7-60.1-119.8-75.7v-12.3c-0.5-20-8.4-39.1-22.3-53.5c-8-8.6-17.2-16-27.5-21.8
			c-16.8-9.4-35.2-15.6-54.3-18c0.1-0.8,0.2-1.7,0.2-2.5c0-13.2-10.7-24-24-24c-13.2,0-24,10.7-24,24c0,0.8,0.1,1.6,0.2,2.3
			c-28.6,3.5-55.4,15.7-76.9,34.9c-16.8,14.9-26.6,36.1-27.2,58.6v12.2C70.4,173.9,25.7,202,25.7,234c0,1.6,0.1,3.3,0.3,4.9
			c0,0.1,0,0.3,0.1,0.4v0.2c0,0.1,0.1,0.2,0.1,0.3c3.7,24.1,30,53.9,69.4,78.9l-69.5,193c-0.9,2.5-0.5,5.2,1,7.3
			c1.5,2.1,4,3.4,6.6,3.4h479.2c2.6,0,5-1.3,6.5-3.4c1.5-2.1,1.9-4.9,1-7.3L451,318.7z M161.5,178.3c18.6,12.5,50.4,19.7,79.1,22.3
			c10.4,1,21.3,1.5,32.6,1.5c11.3,0,22.1-0.5,32.5-1.5h0.2c28.8-2.6,60.6-9.8,79.1-22.3V234c0,13-43.6,31.9-111.8,31.9
			S161.5,247,161.5,234L161.5,178.3z M289.3,162.1h8v23.2c-7.9,0.6-16.3,0.8-24.7,0.8c-4.6,0-9.2-0.1-13.6-0.3
			c-1.5-0.1-2.9-0.2-4.3-0.2c-1.8-0.1-3.6-0.2-5.3-0.4v-23.1h8c4.4,0,8-3.6,8-8s-3.6-8-8-8h-6.5c2.7-7.7,9.2-13.5,17.2-15.4
			c8-1.8,16.4,0.6,22.2,6.4c2.5,2.6,4.4,5.6,5.6,9h-6.6c-4.4,0-8,3.6-8,8S284.9,162.1,289.3,162.1z M273.3,42.3c4.4,0,8,3.6,8,8
			c0,1.6-0.5,3.2-1.5,4.6c-2.4,3.1-6.6,4.1-10.2,2.4c-1.2-0.5-2.2-1.4-2.9-2.4c-0.9-1.3-1.4-2.9-1.4-4.6
			C265.3,45.9,268.9,42.3,273.3,42.3z M161.5,146.2c0.6-18.1,8.6-35.2,22.2-47.1C204,81,229.7,70,256.9,67.7
			c0.1,0.1,0.2,0.2,0.4,0.3c0.4,0.4,0.9,0.7,1.4,1.1c0.8,0.6,1.6,1.2,2.4,1.7c1.1,0.6,2.2,1.2,3.3,1.6h0.1c5.6,2.5,12,2.5,17.6,0
			h0.1c1.2-0.4,2.3-1,3.4-1.6c0.8-0.5,1.6-1,2.3-1.6c0.5-0.4,1-0.7,1.5-1.2c0.1-0.1,0.2-0.2,0.4-0.3c18.9,1.8,37.1,7.6,53.6,16.9
			c8.8,4.9,16.8,11.2,23.6,18.7c11.2,11.5,17.6,26.8,18.1,42.8v8c0,8.8-22.9,23.8-71.9,29.6v-29.6c0-22.1-17.9-39.9-39.9-39.9
			c-22.1,0-39.9,17.9-39.9,39.9v29.6c-49-5.8-71.9-20.8-71.9-29.6V146.2z M145.5,174.6V234c0,31.5,64.3,47.9,127.8,47.9
			c63.5,0,127.8-16.5,127.8-47.9v-59.4c63.4,13.6,103.8,36.5,103.8,59.4c0,0.9-0.1,1.8-0.2,2.7c0,0.1,0,0.3-0.1,0.4
			c-0.1,0.6-0.3,1.2-0.4,1.8c-0.1,0.4-0.2,0.9-0.4,1.3c-0.2,0.6-0.5,1.2-0.7,1.8c-0.2,0.4-0.3,0.9-0.6,1.3c-0.3,0.6-0.7,1.2-1,1.8
			c-0.3,0.4-0.5,0.9-0.8,1.3c-0.4,0.6-0.9,1.2-1.3,1.8c-0.3,0.4-0.6,0.9-1,1.3c-0.5,0.6-1,1.2-1.6,1.8c-0.4,0.4-0.8,0.9-1.2,1.3
			c-0.6,0.6-1.2,1.2-1.8,1.7c-0.5,0.4-0.9,0.9-1.4,1.3c-0.7,0.6-1.4,1.2-2.1,1.8c-0.5,0.4-1,0.9-1.6,1.3c-0.7,0.6-1.5,1.1-2.3,1.7
			c-0.6,0.4-1.2,0.9-1.8,1.3c-0.8,0.5-1.7,1.1-2.5,1.6c-0.7,0.4-1.4,0.9-2.1,1.3c-0.9,0.5-1.8,1.1-2.7,1.6c-0.8,0.4-1.5,0.9-2.3,1.3
			c-1,0.5-2,1-3,1.6c-0.8,0.4-1.6,0.9-2.5,1.3c-1,0.5-2.1,1-3.1,1.5c-1,0.5-1.8,0.9-2.8,1.3c-1,0.4-2.1,0.9-3.1,1.4
			c-1,0.5-2.1,0.9-3.2,1.4c-1.1,0.5-2.2,0.9-3.3,1.3c-1.1,0.4-2.2,0.9-3.4,1.3c-1.2,0.4-2.4,0.9-3.6,1.3c-1.2,0.4-2.3,0.8-3.5,1.3
			c-1.2,0.4-2.5,0.8-3.8,1.3c-1.3,0.4-2.4,0.8-3.7,1.2c-1.3,0.4-2.5,0.8-3.8,1.2c-1.3,0.4-2.6,0.8-4,1.2c-1.3,0.4-2.6,0.7-3.9,1.1
			c-1.4,0.4-2.9,0.8-4.3,1.2c-1.3,0.4-2.7,0.7-4,1c-1.5,0.4-3,0.8-4.5,1.2c-1.4,0.3-2.8,0.7-4.3,1c-1.4,0.3-3,0.7-4.6,1.1
			c-1.4,0.3-2.9,0.6-4.4,0.9c-1.6,0.3-3.2,0.7-4.8,1c-1.4,0.3-2.9,0.5-4.4,0.8c-1.7,0.3-3.4,0.7-5.1,1c-1.5,0.3-2.9,0.5-4.4,0.7
			c-1.8,0.3-3.6,0.6-5.4,0.9c-1.6,0.3-3.2,0.5-4.9,0.7c-1.8,0.3-3.5,0.5-5.3,0.8c-1.8,0.3-3.5,0.5-5.2,0.7c-1.7,0.2-3.5,0.5-5.2,0.7
			c-1.8,0.2-3.5,0.4-5.2,0.6c-1.7,0.2-3.6,0.4-5.5,0.6s-3.5,0.3-5.3,0.5c-1.9,0.2-3.8,0.4-5.7,0.5s-3.9,0.3-5.8,0.4
			c-1.8,0.1-3.6,0.3-5.4,0.4c-2,0.1-4,0.2-6,0.4c-1.8,0.1-3.7,0.2-5.5,0.3c-1.7,0.1-3.4,0.1-5.1,0.2c-2.2,0.1-4.4,0.2-6.7,0.3
			c-3.2,0.1-6.5,0.2-9.7,0.2c-0.8,0-1.5,0-2.2,0.1c-4,0.1-8.1,0.1-12.2,0.1c-4.1,0-8.2,0-12.2-0.1c-1.5,0-3-0.1-4.5-0.1
			c-2.5-0.1-5-0.1-7.5-0.2c-1.9-0.1-3.8-0.2-5.7-0.2c-1.9-0.1-4.1-0.2-6.1-0.3c-1.7-0.1-3.3-0.2-4.9-0.3c-2.2-0.1-4.4-0.2-6.6-0.4
			c-1.7-0.1-3.4-0.3-5-0.4c-2.1-0.2-4.2-0.3-6.2-0.5c-1.8-0.2-3.6-0.3-5.3-0.5c-1.8-0.2-3.8-0.3-5.6-0.5c-1.8-0.2-3.7-0.4-5.6-0.6
			c-1.7-0.2-3.4-0.4-5.1-0.6c-1.9-0.2-3.7-0.5-5.5-0.7c-1.6-0.2-3.3-0.4-4.9-0.6c-1.8-0.2-3.5-0.5-5.2-0.8c-1.7-0.3-3.3-0.5-4.9-0.7
			c-1.6-0.3-3.3-0.6-5-0.8c-1.7-0.3-3.3-0.5-4.9-0.8c-1.6-0.3-3.3-0.6-4.9-0.9c-1.5-0.3-3.1-0.6-4.6-0.9c-1.7-0.3-3.3-0.7-4.9-1
			c-1.4-0.3-2.9-0.6-4.3-0.9c-1.6-0.4-3.2-0.7-4.8-1.1c-1.3-0.3-2.7-0.6-4-0.9c-1.6-0.4-3.1-0.8-4.7-1.2c-1.3-0.3-2.6-0.6-3.8-1
			c-1.5-0.4-3-0.8-4.5-1.3c-1.2-0.3-2.4-0.7-3.6-1c-1.5-0.4-2.9-0.9-4.4-1.3c-1.1-0.4-2.3-0.7-3.4-1.1c-1.4-0.5-2.8-0.9-4.2-1.4
			c-1.1-0.4-2.2-0.7-3.3-1.1c-1.4-0.5-2.7-1-4-1.5c-1-0.4-2.1-0.7-3.1-1.1c-1.3-0.5-2.6-1-3.8-1.5c-0.9-0.4-1.9-0.7-2.8-1.1
			c-1.2-0.5-2.4-1-3.6-1.6c-0.9-0.4-1.8-0.8-2.7-1.2c-1.2-0.5-2.2-1.1-3.3-1.6c-0.8-0.4-1.7-0.8-2.5-1.2c-1-0.5-2-1.1-3-1.6
			c-0.8-0.4-1.7-0.9-2.4-1.3c-1-0.5-1.9-1.1-2.8-1.6c-0.8-0.4-1.5-0.9-2.3-1.3c-0.9-0.5-1.7-1.1-2.5-1.6c-0.7-0.4-1.4-0.9-2.1-1.3
			c-0.8-0.5-1.5-1.1-2.2-1.6c-0.7-0.5-1.3-0.9-1.9-1.4c-0.6-0.5-1.3-1-1.9-1.6c-0.6-0.5-1.2-1-1.8-1.5c-0.6-0.5-1.1-1-1.7-1.6
			c-0.5-0.6-1.1-1-1.6-1.5c-0.5-0.5-0.9-1-1.4-1.6c-0.5-0.5-1-1-1.4-1.6c-0.4-0.6-0.8-1-1.1-1.5s-0.8-1.1-1.2-1.6
			c-0.4-0.5-0.6-1-0.9-1.5c-0.3-0.5-0.7-1.1-0.9-1.7c-0.3-0.5-0.4-1-0.6-1.4c-0.2-0.5-0.5-1.1-0.7-1.7c-0.2-0.6-0.2-0.9-0.4-1.4
			c-0.2-0.6-0.3-1.2-0.4-1.8c0-0.1,0-0.3-0.1-0.4c-0.2-0.9-0.2-1.7-0.3-2.6C41.7,211.2,82.1,188.2,145.5,174.6z M45.1,506.4
			L109.6,327c0.8,0.4,1.6,0.9,2.5,1.3c0.8,0.4,1.7,0.9,2.6,1.4c1.5,0.8,3,1.6,4.5,2.4c0.9,0.5,1.7,0.9,2.6,1.4
			c1.7,0.9,3.5,1.8,5.4,2.6c0.8,0.4,1.6,0.8,2.4,1.2c2.3,1.1,4.8,2.2,7.3,3.3l1.1,0.5c2.9,1.3,6,2.6,9.2,3.9c0.5,0.2,1,0.4,1.5,0.6
			c2.6,1.1,5.3,2.1,8.1,3.1c1.1,0.4,2.2,0.8,3.2,1.2c2.3,0.8,4.6,1.6,6.9,2.4c1.3,0.4,2.7,0.9,4,1.3c2.2,0.7,4.4,1.4,6.7,2.1
			c1.5,0.4,3,0.9,4.5,1.3c2.2,0.6,4.5,1.3,6.8,1.9c1.6,0.4,3.2,0.8,4.9,1.2c2.3,0.6,4.6,1.1,7,1.6c1.7,0.4,3.4,0.8,5.2,1.1
			c2.4,0.5,4.8,1,7.2,1.4c1.8,0.3,3.6,0.7,5.4,1c2.5,0.4,5,0.8,7.6,1.2c1.8,0.3,3.6,0.5,5.4,0.8c2.7,0.3,5.4,0.6,8.2,0.9
			c1.8,0.2,3.5,0.4,5.3,0.5c3.1,0.3,6.2,0.4,9.3,0.6c1.5,0.1,3.1,0.2,4.6,0.3c4.7,0.2,9.5,0.3,14.4,0.3c4.9,0,9.6-0.1,14.4-0.3
			c1.6-0.1,3.1-0.2,4.6-0.3c3.1-0.2,6.2-0.4,9.3-0.6c1.8-0.2,3.5-0.4,5.3-0.5c2.7-0.3,5.5-0.6,8.2-0.9c1.8-0.2,3.6-0.5,5.4-0.8
			c2.5-0.4,5.1-0.7,7.6-1.2c1.8-0.3,3.6-0.6,5.4-1c2.4-0.4,4.8-0.9,7.2-1.4c1.7-0.4,3.4-0.7,5.2-1.1c2.4-0.5,4.7-1.1,7-1.6
			c1.6-0.4,3.3-0.8,4.9-1.2c2.3-0.6,4.5-1.2,6.8-1.9c1.5-0.4,3-0.9,4.5-1.3c2.3-0.7,4.5-1.4,6.7-2.1c1.3-0.4,2.7-0.9,4-1.3
			c2.4-0.8,4.7-1.6,7-2.4c1.1-0.4,2.2-0.7,3.2-1.1c2.8-1,5.5-2.1,8.2-3.2c0.5-0.2,0.9-0.4,1.4-0.5c3.2-1.3,6.2-2.6,9.2-3.9l0.9-0.4
			c2.6-1.1,5.1-2.3,7.6-3.4l2.2-1.1c1.9-0.9,3.8-1.8,5.6-2.7c0.8-0.4,1.6-0.8,2.4-1.3c1.6-0.8,3.2-1.7,4.7-2.5l2.3-1.3
			c0.9-0.5,1.8-1,2.6-1.4l64.7,179.3H45.1z"/>
	</g>
	<g>
		<ellipse class="st1" cx="273.3" cy="515.1" rx="239.6" ry="110.3"/>
		<ellipse class="st2" cx="273.3" cy="515.1" rx="199.7" ry="91.9"/>
		<path class="st3" d="M109.5,439.7l327.6,150.8"/>
		<path class="st3" d="M109.5,590.5l327.6-150.8"/>
		<ellipse class="st4" cx="217.4" cy="452.6" rx="32" ry="14.7"/>
		<ellipse class="st3" cx="129.5" cy="482" rx="16" ry="7.4"/>
		<ellipse class="st3" cx="177.4" cy="496.7" rx="16" ry="7.4"/>
		<ellipse class="st4" cx="141.5" cy="542.6" rx="32" ry="14.7"/>
		<ellipse class="st3" cx="205.4" cy="583.1" rx="16" ry="7.4"/>
		<ellipse class="st3" cx="237.3" cy="561" rx="16" ry="7.4"/>
		<ellipse class="st4" cx="329.2" cy="577.6" rx="32" ry="14.7"/>
		<ellipse class="st3" cx="417.1" cy="548.2" rx="16" ry="7.4"/>
		<ellipse class="st3" cx="369.1" cy="533.5" rx="16" ry="7.4"/>
		<ellipse class="st4" cx="405.1" cy="487.5" rx="32" ry="14.7"/>
		<ellipse class="st3" cx="341.2" cy="447" rx="16" ry="7.4"/>
		<ellipse class="st3" cx="309.2" cy="469.1" rx="16" ry="7.4"/>
		<g>
			<path class="st0" d="M273.3,401.1c-136.8,0-247.6,51-247.6,114s110.9,114,247.6,114s247.6-51,247.6-114
				C520.8,452.1,410,401.2,273.3,401.1z M504.7,511.4h-24c-1.9-22.8-21.5-44.5-55.2-61.2l16.9-7.8
				C480.7,461.1,502.8,485.7,504.7,511.4z M414.3,445c-36.3-15.5-83.5-24.5-133-25.4v-11c55.9,0.9,109.2,11,150,28.6L414.3,445z
				 M265.3,506.2l-121.7-56c33.3-14.2,76.4-22.4,121.7-23.2V506.2z M265.3,603.2c-45.3-0.9-88.4-9.1-121.7-23.2l121.7-56V603.2z
				 M281.3,523.9L403,580c-33.3,14.2-76.4,22.4-121.7,23.2V523.9z M281.3,426.9c45.3,0.9,88.4,9.1,121.7,23.2l-121.7,56V426.9z
				 M265.3,419.6c-49.5,0.9-96.7,9.9-133,25.4l-16.9-7.8c40.8-17.6,94.1-27.8,150-28.6V419.6z M254,511.4H81.8
				c1.9-20.8,19.8-40.7,50.5-56L254,511.4z M254,518.7l-121.7,56c-30.7-15.3-48.6-35.2-50.5-56H254z M132.3,585.2
				c36.3,15.5,83.5,24.5,133,25.4v11c-55.9-0.9-109.2-11-150-28.6L132.3,585.2z M281.3,610.6c49.5-0.9,96.7-9.9,133-25.4l16.9,7.8
				c-40.8,17.6-94.1,27.8-150,28.6V610.6z M292.6,518.7h172.2c-1.9,20.8-19.8,40.7-50.5,56L292.6,518.7z M292.6,511.4l121.7-56
				c30.7,15.3,48.6,35.2,50.5,56H292.6z M104,442.4l16.9,7.8c-33.7,16.7-53.3,38.4-55.2,61.2h-24C43.7,485.7,65.8,461.1,104,442.4
				L104,442.4z M41.8,518.7h24c1.9,22.8,21.5,44.5,55.2,61.2l-16.9,7.8C65.8,569,43.7,544.5,41.8,518.7z M442.5,587.8l-16.9-7.8
				c33.7-16.7,53.3-38.4,55.2-61.2h24C502.8,544.5,480.7,569,442.5,587.8L442.5,587.8z"/>
			<path class="st0" d="M217.4,470.9c22.1,0,39.9-8.2,39.9-18.4s-17.9-18.4-39.9-18.4s-39.9,8.2-39.9,18.4
				C177.5,462.7,195.3,470.9,217.4,470.9z M217.4,441.5c13.2,0,24,4.9,24,11s-10.7,11-24,11s-24-4.9-24-11S204.1,441.5,217.4,441.5z
				"/>
			<path class="st0" d="M129.5,493c13.2,0,24-4.9,24-11s-10.7-11-24-11s-24,4.9-24,11S116.3,493,129.5,493z M129.5,478.3
				c4.4,0,8,1.6,8,3.7s-3.6,3.7-8,3.7c-4.4,0-8-1.6-8-3.7S125.1,478.3,129.5,478.3z"/>
			<path class="st0" d="M177.4,507.7c13.2,0,24-4.9,24-11s-10.7-11-24-11c-13.2,0-24,4.9-24,11S164.2,507.7,177.4,507.7z M177.4,493
				c4.4,0,8,1.6,8,3.7s-3.6,3.7-8,3.7c-4.4,0-8-1.6-8-3.7S173,493,177.4,493z"/>
			<path class="st0" d="M141.5,561c22.1,0,39.9-8.2,39.9-18.4c0-10.2-17.9-18.4-39.9-18.4s-39.9,8.2-39.9,18.4
				C101.6,552.8,119.4,561,141.5,561z M141.5,531.6c13.2,0,24,4.9,24,11c0,6.1-10.7,11-24,11c-13.2,0-24-4.9-24-11
				C117.5,536.6,128.2,531.6,141.5,531.6z"/>
			<path class="st0" d="M205.4,594.1c13.2,0,24-4.9,24-11s-10.7-11-24-11c-13.2,0-24,4.9-24,11S192.1,594.1,205.4,594.1z
				 M205.4,579.4c4.4,0,8,1.6,8,3.7s-3.6,3.7-8,3.7c-4.4,0-8-1.6-8-3.7S201,579.4,205.4,579.4z"/>
			<path class="st0" d="M237.3,572.1c13.2,0,24-4.9,24-11c0-6.1-10.7-11-24-11c-13.2,0-24,4.9-24,11
				C213.4,567.1,224.1,572.1,237.3,572.1z M237.3,557.4c4.4,0,8,1.6,8,3.7c0,2-3.6,3.7-8,3.7c-4.4,0-8-1.6-8-3.7
				C229.3,559,232.9,557.4,237.3,557.4z"/>
			<path class="st0" d="M121.5,500.4h-8c-4.4,0-8,1.6-8,3.7s3.6,3.7,8,3.7h8c4.4,0,8-1.6,8-3.7S125.9,500.4,121.5,500.4z"/>
			<path class="st0" d="M249.3,474.6h-8c-4.4,0-8,1.6-8,3.7s3.6,3.7,8,3.7h8c4.4,0,8-1.6,8-3.7S253.7,474.6,249.3,474.6z"/>
			<path class="st0" d="M201.4,533.5h8c4.4,0,8-1.6,8-3.7c0-2-3.6-3.7-8-3.7h-8c-4.4,0-8,1.6-8,3.7
				C193.4,531.8,197,533.5,201.4,533.5z"/>
			<path class="st0" d="M243.7,578.7l-8,3.7c-3.2,1.4-3.3,3.7-0.2,5.2c3.1,1.5,8.1,1.5,11.3,0.1c0.1,0,0.1-0.1,0.2-0.1l8-3.7
				c3.1-1.5,3-3.8-0.2-5.2C251.7,577.3,246.8,577.3,243.7,578.7z"/>
			<path class="st0" d="M329.2,559.2c-22.1,0-39.9,8.2-39.9,18.4s17.9,18.4,39.9,18.4s39.9-8.2,39.9-18.4
				C369.1,567.4,351.2,559.2,329.2,559.2z M329.2,588.6c-13.2,0-24-4.9-24-11s10.7-11,24-11s24,4.9,24,11S342.4,588.6,329.2,588.6z"
				/>
			<path class="st0" d="M417.1,537.1c-13.2,0-24,4.9-24,11s10.7,11,24,11c13.2,0,24-4.9,24-11S430.3,537.1,417.1,537.1z
				 M417.1,551.8c-4.4,0-8-1.6-8-3.7c0-2,3.6-3.7,8-3.7c4.4,0,8,1.6,8,3.7C425,550.2,421.5,551.8,417.1,551.8z"/>
			<path class="st0" d="M369.1,522.4c-13.2,0-24,4.9-24,11c0,6.1,10.7,11,24,11s24-4.9,24-11C393.1,527.4,382.4,522.4,369.1,522.4z
				 M369.1,537.1c-4.4,0-8-1.6-8-3.7c0-2,3.6-3.7,8-3.7c4.4,0,8,1.6,8,3.7C377.1,535.5,373.5,537.1,369.1,537.1z"/>
			<path class="st0" d="M405.1,469.1c-22.1,0-39.9,8.2-39.9,18.4c0,10.2,17.9,18.4,39.9,18.4s39.9-8.2,39.9-18.4
				C445,477.3,427.1,469.1,405.1,469.1z M405.1,498.5c-13.2,0-24-4.9-24-11c0-6.1,10.7-11,24-11s24,4.9,24,11
				C429,493.6,418.3,498.5,405.1,498.5z"/>
			<path class="st0" d="M341.2,436c-13.2,0-24,4.9-24,11s10.7,11,24,11s24-4.9,24-11S354.4,436,341.2,436z M341.2,450.7
				c-4.4,0-8-1.6-8-3.7s3.6-3.7,8-3.7c4.4,0,8,1.6,8,3.7S345.6,450.7,341.2,450.7z"/>
			<path class="st0" d="M309.2,458.1c-13.2,0-24,4.9-24,11s10.7,11,24,11s24-4.9,24-11S322.5,458.1,309.2,458.1z M309.2,472.8
				c-4.4,0-8-1.6-8-3.7s3.6-3.7,8-3.7c4.4,0,8,1.6,8,3.7S313.6,472.8,309.2,472.8z"/>
			<path class="st0" d="M425,529.8h8c4.4,0,8-1.6,8-3.7c0-2-3.6-3.7-8-3.7h-8c-4.4,0-8,1.6-8,3.7C417.1,528.1,420.6,529.8,425,529.8
				z"/>
			<path class="st0" d="M297.2,555.5h8c4.4,0,8-1.6,8-3.7c0-2-3.6-3.7-8-3.7h-8c-4.4,0-8,1.6-8,3.7
				C289.3,553.9,292.8,555.5,297.2,555.5z"/>
			<path class="st0" d="M345.2,496.7h-8c-4.4,0-8,1.6-8,3.7s3.6,3.7,8,3.7h8c4.4,0,8-1.6,8-3.7S349.6,496.7,345.2,496.7z"/>
			<path class="st0" d="M297.2,452.6c2.1,0,4.1-0.4,5.6-1.1l8-3.7c3.1-1.5,3-3.8-0.2-5.2c-3.1-1.4-8-1.4-11.1,0l-8,3.7
				c-3.1,1.4-3.1,3.8,0,5.2C293.1,452.2,295.1,452.6,297.2,452.6z"/>
		</g>
	</g>
</g>
<path class="st5" d="M512.9,234c0,1.4-0.1,2.7-0.3,4.1v0.2c-6.7,42.2-111.3,75.6-239.3,75.6c-128,0-232.6-33.5-239.3-75.6v-0.2
	c-0.2-1.3-0.3-2.7-0.3-4.1c0-29.6,48.2-55.4,119.8-69.2V234c0,22,53.7,39.9,119.8,39.9c66.1,0,119.8-17.9,119.8-39.9v-69.2
	C464.8,178.7,512.9,204.5,512.9,234z"/>
<path class="st5" d="M351.9,200.3c-4.7-3.2-9.6-6-14.7-8.5L351.9,200.3z"/>
<path class="st5" d="M293.3,240.3c15.1-3.8,29.7-9,43.9-15.4L293.3,240.3z"/>
<path class="st6" d="M393.1,146.2v8c0,18.4-37.2,33.9-87.9,38.5v-38.5c0-17.6-14.3-31.9-31.9-31.9c-17.6,0-31.9,14.3-31.9,31.9v38.5
	c-50.6-4.6-87.9-20.1-87.9-38.5v-8c0.6-20.2,9.6-39.3,24.7-52.8c22.7-20.3,51.6-32.3,82-33.9c3,4.3,7.9,6.9,13.1,6.9
	c5.2,0,10.1-2.6,13.1-6.9c21.4,1.5,42.2,7.7,60.9,18.3c9.5,5.4,18.2,12.2,25.6,20.2C385.4,110.9,392.6,128.1,393.1,146.2z"/>
<path class="st7" d="M305.3,192.6c-10.1,1-20.9,1.4-31.9,1.4c-11,0-21.8-0.5-31.9-1.4c-50.6-4.6-87.9-20.1-87.9-38.5V234
	c0,22,53.7,39.9,119.8,39.9c66.1,0,119.8-17.9,119.8-39.9v-79.9C393.1,172.5,355.9,188,305.3,192.6z M201.4,242c-8.8,0-16-7.2-16-16
	c0-8.8,7.2-16,16-16c8.8,0,16,7.2,16,16C217.4,234.8,210.2,242,201.4,242z M273.3,250c-8.8,0-16-7.2-16-16s7.2-16,16-16
	c8.8,0,16,7.2,16,16C289.3,242.8,282.1,250,273.3,250z M345.2,242c-8.8,0-16-7.2-16-16c0-8.8,7.2-16,16-16c8.8,0,16,7.2,16,16
	C361.1,234.8,354,242,345.2,242z"/>
<path class="st5" d="M329.2,104c-4.2-2.2-8.5-4.1-12.9-5.8L329.2,104z"/>
<path class="st5" d="M361.2,146.2c-0.7-12.2-6.5-23.5-16-31.1L361.2,146.2z"/>
<path class="st8" d="M305.3,154.1v38.5c-10.1,1-20.9,1.4-31.9,1.4c-11,0-21.8-0.5-31.9-1.4v-38.5c0-17.6,14.3-31.9,31.9-31.9
	C291,122.2,305.3,136.5,305.3,154.1z"/>
<path class="st9" d="M289.3,234c0,8.8-7.2,16-16,16c-8.8,0-16-7.2-16-16s7.2-16,16-16C282.1,218,289.3,225.2,289.3,234z"/>
<path class="st9" d="M361.2,226c0,8.8-7.2,16-16,16c-8.8,0-16-7.2-16-16c0-8.8,7.2-16,16-16C354,210.1,361.2,217.2,361.2,226z"/>
<path class="st9" d="M217.4,226c0,8.8-7.2,16-16,16c-8.8,0-16-7.2-16-16c0-8.8,7.2-16,16-16C210.2,210.1,217.4,217.2,217.4,226z"/>
<path class="st5" d="M273.3,194.1c-11,0-21.8-0.5-31.9-1.4L273.3,194.1z"/>
<path class="st9" d="M512.9,514.4H33.7l71.6-199c103.4,62,232.5,62,335.9,0L512.9,514.4z"/>
<g>
	<g>
		<path class="st10" d="M453.5,223.9c4.7,2.3,9.3,4.9,13.6,7.8c3.6,2.5,8.6,1.7,11.1-1.9c2.5-3.6,1.7-8.6-1.9-11.1
			c-5-3.5-10.3-6.5-15.8-9.1c-4-1.9-8.8-0.3-10.7,3.7C447.9,217.2,449.5,222,453.5,223.9L453.5,223.9z"/>
		<path class="st10" d="M413.1,273.2c0.7,0,1.4-0.1,2-0.3c15.5-4,30.7-9.3,45.2-16c3.9-1.9,5.6-6.6,3.7-10.6
			c-1.9-4-6.6-5.7-10.6-3.8c-13.7,6.2-27.9,11.2-42.5,14.9c-3.9,1-6.4,4.8-5.9,8.7C405.8,270.1,409.1,273.1,413.1,273.2L413.1,273.2
			z"/>
		<path class="st10" d="M313.6,104.9c4.1,1.5,8,3.3,11.9,5.3c3.9,2.1,8.7,0.6,10.8-3.3c2.1-3.9,0.6-8.7-3.3-10.8
			c-4.5-2.4-9.1-4.5-13.9-6.2c-2.7-1.1-5.8-0.6-8,1.3s-3.3,4.7-2.8,7.6C308.8,101.6,310.8,104,313.6,104.9z"/>
		<path class="st10" d="M353.2,145.4c0,4.4,3.6,7.9,8,7.9h0.1c4.4,0,7.9-3.6,7.9-8c-0.7-14.4-7.4-27.9-18.6-37
			c-3.3-2.8-8.2-2.5-11.1,0.7c-2.9,3.2-2.7,8.2,0.4,11.2C347.6,126.4,352.4,135.5,353.2,145.4z"/>
		<path class="st10" d="M273.3,257.2c13.2,0,24-10.7,24-24c0-13.2-10.7-24-24-24c-13.2,0-24,10.7-24,24
			C249.3,246.5,260.1,257.2,273.3,257.2z M273.3,225.2c4.4,0,8,3.6,8,8c0,4.4-3.6,8-8,8c-4.4,0-8-3.6-8-8
			C265.3,228.8,268.9,225.2,273.3,225.2z"/>
		<path class="st10" d="M345.2,249.2c13.2,0,24-10.7,24-24s-10.7-24-24-24c-13.2,0-24,10.7-24,24S331.9,249.2,345.2,249.2z
			 M345.2,217.3c4.4,0,8,3.6,8,8s-3.6,8-8,8c-4.4,0-8-3.6-8-8S340.8,217.3,345.2,217.3z"/>
		<path class="st10" d="M201.4,249.2c13.2,0,24-10.7,24-24s-10.7-24-24-24s-24,10.7-24,24S188.2,249.2,201.4,249.2z M201.4,217.3
			c4.4,0,8,3.6,8,8s-3.6,8-8,8c-4.4,0-8-3.6-8-8S197,217.3,201.4,217.3z"/>
		<path class="st10" d="M451,317.9c39.4-24.9,65.7-54.7,69.4-78.9c0-0.1,0.1-0.2,0.1-0.3v-0.2c0-0.1,0-0.2,0-0.4
			c0.3-1.6,0.4-3.3,0.4-5c0-32.1-44.7-60.1-119.8-75.7v-12.3c-0.5-20-8.4-39.1-22.3-53.5c-8-8.6-17.2-16-27.5-21.8
			c-16.8-9.4-35.2-15.6-54.3-18c0.1-0.8,0.2-1.7,0.2-2.5c0-13.2-10.7-24-24-24c-13.2,0-24,10.7-24,24c0,0.8,0.1,1.6,0.2,2.3
			c-28.6,3.5-55.4,15.7-76.9,34.9c-16.8,14.9-26.6,36.1-27.2,58.6v12.2c-75.1,15.5-119.8,43.6-119.8,75.6c0,1.6,0.1,3.3,0.3,4.9
			c0,0.1,0,0.3,0.1,0.4v0.2c0,0.1,0.1,0.2,0.1,0.3c3.7,24.1,30,53.9,69.4,78.9l-69.5,193c-0.9,2.5-0.5,5.2,1,7.3
			c1.5,2.1,4,3.4,6.6,3.4h479.2c2.6,0,5-1.3,6.5-3.4c1.5-2.1,1.9-4.9,1-7.3L451,317.9z M161.5,177.5c18.6,12.5,50.4,19.7,79.1,22.3
			c10.4,1,21.3,1.5,32.6,1.5c11.3,0,22.1-0.5,32.5-1.5h0.2c28.8-2.6,60.6-9.8,79.1-22.3v55.7c0,13-43.6,31.9-111.8,31.9
			s-111.8-18.9-111.8-31.9L161.5,177.5z M289.3,161.3h8v23.2c-7.9,0.6-16.3,0.8-24.7,0.8c-4.6,0-9.2-0.1-13.6-0.3
			c-1.5-0.1-2.9-0.2-4.3-0.2c-1.8-0.1-3.6-0.2-5.3-0.4v-23.1h8c4.4,0,8-3.6,8-8c0-4.4-3.6-8-8-8h-6.5c2.7-7.7,9.2-13.5,17.2-15.4
			c8-1.8,16.4,0.6,22.2,6.4c2.5,2.6,4.4,5.6,5.6,9h-6.6c-4.4,0-8,3.6-8,8C281.3,157.8,284.9,161.3,289.3,161.3z M273.3,41.5
			c4.4,0,8,3.6,8,8c0,1.6-0.5,3.2-1.5,4.6c-2.4,3.1-6.6,4.1-10.2,2.4c-1.2-0.5-2.2-1.4-2.9-2.4c-0.9-1.3-1.4-2.9-1.4-4.6
			C265.3,45.1,268.9,41.5,273.3,41.5z M161.5,145.4c0.6-18.1,8.6-35.2,22.2-47.1c20.3-18.1,46-29.1,73.2-31.4
			c0.1,0.1,0.2,0.2,0.4,0.3c0.4,0.4,0.9,0.7,1.4,1.1c0.8,0.6,1.6,1.2,2.4,1.7c1.1,0.6,2.2,1.2,3.3,1.6h0.1c5.6,2.5,12,2.5,17.6,0
			h0.1c1.2-0.4,2.3-1,3.4-1.6c0.8-0.5,1.6-1,2.3-1.6c0.5-0.4,1-0.7,1.5-1.2c0.1-0.1,0.2-0.2,0.4-0.3c18.9,1.8,37.1,7.6,53.6,16.9
			c8.8,4.9,16.8,11.2,23.6,18.7c11.2,11.5,17.6,26.8,18.1,42.8v8c0,8.8-22.9,23.8-71.9,29.6v-29.6c0-22.1-17.9-39.9-39.9-39.9
			c-22.1,0-39.9,17.9-39.9,39.9V183c-49-5.8-71.9-20.8-71.9-29.6V145.4z M145.5,173.8v59.4c0,31.5,64.3,47.9,127.8,47.9
			c63.5,0,127.8-16.5,127.8-47.9v-59.4c63.4,13.6,103.8,36.5,103.8,59.4c0,0.9-0.1,1.8-0.2,2.7c0,0.1,0,0.3-0.1,0.4
			c-0.1,0.6-0.3,1.2-0.4,1.8c-0.1,0.4-0.2,0.9-0.4,1.3c-0.2,0.6-0.5,1.2-0.7,1.8c-0.2,0.4-0.3,0.9-0.6,1.3c-0.3,0.6-0.7,1.2-1,1.8
			c-0.3,0.4-0.5,0.9-0.8,1.3c-0.4,0.6-0.9,1.2-1.3,1.8c-0.3,0.4-0.6,0.9-1,1.3c-0.5,0.6-1,1.2-1.6,1.8c-0.4,0.4-0.8,0.9-1.2,1.3
			c-0.6,0.6-1.2,1.2-1.8,1.7c-0.5,0.4-0.9,0.9-1.4,1.3c-0.7,0.6-1.4,1.2-2.1,1.8c-0.5,0.4-1,0.9-1.6,1.3c-0.7,0.6-1.5,1.1-2.3,1.7
			c-0.6,0.4-1.2,0.9-1.8,1.3c-0.8,0.5-1.7,1.1-2.5,1.6c-0.7,0.4-1.4,0.9-2.1,1.3c-0.9,0.5-1.8,1.1-2.7,1.6c-0.8,0.4-1.5,0.9-2.3,1.3
			c-1,0.5-2,1-3,1.6c-0.8,0.4-1.6,0.9-2.5,1.3c-1,0.5-2.1,1-3.1,1.5c-1,0.5-1.8,0.9-2.8,1.3c-1,0.4-2.1,0.9-3.1,1.4
			c-1,0.5-2.1,0.9-3.2,1.4c-1.1,0.5-2.2,0.9-3.3,1.3c-1.1,0.4-2.2,0.9-3.4,1.3c-1.2,0.4-2.4,0.9-3.6,1.3c-1.2,0.4-2.3,0.8-3.5,1.3
			c-1.2,0.4-2.5,0.8-3.8,1.3c-1.3,0.4-2.4,0.8-3.7,1.2c-1.3,0.4-2.5,0.8-3.8,1.2c-1.3,0.4-2.6,0.8-4,1.2c-1.3,0.4-2.6,0.7-3.9,1.1
			c-1.4,0.4-2.9,0.8-4.3,1.2c-1.3,0.4-2.7,0.7-4,1c-1.5,0.4-3,0.8-4.5,1.2c-1.4,0.3-2.8,0.7-4.3,1c-1.4,0.3-3,0.7-4.6,1.1
			c-1.4,0.3-2.9,0.6-4.4,0.9c-1.6,0.3-3.2,0.7-4.8,1c-1.4,0.3-2.9,0.5-4.4,0.8c-1.7,0.3-3.4,0.7-5.1,1c-1.5,0.3-2.9,0.5-4.4,0.7
			c-1.8,0.3-3.6,0.6-5.4,0.9c-1.6,0.3-3.2,0.5-4.9,0.7c-1.8,0.3-3.5,0.5-5.3,0.8c-1.8,0.3-3.5,0.5-5.2,0.7c-1.7,0.2-3.5,0.5-5.2,0.7
			c-1.8,0.2-3.5,0.4-5.2,0.6c-1.7,0.2-3.6,0.4-5.5,0.6s-3.5,0.3-5.3,0.5c-1.9,0.2-3.8,0.4-5.7,0.5s-3.9,0.3-5.8,0.4
			c-1.8,0.1-3.6,0.3-5.4,0.4c-2,0.1-4,0.2-6,0.4c-1.8,0.1-3.7,0.2-5.5,0.3c-1.7,0.1-3.4,0.1-5.1,0.2c-2.2,0.1-4.4,0.2-6.7,0.3
			c-3.2,0.1-6.5,0.2-9.7,0.2c-0.8,0-1.5,0-2.2,0.1c-4,0.1-8.1,0.1-12.2,0.1c-4.1,0-8.2,0-12.2-0.1c-1.5,0-3-0.1-4.5-0.1
			c-2.5-0.1-5-0.1-7.5-0.2c-1.9-0.1-3.8-0.2-5.7-0.2c-1.9-0.1-4.1-0.2-6.1-0.3c-1.7-0.1-3.3-0.2-4.9-0.3c-2.2-0.1-4.4-0.2-6.6-0.4
			c-1.7-0.1-3.4-0.3-5-0.4c-2.1-0.2-4.2-0.3-6.2-0.5c-1.8-0.2-3.6-0.3-5.3-0.5c-1.8-0.2-3.8-0.3-5.6-0.5c-1.8-0.2-3.7-0.4-5.6-0.6
			c-1.7-0.2-3.4-0.4-5.1-0.6c-1.9-0.2-3.7-0.5-5.5-0.7c-1.6-0.2-3.3-0.4-4.9-0.6c-1.8-0.2-3.5-0.5-5.2-0.8c-1.7-0.3-3.3-0.5-4.9-0.7
			c-1.6-0.3-3.3-0.6-5-0.8c-1.7-0.3-3.3-0.5-4.9-0.8c-1.6-0.3-3.3-0.6-4.9-0.9c-1.5-0.3-3.1-0.6-4.6-0.9c-1.7-0.3-3.3-0.7-4.9-1
			c-1.4-0.3-2.9-0.6-4.3-0.9c-1.6-0.4-3.2-0.7-4.8-1.1c-1.3-0.3-2.7-0.6-4-0.9c-1.6-0.4-3.1-0.8-4.7-1.2c-1.3-0.3-2.6-0.6-3.8-1
			c-1.5-0.4-3-0.8-4.5-1.3c-1.2-0.3-2.4-0.7-3.6-1c-1.5-0.4-2.9-0.9-4.4-1.3c-1.1-0.4-2.3-0.7-3.4-1.1c-1.4-0.5-2.8-0.9-4.2-1.4
			c-1.1-0.4-2.2-0.7-3.3-1.1c-1.4-0.5-2.7-1-4-1.5c-1-0.4-2.1-0.7-3.1-1.1c-1.3-0.5-2.6-1-3.8-1.5c-0.9-0.4-1.9-0.7-2.8-1.1
			c-1.2-0.5-2.4-1-3.6-1.6c-0.9-0.4-1.8-0.8-2.7-1.2c-1.2-0.5-2.2-1.1-3.3-1.6c-0.8-0.4-1.7-0.8-2.5-1.2c-1-0.5-2-1.1-3-1.6
			c-0.8-0.4-1.7-0.9-2.4-1.3c-1-0.5-1.9-1.1-2.8-1.6c-0.8-0.4-1.5-0.9-2.3-1.3c-0.9-0.5-1.7-1.1-2.5-1.6c-0.7-0.4-1.4-0.9-2.1-1.3
			c-0.8-0.5-1.5-1.1-2.2-1.6c-0.7-0.5-1.3-0.9-1.9-1.4c-0.6-0.5-1.3-1-1.9-1.6c-0.6-0.5-1.2-1-1.8-1.5c-0.6-0.5-1.1-1-1.7-1.6
			c-0.5-0.6-1.1-1-1.6-1.5s-0.9-1-1.4-1.6c-0.5-0.5-1-1-1.4-1.6c-0.4-0.6-0.8-1-1.1-1.5c-0.3-0.5-0.8-1.1-1.2-1.6
			c-0.4-0.5-0.6-1-0.9-1.5c-0.3-0.5-0.7-1.1-0.9-1.7c-0.3-0.5-0.4-1-0.6-1.4c-0.2-0.5-0.5-1.1-0.7-1.7c-0.2-0.6-0.2-0.9-0.4-1.4
			c-0.2-0.6-0.3-1.2-0.4-1.8c0-0.1,0-0.3-0.1-0.4c-0.2-0.9-0.2-1.7-0.3-2.6C41.7,210.4,82.1,187.4,145.5,173.8z M85.6,291.2
			c2.2,0.9,4.5,1.8,6.8,2.6l1.5,0.6c2.9,1.1,5.9,2.1,9,3.1l0.3,0.1c2.9,1,5.8,1.9,8.8,2.8c0.9,0.3,1.8,0.5,2.7,0.8
			c2.3,0.7,4.6,1.3,6.9,1.9c1.1,0.3,2.2,0.6,3.4,0.9c2.2,0.6,4.4,1.1,6.6,1.7c1.2,0.3,2.5,0.6,3.7,0.9c2.2,0.5,4.5,1,6.8,1.5
			c1.3,0.3,2.5,0.5,3.8,0.8c2.4,0.5,4.8,1,7.2,1.4c1.2,0.2,2.4,0.5,3.7,0.7c2.8,0.5,5.6,1,8.4,1.5c1,0.2,1.9,0.3,2.8,0.5
			c3.8,0.6,7.7,1.2,11.7,1.8h0.2c3.8,0.5,7.7,1,11.6,1.5l3.7,0.4c2.8,0.3,5.6,0.6,8.4,0.9l4.6,0.4c2.6,0.2,5.2,0.5,7.8,0.7l5,0.4
			c2.6,0.2,5.2,0.4,7.8,0.5c1.7,0.1,3.4,0.2,5.1,0.3c2.7,0.2,5.4,0.3,8.1,0.4c1.6,0.1,3.3,0.1,4.9,0.2c3,0.1,5.9,0.2,8.9,0.3
			l4.3,0.1c4.4,0.1,8.9,0.1,13.4,0.1s8.9-0.1,13.4-0.1l4.3-0.1c3-0.1,6-0.1,8.9-0.3c1.7-0.1,3.3-0.1,4.9-0.2
			c2.7-0.1,5.4-0.2,8.1-0.4c1.7-0.1,3.4-0.2,5.1-0.3c2.6-0.2,5.2-0.3,7.8-0.5l5-0.4c2.6-0.2,5.2-0.4,7.8-0.7l4.6-0.4
			c2.8-0.3,5.6-0.6,8.4-0.9l3.7-0.4c3.9-0.5,7.8-1,11.6-1.5h0.2c3.9-0.5,7.8-1.1,11.7-1.8c1-0.2,1.9-0.3,2.8-0.5
			c2.8-0.5,5.6-1,8.4-1.5c1.2-0.2,2.4-0.5,3.7-0.7c2.4-0.5,4.8-0.9,7.2-1.4c1.3-0.3,2.6-0.5,3.8-0.8c2.3-0.5,4.5-1,6.8-1.5
			c1.2-0.3,2.5-0.6,3.7-0.9c2.2-0.5,4.5-1.1,6.6-1.7c1.1-0.3,2.3-0.6,3.4-0.9c2.3-0.6,4.6-1.3,6.9-1.9c0.9-0.3,1.8-0.5,2.7-0.8
			c3-0.9,6-1.8,8.8-2.8l0.3-0.1c3.1-1,6-2.1,9-3.1l1.5-0.6c2.3-0.9,4.6-1.7,6.8-2.6l0.7-0.3c-7.9,6-16.1,11.6-24.6,16.7
			C387.6,337.2,331,352.9,273.3,353c-22.4,0-44.6-2.4-66.5-7.1c-34.3-7.4-67.2-20.3-97.4-38.2c-8.5-5.1-16.7-10.7-24.6-16.7
			L85.6,291.2z M45,505.6l64.6-179.3c0.8,0.4,1.6,0.9,2.5,1.3s1.7,0.9,2.6,1.4c1.5,0.8,3,1.6,4.5,2.4c0.9,0.5,1.7,0.9,2.6,1.4
			c1.7,0.9,3.5,1.8,5.4,2.6c0.8,0.4,1.6,0.8,2.4,1.2c2.3,1.1,4.8,2.2,7.3,3.3l1.1,0.5c2.9,1.3,6,2.6,9.2,3.9c0.5,0.2,1,0.4,1.5,0.6
			c2.6,1.1,5.3,2.1,8.1,3.1c1.1,0.4,2.2,0.8,3.2,1.2c2.3,0.8,4.6,1.6,6.9,2.4c1.3,0.4,2.7,0.9,4,1.3c2.2,0.7,4.4,1.4,6.7,2.1
			c1.5,0.4,3,0.9,4.5,1.3c2.2,0.6,4.5,1.3,6.8,1.9c1.6,0.4,3.2,0.8,4.9,1.2c2.3,0.6,4.6,1.1,7,1.6c1.7,0.4,3.4,0.8,5.2,1.1
			c2.4,0.5,4.8,1,7.2,1.4c1.8,0.3,3.6,0.7,5.4,1c2.5,0.4,5,0.8,7.6,1.2c1.8,0.3,3.6,0.5,5.4,0.8c2.7,0.3,5.4,0.6,8.2,0.9
			c1.8,0.2,3.5,0.4,5.3,0.5c3.1,0.3,6.2,0.4,9.3,0.6c1.5,0.1,3.1,0.2,4.6,0.3c4.7,0.2,9.5,0.3,14.4,0.3c4.9,0,9.6-0.1,14.4-0.3
			c1.6-0.1,3.1-0.2,4.6-0.3c3.1-0.2,6.2-0.4,9.3-0.6c1.8-0.2,3.5-0.4,5.3-0.5c2.7-0.3,5.5-0.6,8.2-0.9c1.8-0.2,3.6-0.5,5.4-0.8
			c2.5-0.4,5.1-0.7,7.6-1.2c1.8-0.3,3.6-0.6,5.4-1c2.4-0.4,4.8-0.9,7.2-1.4c1.7-0.4,3.4-0.7,5.2-1.1c2.4-0.5,4.7-1.1,7-1.6
			c1.6-0.4,3.3-0.8,4.9-1.2c2.3-0.6,4.5-1.2,6.8-1.9c1.5-0.4,3-0.9,4.5-1.3c2.3-0.7,4.5-1.4,6.7-2.1c1.3-0.4,2.7-0.9,4-1.3
			c2.4-0.8,4.7-1.6,7-2.4c1.1-0.4,2.2-0.7,3.2-1.1c2.8-1,5.5-2.1,8.2-3.2c0.5-0.2,0.9-0.4,1.4-0.5c3.2-1.3,6.2-2.6,9.2-3.9l0.9-0.4
			c2.6-1.1,5.1-2.3,7.6-3.4l2.2-1.1c1.9-0.9,3.8-1.8,5.6-2.7c0.8-0.4,1.6-0.8,2.4-1.3c1.6-0.8,3.2-1.7,4.7-2.5l2.3-1.3
			c0.9-0.5,1.8-1,2.6-1.4l64.7,179.3H45z"/>
		<path class="st10" d="M80.7,289.4l52.8,40.4l43.9,15.6c0,0,148.2,38.8,239.2-15.6s60.3-43.7,60.3-43.7l-71.9,18.3
			c0,0-163.4,24.8-247.6,1.6S80.7,289.4,80.7,289.4z"/>
	</g>
	<g>
		<ellipse class="st11" cx="273.3" cy="514.3" rx="239.6" ry="110.3"/>
		<ellipse class="st9" cx="273.3" cy="514.3" rx="199.7" ry="91.9"/>
		<path class="st12" d="M109.5,438.9l327.6,150.8"/>
		<path class="st12" d="M109.5,589.7l327.6-150.8"/>
		<ellipse class="st13" cx="217.4" cy="451.8" rx="32" ry="14.7"/>
		<ellipse class="st12" cx="129.5" cy="481.2" rx="16" ry="7.4"/>
		<ellipse class="st12" cx="177.4" cy="495.9" rx="16" ry="7.4"/>
		<ellipse class="st13" cx="141.5" cy="541.9" rx="32" ry="14.7"/>
		<ellipse class="st12" cx="205.4" cy="582.3" rx="16" ry="7.4"/>
		<ellipse class="st12" cx="237.3" cy="560.2" rx="16" ry="7.4"/>
		<ellipse class="st13" cx="329.2" cy="576.8" rx="32" ry="14.7"/>
		<ellipse class="st12" cx="417.1" cy="547.4" rx="16" ry="7.4"/>
		<ellipse class="st12" cx="369.1" cy="532.7" rx="16" ry="7.4"/>
		<ellipse class="st13" cx="405.1" cy="486.7" rx="32" ry="14.7"/>
		<ellipse class="st12" cx="341.2" cy="446.3" rx="16" ry="7.4"/>
		<ellipse class="st12" cx="309.2" cy="468.3" rx="16" ry="7.4"/>
		<g>
			<path class="st10" d="M273.3,400.3c-136.8,0-247.6,51-247.6,114s110.9,114,247.6,114s247.6-51,247.6-114
				C520.7,451.4,410,400.4,273.3,400.3z M504.7,510.6h-24c-1.9-22.8-21.5-44.5-55.2-61.2l16.9-7.8
				C480.7,460.4,502.8,484.9,504.7,510.6z M414.3,444.2c-36.3-15.5-83.5-24.5-133-25.4v-11c55.9,0.9,109.2,11,150,28.6L414.3,444.2z
				 M265.3,505.4l-121.7-56c33.3-14.2,76.4-22.4,121.7-23.2V505.4z M265.3,602.4c-45.3-0.9-88.4-9.1-121.7-23.2l121.7-56V602.4z
				 M281.3,523.2l121.7,56c-33.3,14.2-76.4,22.4-121.7,23.2V523.2z M281.3,426.1c45.3,0.9,88.4,9.1,121.7,23.2l-121.7,56V426.1z
				 M265.3,418.8c-49.5,0.9-96.7,9.9-133,25.4l-16.9-7.8c40.8-17.6,94.1-27.8,150-28.6V418.8z M254,510.6H81.8
				c1.9-20.8,19.8-40.7,50.5-56L254,510.6z M254,518l-121.7,56c-30.7-15.3-48.6-35.2-50.5-56H254z M132.3,584.4
				c36.3,15.5,83.5,24.5,133,25.4v11c-55.9-0.9-109.2-11-150-28.6L132.3,584.4z M281.3,609.8c49.5-0.9,96.7-9.9,133-25.4l16.9,7.8
				c-40.8,17.6-94.1,27.8-150,28.6V609.8z M292.6,518h172.2c-1.9,20.8-19.8,40.7-50.5,56L292.6,518z M292.6,510.6l121.7-56
				c30.7,15.3,48.6,35.2,50.5,56H292.6z M104,441.6l16.9,7.8c-33.7,16.7-53.3,38.4-55.2,61.2h-24C43.7,484.9,65.8,460.4,104,441.6
				L104,441.6z M41.8,518h24c1.9,22.8,21.5,44.5,55.2,61.2L104,587C65.8,568.2,43.7,543.7,41.8,518z M442.5,587l-16.9-7.8
				c33.7-16.7,53.3-38.4,55.2-61.2h24C502.8,543.7,480.7,568.2,442.5,587L442.5,587z"/>
			<path class="st10" d="M217.4,470.2c22.1,0,39.9-8.2,39.9-18.4s-17.9-18.4-39.9-18.4s-39.9,8.2-39.9,18.4
				C177.4,461.9,195.3,470.1,217.4,470.2z M217.4,440.7c13.2,0,24,4.9,24,11s-10.7,11-24,11c-13.2,0-24-4.9-24-11
				S204.1,440.7,217.4,440.7z"/>
			<path class="st10" d="M129.5,492.2c13.2,0,24-4.9,24-11s-10.7-11-24-11s-24,4.9-24,11S116.3,492.2,129.5,492.2z M129.5,477.5
				c4.4,0,8,1.6,8,3.7s-3.6,3.7-8,3.7c-4.4,0-8-1.6-8-3.7S125.1,477.5,129.5,477.5z"/>
			<path class="st10" d="M177.4,506.9c13.2,0,24-4.9,24-11s-10.7-11-24-11c-13.2,0-24,4.9-24,11S164.2,506.9,177.4,506.9z
				 M177.4,492.2c4.4,0,8,1.6,8,3.7s-3.6,3.7-8,3.7c-4.4,0-8-1.6-8-3.7S173,492.2,177.4,492.2z"/>
			<path class="st10" d="M141.5,560.2c22.1,0,39.9-8.2,39.9-18.4c0-10.2-17.9-18.4-39.9-18.4s-39.9,8.2-39.9,18.4
				C101.6,552,119.4,560.2,141.5,560.2z M141.5,530.8c13.2,0,24,4.9,24,11c0,6.1-10.7,11-24,11s-24-4.9-24-11
				C117.5,535.8,128.2,530.8,141.5,530.8z"/>
			<path class="st10" d="M205.4,593.3c13.2,0,24-4.9,24-11c0-6.1-10.7-11-24-11s-24,4.9-24,11C181.4,588.4,192.1,593.3,205.4,593.3z
				 M205.4,578.6c4.4,0,8,1.6,8,3.7c0,2-3.6,3.7-8,3.7s-8-1.6-8-3.7C197.4,580.3,201,578.6,205.4,578.6z"/>
			<path class="st10" d="M237.3,571.3c13.2,0,24-4.9,24-11c0-6.1-10.7-11-24-11s-24,4.9-24,11C213.4,566.3,224.1,571.3,237.3,571.3z
				 M237.3,556.6c4.4,0,8,1.6,8,3.7c0,2-3.6,3.7-8,3.7s-8-1.6-8-3.7C229.3,558.2,232.9,556.6,237.3,556.6z"/>
			<path class="st10" d="M121.5,499.6h-8c-4.4,0-8,1.6-8,3.7s3.6,3.7,8,3.7h8c4.4,0,8-1.6,8-3.7S125.9,499.6,121.5,499.6z"/>
			<path class="st10" d="M249.3,473.8h-8c-4.4,0-8,1.6-8,3.7s3.6,3.7,8,3.7h8c4.4,0,8-1.6,8-3.7S253.7,473.8,249.3,473.8z"/>
			<path class="st10" d="M201.4,532.7h8c4.4,0,8-1.6,8-3.7c0-2-3.6-3.7-8-3.7h-8c-4.4,0-8,1.6-8,3.7
				C193.4,531,197,532.7,201.4,532.7z"/>
			<path class="st10" d="M243.7,577.9l-8,3.7c-3.2,1.4-3.3,3.7-0.2,5.2c3.1,1.5,8.1,1.5,11.3,0.1c0.1,0,0.1-0.1,0.2-0.1l8-3.7
				c3.1-1.5,3-3.8-0.2-5.2C251.7,576.5,246.8,576.5,243.7,577.9z"/>
			<path class="st10" d="M329.2,558.4c-22.1,0-39.9,8.2-39.9,18.4c0,10.2,17.9,18.4,39.9,18.4s39.9-8.2,39.9-18.4
				C369.1,566.6,351.2,558.4,329.2,558.4z M329.2,587.8c-13.2,0-24-4.9-24-11c0-6.1,10.7-11,24-11s24,4.9,24,11
				C353.2,582.9,342.4,587.8,329.2,587.8z"/>
			<path class="st10" d="M417.1,536.3c-13.2,0-24,4.9-24,11c0,6.1,10.7,11,24,11c13.2,0,24-4.9,24-11
				C441,541.3,430.3,536.3,417.1,536.3z M417.1,551c-4.4,0-8-1.6-8-3.7c0-2,3.6-3.7,8-3.7c4.4,0,8,1.6,8,3.7
				C425,549.4,421.5,551,417.1,551z"/>
			<path class="st10" d="M369.1,521.6c-13.2,0-24,4.9-24,11c0,6.1,10.7,11,24,11s24-4.9,24-11C393.1,526.6,382.4,521.6,369.1,521.6z
				 M369.1,536.3c-4.4,0-8-1.6-8-3.7c0-2,3.6-3.7,8-3.7c4.4,0,8,1.6,8,3.7C377.1,534.7,373.5,536.3,369.1,536.3z"/>
			<path class="st10" d="M405.1,468.3c-22.1,0-39.9,8.2-39.9,18.4s17.9,18.4,39.9,18.4s39.9-8.2,39.9-18.4
				C445,476.6,427.1,468.3,405.1,468.3z M405.1,497.7c-13.2,0-24-4.9-24-11s10.7-11,24-11s24,4.9,24,11S418.3,497.7,405.1,497.7z"/>
			<path class="st10" d="M341.2,435.2c-13.2,0-24,4.9-24,11s10.7,11,24,11s24-4.9,24-11S354.4,435.2,341.2,435.2z M341.2,449.9
				c-4.4,0-8-1.6-8-3.7s3.6-3.7,8-3.7c4.4,0,8,1.6,8,3.7S345.6,449.9,341.2,449.9z"/>
			<path class="st10" d="M309.2,457.3c-13.2,0-24,4.9-24,11c0,6.1,10.7,11,24,11s24-4.9,24-11C333.2,462.2,322.5,457.3,309.2,457.3z
				 M309.2,472c-4.4,0-8-1.6-8-3.7c0-2,3.6-3.7,8-3.7c4.4,0,8,1.6,8,3.7C317.2,470.3,313.6,472,309.2,472z"/>
			<path class="st10" d="M425,529h8c4.4,0,8-1.6,8-3.7c0-2-3.6-3.7-8-3.7h-8c-4.4,0-8,1.6-8,3.7C417.1,527.3,420.6,529,425,529z"/>
			<path class="st10" d="M297.2,554.7h8c4.4,0,8-1.6,8-3.7c0-2-3.6-3.7-8-3.7h-8c-4.4,0-8,1.6-8,3.7
				C289.2,553.1,292.8,554.7,297.2,554.7z"/>
			<path class="st10" d="M345.2,495.9h-8c-4.4,0-8,1.6-8,3.7s3.6,3.7,8,3.7h8c4.4,0,8-1.6,8-3.7S349.6,495.9,345.2,495.9z"/>
			<path class="st10" d="M297.2,451.8c2.1,0,4.1-0.4,5.6-1.1l8-3.7c3.1-1.5,3-3.8-0.2-5.2c-3.1-1.4-8-1.4-11.1,0l-8,3.7
				c-3.1,1.4-3.1,3.8,0,5.2C293.1,451.4,295.1,451.8,297.2,451.8z"/>
		</g>
	</g>
</g>
</svg>
