<?xml version="1.0" encoding="utf-8"?>
<!-- Generator: Adobe Illustrator 23.0.0, SVG Export Plug-In . SVG Version: 6.00 Build 0)  -->
<svg version="1.1" id="Capa_1" xmlns="http://www.w3.org/2000/svg" xmlns:xlink="http://www.w3.org/1999/xlink" x="0px" y="0px"
	 viewBox="0 0 512 512" style="enable-background:new 0 0 512 512;" xml:space="preserve">
<style type="text/css">
	.st0{fill:#282828;}
	.st1{fill:#FFFFFF;}
	.st2{fill:none;stroke:#282828;stroke-width:15;stroke-linecap:round;stroke-linejoin:round;stroke-miterlimit:10;}
	.st3{fill:none;stroke:#282828;stroke-width:10;stroke-linecap:round;stroke-linejoin:round;stroke-miterlimit:10;}
</style>
<path class="st0" d="M363.4,108.1c-17.3,24.8-37.2,42.2-62.2,54.3c0.1-0.3,0.4-0.5,0.5-0.8c-10.4,9.6-17.8,21.5-24,34.2
	c45.4-12.7,77.9-35.8,104.8-74.4c5.3-8.1,15.2-11.7,24.4-8.7c10.8,3,18.6,12.7,19.3,23.9c1.6,18-13.7,24.6-38.8,32.6
	c-32.2,10.6-79.6,47.7-93.7,88.2c3.7,1.8,7.9,2.6,12,3c4,0.4,8.1,0.7,11.9-0.5l0,0c14.1-31.7,52.9-61.2,79.1-69.3
	c21.3-7,52.9-17.3,52.9-52.1c0.1-22.3-14.7-42-36.2-48C394.5,84.5,374.3,91.8,363.4,108.1z"/>
<g>
	<path class="st1" d="M491.2,344.3l-388.5,17.8c-1.5-30.8-2.8-61.5-4.2-92.3c-1.6-34.5-3.2-68.9-4.8-103.4
		c129.5-5.9,259-11.9,388.5-17.8L491.2,344.3z"/>
	<g>
		<g id="g3210" transform="translate(294.0918,390.291)">
			<path id="path3212" class="st2" d="M106.6-243.5c23.8-1.2,47.5-2.2,71.3-3.4c8.4-0.4,15.6,6.1,16,14.5l8.6,177
				c0.4,8.4-6.1,15.6-14.5,16l-370.3,17.6c-8.4,0.4-15.6-6.1-16-14.5l-8.6-177.1c-0.4-8.4,6.1-15.6,14.5-16
				c87.3-4.1,174.4-8.3,261.6-12.4C81.7-242.3,94.1-243,106.6-243.5z"/>
		</g>
	</g>
	<path class="st0" d="M359.4,283.5l-22.4,1.8c-11.7,1.1-23.4-3.6-31.3-12.4l22.4-1.8c4.1-0.4,7.3-4,6.9-8.2c-0.4-4.1-4-7.3-8.2-6.9
		l-29.2,2.5c-1.5-4.9-1.8-9.9-1.3-15l36.7-3c4.1-0.4,7.3-4,6.9-8.2c-0.4-4.1-4-7.3-8.2-6.9l-30,2.5c6.3-10,16.9-16.5,28.8-17.6
		l22.4-1.8c4.1-0.4,7.3-4,6.9-8.2c-0.4-4.1-4-7.3-8.2-6.9l-22.4,1.8c-20.2,1.7-37.6,14.9-44.7,33.9l-12.7,1.1
		c-4.1,0.4-7.3,4-6.9,8.2s4,7.3,8.2,6.9l8.1-0.7c-0.4,5,0,10,1.3,15l-15.6,1.3c-4.1,0.4-7.3,4-6.9,8.2c0.4,4.1,4,7.3,8.2,6.9
		l20.2-1.7c10.2,17.6,29.6,27.7,49.8,26l22.4-1.8c4.1-0.4,7.3-4,6.9-8.2C367.2,286.3,363.5,283.2,359.4,283.5z"/>
</g>
<path class="st1" d="M51.1,292.5L23,354.7v30.8l5,25.6c0,0,12.5,21.1,14.4,26.4c1.7,5.3,25.5,28.2,25.5,28.2l50.2,10.8
	c0,0,38.7,0.4,41.3,0c2.6-0.4,32.6-10.8,32.6-10.8l23.8-27.5l30.8-21.4l31.3-15.6h33.9l26.9-16.8l10.8-28.2l-10.8-28.9l-20.9-8.2
	l-30-4l-15.8,12.1l-21.1,11.5l-7.9,7.9l-10.6,10.4l-16.8,4.4l-24.7-7.9l-22.8-7l-7.9-19.3l-0.9-12.1l11.5-29.3l15.4-38.4l34.7-40.4
	l26.4-32.7l16.8-19l43.2-38.4l14.9-22.6l-7-31.2c0,0-15.8-21.6-19.4-23.6c-3.6-2-38.7-11.9-41.3-8.7c-2.6,3.2-20.2,29-20.2,29
	S221,79.9,220,84.8c-0.9,5-3.6,21.6-3.6,21.6s-5.3,14.4-6.2,16.4c-0.9,2.1-11.5,15.3-11.5,15.3s-6.2,1.1-8.8,11.5
	c-2.6,10.4-7,24.8-7,24.8l-10.7,4.5l-30.5,35.9l-25.5,23.6l-36,31.7L51.1,292.5z"/>
<path class="st0" d="M276.3,157c10.2-6.5,26.4-16.5,42.2-36c27.7-34.1,18.1-70.9-12.3-91.9c-26.7-17.7-63.2-8.7-83.3,20.3
	c-7.5,11-11.5,25.1-15.6,40c-13.5,48.8-46.6,113-139.3,172.5C-12.7,310.5-9.5,407,38.8,454.4c17.4,15.4,58.6,40.7,102.8,37.4
	c30.5-2.2,57.3-17.2,80-44.2c17.2-20.6,30.6-32.9,73.1-30.4l0,0c7.8,0.5,23.4,0.3,37.9-9.5c26.8-18,37.4-60.2,19.9-83.7
	c-20.5-27.7-74.7-22.6-90-5.3c-13.9,15.7-27.1,30.2-40.8,33c0,0.3-0.1,0.4-0.4,0.5c-4.2,1.2-8.8,0.9-13.2,0.4
	c-4.1-0.5-8.4-1.3-12-3.3c-0.3-0.1-0.4-0.4-0.3-0.7c-28-10-34.7-31.3-16.6-59.9c0.3-0.4,0.4-0.7,0.3-1.1c0-0.1,0-0.3,0.1-0.4
	c2.2-4.5,24.8-35.6,24.8-35.6 M333.8,372.5c-4.4,8.6-14.9,22.7-37.8,21.4c-48.3-2.8-69,10.8-92.4,38.7c-18.5,22-40,34.1-63.9,35.9
	c-45.5,3.4-84-30.2-85.7-31.5c-15.3-12.5-29-47.4-25.7-76.8c2-22.6,12.7-54.5,51.9-78.4c85-51.7,131.6-125.3,145.7-172.4
	c4.6-15.2,9-36.4,16.2-46.7c12.9-18.7,35-24.8,51.2-14.1c21,13.7,23.9,38.3,7.1,57.7c-9.4,11.1-26.5,22.8-38.9,32.9
	c-19.4,15.6-35.1,39.6-53.5,67.6c-11.5,17.4-24.4,37.2-39.9,57c-25.3,32.6-24.9,56.5-20.1,70.8c6.3,18.6,23.5,32.6,48.4,39.2
	c40.7,10.6,62.4-16.1,83-38.9c6.1-6.7,14.8-10.3,23.8-10c12,0.3,23.2,5.7,31.2,14.7C339.5,344.8,340.5,359.2,333.8,372.5z"/>
<g id="g3218" transform="translate(62.6387,235.332)">
	<path id="path3220" class="st3" d="M425.5-19.5c-40.1,1.8-74.7-29-77.2-68.9l56-2.5c9.2-0.4,17.3,6.7,17.8,16L425.5-19.5z"/>
</g>
<g id="g3218_1_" transform="translate(62.6387,235.332)">
	<path id="path3220_1_" class="st3" d="M362.1,119.1c-1.3-40.3,30-74.3,70-76.3l1.8,56c0.3,9.2-7,17.2-16.1,17.6L362.1,119.1z"/>
</g>
</svg>
