<?xml version="1.0" encoding="utf-8"?>
<!-- Generator: Adobe Illustrator 23.0.0, SVG Export Plug-In . SVG Version: 6.00 Build 0)  -->
<svg version="1.1" id="Capa_1" xmlns="http://www.w3.org/2000/svg" xmlns:xlink="http://www.w3.org/1999/xlink" x="0px" y="0px"
	 viewBox="0 0 512 512" style="enable-background:new 0 0 512 512;" xml:space="preserve">
<style type="text/css">
	.st0{fill:#D9D9D9;}
	.st1{fill:#FBB540;}
	.st2{fill:#F7E4BA;}
	.st3{fill:#EA6B65;}
	.st4{fill:#B3E4E8;}
	.st5{fill:#3B869E;}
	.st6{fill:#4799CF;}
	.st7{fill:#F27E55;}
	.st8{fill:#B9B9B9;}
	.st9{fill:#277BAA;}
</style>
<g>
	<polygon class="st0" points="263,251.5 305.9,268.6 318.6,259.1 327.3,302.7 314.4,311.3 254.5,302.7 254.5,302.7 168.8,396.6 
		152.6,412.7 118.3,446.8 108.7,456.3 85.3,428.4 92.6,421.2 126.9,387.1 101.2,361.5 66.9,387.1 55.8,398.1 31.6,371 41.2,361.5 
		75.4,327.3 91.6,311.3 143,260.1 98.8,260.3 92.1,263.6 87.2,223.5 99.6,217.4 160.2,218 193.1,217.4 	"/>
	<ellipse class="st0" cx="237.3" cy="149.1" rx="102.8" ry="102.4"/>
	<path class="st0" d="M227.5,157.7L257.9,57l2.9-7.5c-7.5-1.7-15.4-2.8-23.4-2.8c-56.8,0-102.8,45.9-102.8,102.4
		s46,102.4,102.8,102.4c37.7,0,70.6-20.3,88.5-50.4l-1.8-0.8L227.5,157.7z"/>
</g>
<polygon class="st1" points="452.8,38.2 468.5,69.9 503.5,75 478.1,99.7 484.1,134.6 452.8,118.1 421.5,134.6 427.5,99.7 402.1,75 
	437.1,69.9 "/>
<g>
	<rect x="401.1" y="328.3" class="st2" width="17.1" height="17.1"/>
	<rect x="401.1" y="362.5" class="st2" width="17.1" height="17.1"/>
	<rect x="418.1" y="345.4" class="st2" width="17.1" height="17.1"/>
	<rect x="384" y="345.4" class="st2" width="17.1" height="17.1"/>
</g>
<g>
	<rect x="341.3" y="422.2" class="st3" width="17.1" height="17.1"/>
	<rect x="341.3" y="456.3" class="st3" width="17.1" height="17.1"/>
	<rect x="358.4" y="439.3" class="st3" width="17.1" height="17.1"/>
	<rect x="324.3" y="439.3" class="st3" width="17.1" height="17.1"/>
</g>
<g>
	<rect x="238.9" y="388.1" class="st2" width="17.1" height="17.1"/>
	<rect x="238.9" y="422.2" class="st2" width="17.1" height="17.1"/>
	<rect x="256" y="405.1" class="st2" width="17.1" height="17.1"/>
	<rect x="221.9" y="405.1" class="st2" width="17.1" height="17.1"/>
</g>
<g>
	<rect x="76.8" y="97.9" class="st4" width="17.1" height="17.1"/>
	<rect x="76.8" y="132.1" class="st4" width="17.1" height="17.1"/>
	<rect x="93.9" y="115" class="st4" width="17.1" height="17.1"/>
	<rect x="59.7" y="115" class="st4" width="17.1" height="17.1"/>
</g>
<ellipse class="st5" cx="225.4" cy="161.9" rx="21.4" ry="21.3"/>
<path class="st6" d="M260.7,49.5l-2.9,7.5l-30.3,100.7l96.4,42.7l1.8,0.8c9.1-15.2,14.3-33,14.3-52
	C340.2,100.6,306.2,60.1,260.7,49.5z"/>
<polygon class="st7" points="305.9,268.6 340.2,243 352.7,233.4 377.8,266 365.9,277.1 314.4,311.3 "/>
<path class="st8" d="M340.2,243l25.7,34.1l20.3-19.1c7.4-6.9,8.4-18.3,2.4-26.5l0,0c-6.7-9-19.5-10.8-28.4-4L340.2,243z"/>
<polygon class="st7" points="98.4,260.4 60.4,280 51.2,284.9 35.9,248.7 47.7,243 99.6,217.4 "/>
<g>
	<path class="st8" d="M60.4,280l-12.6-37l-30.3,14.6c-8.5,5.6-11.3,16.7-6.7,25.7l0,0c5.1,10,17.4,13.8,27.4,8.5L60.4,280z"/>
	<path class="st8" d="M41.2,361.5l-21.4,21.3c-7.1,7.1-7.1,18.5,0,25.6l0,0c7.1,7.1,18.6,7.1,25.7,0l21.4-21.3L41.2,361.5z"/>
	<path class="st8" d="M92.6,421.2l25.7,25.6l-21.4,21.3c-7.1,7.1-18.6,7.1-25.7,0l0,0c-7.1-7.1-7.1-18.5,0-25.6L92.6,421.2z"/>
</g>
<polygon class="st9" points="177.3,268.6 143,302.7 177.3,336.9 211.6,302.7 "/>
<g>
	<path class="st4" d="M315.4,132.1h-17.1c0-27.2-26.7-34.1-27.8-34.4l4.1-16.6C288.7,84.6,315.4,99.8,315.4,132.1z"/>
	<rect x="298.3" y="149.1" class="st4" width="17.1" height="17.1"/>
</g>
<polygon class="st7" points="175.7,382 97.7,305.3 91.8,311.1 85.7,317.4 163.3,393.8 167.2,398.1 168.8,396.6 178.9,385.5 "/>
<path d="M504.7,66.6l-30.6-4.4l-13.7-27.7c-2.9-5.8-12.4-5.8-15.3,0l-13.7,27.7l-30.6,4.4c-3.2,0.5-5.9,2.7-6.9,5.8
	c-1,3.1-0.2,6.5,2.2,8.7l22.1,21.6l-5.2,30.4c-0.5,3.2,0.8,6.4,3.4,8.3c2.7,1.9,6.1,2.2,9,0.6l27.3-14.4l27.3,14.4
	c1.2,0.7,2.6,1,4,1c1.8,0,3.5-0.5,5-1.6c2.6-1.9,3.9-5.1,3.4-8.3l-5.2-30.4l22.1-21.6c2.3-2.3,3.2-5.7,2.2-8.7
	C510.6,69.3,507.9,67.1,504.7,66.6z M472.2,93.6c-2,2-2.9,4.8-2.4,7.6l3.1,17.8l-16-8.4c-1.2-0.7-2.6-1-4-1s-2.7,0.3-4,1l-16,8.4
	l3.1-17.8c0.5-2.8-0.4-5.6-2.4-7.6l-13-12.6l17.9-2.6c2.8-0.4,5.2-2.2,6.4-4.7l8-16.2l8,16.2c1.2,2.5,3.6,4.3,6.4,4.7l17.9,2.6
	L472.2,93.6z"/>
<rect x="401.1" y="328.3" width="17.1" height="17.1"/>
<rect x="401.1" y="362.5" width="17.1" height="17.1"/>
<rect x="418.1" y="345.4" width="17.1" height="17.1"/>
<rect x="384" y="345.4" width="17.1" height="17.1"/>
<rect x="341.3" y="422.2" width="17.1" height="17.1"/>
<rect x="341.3" y="456.3" width="17.1" height="17.1"/>
<rect x="358.4" y="439.3" width="17.1" height="17.1"/>
<rect x="324.3" y="439.3" width="17.1" height="17.1"/>
<rect x="238.9" y="388.1" width="17.1" height="17.1"/>
<rect x="238.9" y="422.2" width="17.1" height="17.1"/>
<rect x="256" y="405.1" width="17.1" height="17.1"/>
<rect x="221.9" y="405.1" width="17.1" height="17.1"/>
<rect x="76.8" y="97.9" width="17.1" height="17.1"/>
<rect x="76.8" y="132.1" width="17.1" height="17.1"/>
<rect x="93.9" y="115" width="17.1" height="17.1"/>
<rect x="59.7" y="115" width="17.1" height="17.1"/>
<path d="M51.5,414.4l21-20.9l27.9-20.8l14.4,14.4l-28.2,28.1c0,0,0,0,0,0l-21.4,21.3c-5.1,5-7.8,11.7-7.8,18.8
	c0,7.1,2.8,13.8,7.8,18.9c5.2,5.2,12,7.8,18.9,7.8s13.7-2.6,18.9-7.8l21.4-21.3l34.3-34.1c0,0,0,0,0,0l16.2-16l-0.1-0.1
	c0.1-0.1,0.2-0.1,0.4-0.2l82.7-90.5l55.5,7.9c0.4,0.1,0.8,0.1,1.2,0.1c1,0,2-0.2,3-0.6c0.3-0.1,0.5-0.2,0.8-0.4
	c0.3-0.2,0.6-0.2,0.9-0.4l51.4-34.1c0.2-0.1,0.3-0.3,0.5-0.5c0.2-0.2,0.5-0.2,0.6-0.4l20.3-19.1c10.6-9.9,12-26.2,3.4-37.8
	c-4.6-6.2-11.3-10.2-19-11.3c-7.7-1.1-15.3,0.9-21.4,5.6l-20,15.4l0,0l-30.4,22.7l-21.7-8.7c38.7-17.4,65.8-56.1,65.8-101.1
	c0-61.2-50-110.9-111.4-110.9S125.9,88,125.9,149.2c0,22.2,6.6,42.8,17.9,60.1l-44.2-0.4c0,0-0.1,0-0.1,0c-0.1,0-0.2,0.1-0.4,0.1
	c-0.8,0-1.7,0.2-2.5,0.5c-0.2,0.1-0.4,0.1-0.6,0.2c-0.1,0-0.2,0.1-0.3,0.1L44,235.3c0,0,0,0,0,0l-30.3,14.6c-0.3,0.1-0.7,0.3-1,0.6
	c-12.1,8-16.2,23.8-9.6,36.7c3.5,6.9,9.5,11.9,16.9,14.2c2.8,0.9,5.7,1.3,8.6,1.3c4.6,0,9.2-1.1,13.4-3.4l22.2-11.8l0,0l36.2-18.7
	l21.7-0.1l-87.1,86.6c0,0,0,0,0,0l-21.4,21.3c-5.1,5-7.8,11.7-7.8,18.8c0,7.1,2.8,13.8,7.8,18.9c5.2,5.2,12,7.8,18.9,7.8
	C39.4,422.2,46.3,419.6,51.5,414.4z M90.9,462.1c-3.8,3.7-9.9,3.8-13.7,0c-1.8-1.8-2.8-4.2-2.8-6.8c0-2.5,1-4.9,2.8-6.7l15.4-15.3
	l6.4,6.4l7.2,7.2L90.9,462.1z M118.3,434.7l-6.4-6.4l-7.2-7.2l28.2-28.1c0,0,0,0,0,0c0,0,0,0,0,0c0.6-0.6,1-1.4,1.4-2.2
	c0.1-0.2,0.3-0.4,0.4-0.6c0.3-0.7,0.3-1.4,0.4-2.1c0.1-0.4,0.2-0.8,0.2-1.2c0-0.6-0.2-1.1-0.3-1.7c-0.1-0.5-0.1-1-0.3-1.5
	c-0.3-0.8-0.9-1.5-1.5-2.2c-0.2-0.2-0.2-0.4-0.4-0.6c0,0,0,0,0,0c0,0,0,0,0,0l-25.7-25.6c-0.3-0.3-0.6-0.4-0.9-0.6
	c-0.5-0.4-0.9-0.7-1.4-0.9c-0.5-0.2-1-0.4-1.5-0.5c-0.5-0.2-1.1-0.3-1.6-0.3c-0.5,0-1,0-1.5,0.1c-0.6,0.1-1.1,0.1-1.7,0.3
	c-0.5,0.2-1,0.4-1.5,0.7c-0.3,0.2-0.7,0.2-1,0.5l-28.4,21.2l-14.4-14.4l38.4-38.2l69.8,68.6l-14.8,14.7c0,0,0,0,0,0L118.3,434.7z
	 M365.4,234.4c2.5-1.9,5.6-2.7,8.7-2.3c3.1,0.4,5.8,2,7.7,4.5c3.5,4.7,2.9,11.2-1.4,15.2L367,264.4l-14.9-19.8L365.4,234.4z
	 M338.5,254.9l6.1,8l9.1,12.1l-33.3,22.1l-5-24.9L338.5,254.9z M331.6,149.1c0,14.7-3.5,28.6-9.6,41l-66.9-30.4
	c-0.7-9.2-5.5-17.2-12.6-22.2L266,59.7C304,71.8,331.6,107.3,331.6,149.1z M238.3,161.9c0,7.1-5.8,12.8-12.9,12.8
	s-12.9-5.7-12.9-12.8s5.8-12.8,12.9-12.8S238.3,154.9,238.3,161.9z M237.3,55.3c4,0,8,0.3,11.9,0.8l-22.9,76.1
	c-0.3,0-0.6-0.1-0.9-0.1c-16.5,0-30,13.4-30,29.9s13.4,29.9,30,29.9c11.1,0,20.7-6.1,25.9-15.1l61.8,28.1
	c-17.2,23.1-44.7,38.2-75.8,38.2c-52,0-94.3-42.1-94.3-93.9S185.3,55.3,237.3,55.3z M34.1,284.3c-2.8,1.5-5.9,1.8-8.9,0.8
	c-3-0.9-5.4-3-6.8-5.7c-2.6-5-1.1-11.1,3.4-14.4l21-10.1l5.1,14.8l2.1,6.2L34.1,284.3z M65.3,267.9l-4.1-11.9l-2.9-8.6l32.4-16
	L90,255.1L65.3,267.9z M108,226l49.7,0.4c20.2,20.7,48.5,33.6,79.7,33.6c7,0,13.8-0.7,20.5-2c0.6,0.5,1.3,1,2.1,1.4l38.6,15.4
	l2.4,12.1l2.9,14.2l-48-6.8c-0.2,0-0.5,0.1-0.7,0c-0.6,0-1.2,0-1.8,0.1c-0.5,0.1-0.9,0.2-1.4,0.3c-0.5,0.2-1,0.4-1.5,0.8
	c-0.5,0.3-0.9,0.6-1.3,1c-0.2,0.2-0.5,0.3-0.6,0.5L173,379.3l-69.2-68.1l45.3-45.1c3.3-3.3,3.4-8.7,0-12.1c-1.7-1.7-3.9-2.5-6.1-2.5
	v0l-35.5,0.2L108,226z M23,395.6c0-2.5,1-4.9,2.8-6.7l15.4-15.3l13.6,13.6l-15.3,15.3c-3.8,3.7-9.9,3.7-13.7,0
	C23.9,400.5,23,398.1,23,395.6z"/>
<path d="M134.5,302.7c0,2.3,0.9,4.4,2.5,6l34.3,34.1c1.7,1.7,3.8,2.5,6,2.5s4.4-0.8,6-2.5l34.3-34.1c1.6-1.6,2.5-3.8,2.5-6
	s-0.9-4.4-2.5-6l-34.3-34.1c-3.3-3.3-8.7-3.3-12,0L137,296.7C135.4,298.3,134.5,300.5,134.5,302.7z M177.3,280.7l22.2,22.1
	l-22.2,22.1l-22.2-22.1L177.3,280.7z"/>
<path d="M298.3,132.1h17.1c0-32.3-26.6-47.4-40.7-51l-4.1,16.6C271.6,98,298.3,104.9,298.3,132.1z"/>
<rect x="298.3" y="149.1" width="17.1" height="17.1"/>
</svg>
