<?xml version="1.0" encoding="utf-8"?>
<!-- Generator: Adobe Illustrator 23.0.0, SVG Export Plug-In . SVG Version: 6.00 Build 0)  -->
<svg version="1.1" id="Capa_1" xmlns="http://www.w3.org/2000/svg" xmlns:xlink="http://www.w3.org/1999/xlink" x="0px" y="0px"
	 viewBox="0 0 512 512" style="enable-background:new 0 0 512 512;" xml:space="preserve">
<style type="text/css">
	.st0{fill:none;stroke:#282828;stroke-width:15;stroke-linecap:round;stroke-linejoin:round;stroke-miterlimit:10;}
	.st1{fill:none;stroke:#282828;stroke-width:20;stroke-linecap:round;stroke-linejoin:round;stroke-miterlimit:10;}
</style>
<path class="st0" d="M62.6,36.4H31.3c-13.1,0-23.8,10.7-23.8,23.8V392c0,13.1,10.6,23.8,23.8,23.8h139.3c7,0,13.6-3.1,18.1-8.4
	l20.9-24.6c4.5-5.3,11.2-8.4,18.1-8.4h253c13.1,0,23.8-10.6,23.8-23.8V60.2c0-13.1-10.6-23.8-23.8-23.8h-383"/>
<polyline class="st0" points="367.2,346.3 35.5,346.3 35.5,64.4 476.5,64.4 476.5,346.3 402.3,346.3 "/>
<line class="st0" x1="35.5" y1="379.7" x2="130.7" y2="379.7"/>
<line class="st0" x1="162.4" y1="379.7" x2="162.4" y2="379.7"/>
<g>
	<polyline class="st0" points="83.2,475.6 83.2,415.8 127.2,415.8 127.2,475.6 	"/>
	<polyline class="st0" points="384.8,475.6 384.8,374.3 428.8,374.3 428.8,475.6 	"/>
</g>
<g>
	<circle class="st1" cx="147.7" cy="205.4" r="61.7"/>
	<circle class="st1" cx="364.3" cy="205.4" r="61.7"/>
	<path class="st1" d="M180,258l158.2-108.6L180,258z"/>
</g>
</svg>
