<?xml version="1.0" encoding="utf-8"?>
<!-- Generator: Adobe Illustrator 23.0.0, SVG Export Plug-In . SVG Version: 6.00 Build 0)  -->
<svg version="1.1" id="_x33_0" xmlns="http://www.w3.org/2000/svg" xmlns:xlink="http://www.w3.org/1999/xlink" x="0px" y="0px"
	 viewBox="0 0 512 512" style="enable-background:new 0 0 512 512;" xml:space="preserve">
<style type="text/css">
	.st0{fill-rule:evenodd;clip-rule:evenodd;fill:#F9D11F;}
	.st1{fill-rule:evenodd;clip-rule:evenodd;fill:#FF840B;}
	.st2{fill-rule:evenodd;clip-rule:evenodd;fill:#EF3A3A;}
	.st3{fill:#2BA114;}
	.st4{fill-rule:evenodd;clip-rule:evenodd;fill:#2BA114;}
	.st5{fill:#E6E9ED;}
	.st6{fill:#FCD770;}
	.st7{fill:#CCD1D9;}
	.st8{fill:#ED5565;}
	.st9{fill:#EF7385;}
	.st10{fill:#69D6F4;}
</style>
<g id="Layer_x0020_1">
	<g id="_1923208653600">
		<path class="st0" d="M373.1,257.5c-62.6,0-113.4-50.9-113.4-113.4S310.5,30.6,373.1,30.6s113.4,50.9,113.4,113.4
			S435.6,257.5,373.1,257.5z"/>
		<path class="st1" d="M373.1,273c-1.7,0-3-1.4-3-3V149.3l-104.5,60.3c-0.5,0.3-1,0.4-1.5,0.4c-1,0-2.1-0.5-2.6-1.5
			c-0.8-1.4-0.3-3.3,1.1-4.1L367,144.1L262.5,83.7c-1.4-0.8-1.9-2.7-1.1-4.1c0.8-1.4,2.7-1.9,4.1-1.1l104.5,60.3V18.2
			c0-1.7,1.4-3,3-3s3,1.4,3,3v120.7l104.5-60.3c1.4-0.8,3.3-0.3,4.1,1.1c0.8,1.4,0.3,3.3-1.1,4.1l-104.5,60.3l104.5,60.3
			c1.4,0.8,1.9,2.7,1.1,4.1c-0.6,1-1.6,1.5-2.6,1.5c-0.5,0-1-0.1-1.5-0.4l-104.5-60.3V270C376.1,271.7,374.8,273,373.1,273
			L373.1,273z"/>
		<path class="st2" d="M403.6,219.5c-8.7,0-15.7-7.1-15.7-15.8S395,188,403.6,188c8.7,0,15.8,7.1,15.8,15.7
			C419.4,212.4,412.3,219.5,403.6,219.5L403.6,219.5z M437.6,158.5c-8.7,0-15.8-7.1-15.8-15.8s7.1-15.8,15.8-15.8
			c8.7,0,15.7,7.1,15.7,15.8C453.3,151.4,446.3,158.5,437.6,158.5z M405.1,104c-8.7,0-15.7-7.1-15.7-15.7s7.1-15.8,15.7-15.8
			c8.7,0,15.8,7.1,15.8,15.8S413.8,104,405.1,104L405.1,104z M340.1,97.9c-8.7,0-15.8-7.1-15.8-15.7s7.1-15.8,15.8-15.8
			c8.7,0,15.7,7.1,15.7,15.8S348.8,97.9,340.1,97.9z M300.9,159.9c-8.7,0-15.7-7.1-15.7-15.8s7.1-15.7,15.7-15.7s15.8,7.1,15.8,15.7
			S309.5,159.9,300.9,159.9z M336.3,221.7c-8.7,0-15.8-7.1-15.8-15.8s7.1-15.8,15.8-15.8c8.7,0,15.8,7.1,15.8,15.8
			S345,221.7,336.3,221.7z"/>
		<path class="st1" d="M373.1,280.1c-36.3,0-70.5-14.2-96.2-39.8c-25.7-25.7-39.8-59.8-39.8-96.2s14.2-70.5,39.8-96.2
			c25.7-25.7,59.8-39.8,96.2-39.8s70.5,14.2,96.2,39.8c25.7,25.7,39.8,59.8,39.8,96.2s-14.2,70.5-39.8,96.2
			C443.6,266,409.4,280.1,373.1,280.1z M373.1,253c-60.1,0-108.9-48.9-108.9-108.9S313,35.1,373.1,35.1S482,84,482,144.1
			S433.2,253,373.1,253z"/>
		<g>
			<path class="st3" d="M393.3,54.2c-1.6,0.8-2.2,2.7-1.5,4.3c0.8,1.6,2.7,2.2,4.3,1.5c0,0,7.3-3.7,15.5,4.5c1.2,1.2,3.3,1.2,4.5,0
				c1.2-1.2,1.2-3.3,0-4.5C404.7,48.5,393.4,54.2,393.3,54.2z"/>
			<path class="st3" d="M464.5,132.7c-1.3-1.2-3.3-1.2-4.5,0.1c-1.2,1.3-1.2,3.3,0.1,4.5c0,0,6,5.6,1,16.1c-0.7,1.6-0.1,3.5,1.5,4.2
				c1.6,0.7,3.5,0.1,4.2-1.5C473.7,141.4,464.5,132.7,464.5,132.7L464.5,132.7z"/>
			<path class="st3" d="M414.8,226.2c0.7-1.6,0-3.5-1.6-4.2c-1.6-0.7-3.5,0-4.2,1.6c0,0-3.3,7.5-14.8,6.4c-1.8-0.2-3.3,1.1-3.5,2.9
				c-0.2,1.8,1.1,3.3,2.9,3.5C409.7,237.8,414.8,226.2,414.8,226.2L414.8,226.2z"/>
			<path class="st3" d="M314.8,218.3c1.8,0,3.2-1.5,3.2-3.2c0-1.8-1.5-3.2-3.2-3.1c0,0-8.2,0.2-12.1-10.7c-0.6-1.7-2.4-2.5-4.1-1.9
				c-1.7,0.6-2.5,2.4-1.9,4.1C302.1,218.7,314.7,218.3,314.8,218.3L314.8,218.3z"/>
			<path class="st3" d="M306.7,80.3c-0.2,1.7,1.1,3.3,2.9,3.5c1.8,0.2,3.3-1.1,3.5-2.9c0,0,0.6-8.2,11.9-10.9
				c1.7-0.4,2.8-2.2,2.3-3.9c-0.4-1.7-2.2-2.8-3.9-2.3C307.6,67.6,306.7,80.3,306.7,80.3L306.7,80.3z"/>
			<path class="st3" d="M275.7,131.6c1.3-1.2,3.3-1.2,4.5,0.1c1.2,1.3,1.2,3.3-0.1,4.5c0,0-6,5.6-1,16.1c0.8,1.6,0.1,3.5-1.5,4.2
				c-1.6,0.7-3.5,0.1-4.2-1.5C266.5,140.3,275.7,131.6,275.7,131.6L275.7,131.6z"/>
			<path class="st4" d="M387.6,184.3c-4.6,0-8.4-3.8-8.4-8.4c0-4.6,3.8-8.4,8.4-8.4c4.6,0,8.4,3.8,8.4,8.4
				C396,180.5,392.2,184.3,387.6,184.3z M405.7,151.7c-4.6,0-8.4-3.8-8.4-8.4c0-4.6,3.8-8.4,8.4-8.4c4.6,0,8.4,3.8,8.4,8.4
				C414.1,148,410.3,151.7,405.7,151.7z M388.3,122.7c-4.6,0-8.4-3.8-8.4-8.4c0-4.6,3.8-8.4,8.4-8.4c4.6,0,8.4,3.8,8.4,8.4
				C396.7,119,393,122.7,388.3,122.7z M353.7,119.5c-4.6,0-8.4-3.8-8.4-8.4c0-4.6,3.8-8.4,8.4-8.4c4.6,0,8.4,3.8,8.4,8.4
				C362.1,115.7,358.3,119.5,353.7,119.5z M332.8,152.5c-4.6,0-8.4-3.8-8.4-8.4c0-4.6,3.8-8.4,8.4-8.4c4.6,0,8.4,3.8,8.4,8.4
				C341.2,148.7,337.4,152.5,332.8,152.5z M351.7,185.5c-4.6,0-8.4-3.8-8.4-8.4c0-4.6,3.8-8.4,8.4-8.4c4.6,0,8.4,3.8,8.4,8.4
				C360.1,181.7,356.3,185.5,351.7,185.5z"/>
		</g>
	</g>
</g>
<path class="st5" d="M302.9,301.4L277.1,325l-58.3,53.2l-25.2,23l-3.8,3.5l-0.3-0.3c4.9-5,7.7-11.9,7.7-19V384
	c0-7.2-2.9-14.2-8-19.3s-12.1-8-19.3-8h-1.4c-7.2,0-14.2,2.9-19.3,8c5.1-5.1,8-12.1,8-19.3V344c0-7.2-2.9-14.2-8-19.3
	s-12.1-8-19.3-8h-1.4c-7,0-13.9,2.8-19,7.7l-0.3-0.3l3.5-3.8l23-25.2l53.2-58.3l23.6-25.8l32.2-35.2c10.9-11.9,23.8-21.8,38-29
	c5.8-3,11.8-5.5,18-7.5l0.5,1.5l72,72l1.5,0.5c-7.1,21.3-19.6,40.6-36.5,56L302.9,301.4z"/>
<path class="st6" d="M133.1,380.7l-40-40l-24,24l40,40l40,40l24-24L133.1,380.7z"/>
<path class="st7" d="M188.8,236.7l-53.2,58.3l-2.6-2.3l-56-56H188.8z"/>
<path class="st7" d="M277.1,325v111.8l-56-56l-2.3-2.6L277.1,325z"/>
<path class="st8" d="M135.6,295.1l-23,25.2l-59.5-59.5l24-24l56,56L135.6,295.1z"/>
<path class="st8" d="M277.1,436.7l-24,24l-59.5-59.5l25.2-23l2.3,2.6L277.1,436.7z"/>
<path class="st7" d="M189.1,364.7c-5.1-5.1-12.1-8-19.3-8h-1.4c-7.2,0-14.2,2.9-19.3,8c5.1-5.1,8-12.1,8-19.3V344
	c0-7.2-2.9-14.2-8-19.3s-12.1-8-19.3-8h-1.4c-7,0-13.9,2.8-19,7.7c-0.1,0.1-0.2,0.2-0.3,0.3l-16,16l40,40l40,40l16-16
	c0.1-0.1,0.2-0.2,0.3-0.3c4.9-5,7.7-11.9,7.7-19V384C197.1,376.8,194.2,369.9,189.1,364.7z"/>
<path class="st9" d="M381.1,180.2c0,1.8-0.2,3.5-0.3,5.3c-1,9.5-3.1,18.8-6.2,27.8l-1.5-0.5l-72-72l-0.5-1.5c9-3,18.2-5.1,27.8-6.2
	c1.8-0.2,3.5-0.3,5.3-0.3c12.5,0,24.6,5,33.5,13.9C376.1,155.5,381.1,167.7,381.1,180.2z"/>
<path class="st10" d="M277,236.7l24-24l24,24l-24,24L277,236.7z"/>
<path class="st10" d="M253,212.7l24-24l24,24l-24,24L253,212.7z"/>
<path d="M265.8,236.7l5.7,5.7l29.7,29.7l35.3-35.3l-29.7-29.7l-5.7-5.7l-24-24l-35.3,35.3L265.8,236.7z M313.8,236.7l-12.7,12.7
	l-12.7-12.7l12.7-12.7L313.8,236.7z M289.8,212.7l-12.7,12.7l-12.7-12.7l12.7-12.7L289.8,212.7z"/>
<path d="M7.4,471l64-64l11.3,11.3l-64,64L7.4,471z"/>
<path d="M15.4,415l32-32l11.3,11.3l-32,32L15.4,415z"/>
<path d="M79.4,495l40-40l11.3,11.3l-40,40L79.4,495z"/>
<path d="M63.4,463l32-32l11.3,11.3l-32,32L63.4,463z"/>
<path d="M319.1,297.4l24.4-22.3c25.3-23.1,41.4-54.7,45.2-88.8c1.9-16.8-3.9-33.4-15.9-45.3c-12-12-28.5-17.8-45.3-15.9
	c-34.1,3.8-65.7,19.8-88.8,45.2l-22.3,24.4c-0.1-0.5-0.2-0.9-0.3-1.4c-4.8,4.5-8.2,10.2-12.7,15c0,0.2,0.1,0.3,0.1,0.5l-18.2,20
	H73.8l-32,32l60,60l-44,44l91.3,91.3l44-44l60,60l32-32V328.5l20-18.2C309.7,306,314.4,301.7,319.1,297.4z M329.3,141
	c12-1.3,23.7,2.8,32.3,11.3c8.5,8.5,12.6,20.3,11.3,32.3c-0.5,4.8-1.4,9.5-2.5,14.1l-55.2-55.2C319.8,142.4,324.5,141.5,329.3,141z
	 M170.7,244.7l-35.5,38.8l-38.8-38.8H170.7z M129.8,324.7c5.2,0,10,2,13.7,5.7s5.7,8.5,5.7,13.7v1.4c0,5.2-2,10-5.7,13.7l-10.3,10.3
	l-28.7-28.7l10.3-10.3c3.6-3.6,8.5-5.7,13.7-5.7H129.8z M64.4,260.7L77.1,248l47.4,47.4l-12.1,13.3L64.4,260.7z M80.4,364.7
	L93.1,352l28.7,28.7l-12.7,12.7L80.4,364.7z M149.1,433.4l-28.7-28.7l12.7-12.7l28.7,28.7L149.1,433.4z M189.1,385.4
	c0,5.2-2,10-5.7,13.7l-10.3,10.3l-28.7-28.7l10.3-10.3c3.6-3.6,8.5-5.7,13.7-5.7h1.4c5.2,0,10,2,13.7,5.7s5.7,8.5,5.7,13.7V385.4z
	 M253.1,449.4l-47.9-47.9l13.3-12.1l47.4,47.4L253.1,449.4z M269.1,417.4l-38.8-38.8l38.8-35.5V417.4z M204.7,380.2
	c-0.9-8-4.2-15.4-10-21.2c-6.7-6.7-15.5-10.3-25-10.3h-1.4c-1.2,0-2.4,0.2-3.7,0.4c0.1-1.2,0.4-2.4,0.4-3.7V344
	c0-9.4-3.7-18.3-10.3-25c-5.8-5.8-13.2-9.1-21.2-10l116.9-128.1c13.1-14.4,29.4-25.4,47.3-32.3h0l67.3,67.3
	c-6.9,17.9-17.9,34.1-32.3,47.3L204.7,380.2z"/>
</svg>
