<?xml version="1.0" encoding="utf-8"?>
<!-- Generator: Adobe Illustrator 23.0.0, SVG Export Plug-In . SVG Version: 6.00 Build 0)  -->
<svg version="1.1" id="Capa_1" xmlns="http://www.w3.org/2000/svg" xmlns:xlink="http://www.w3.org/1999/xlink" x="0px" y="0px"
	 viewBox="0 0 512 512" style="enable-background:new 0 0 512 512;" xml:space="preserve">
<style type="text/css">
	.st0{fill:#444444;}
	.st1{fill:none;stroke:#444444;stroke-width:21;stroke-miterlimit:10;}
	.st2{fill:none;stroke:#444444;stroke-width:6;stroke-miterlimit:10;}
</style>
<path class="st0" d="M129.7,189.1L71.3,410.3h23.1l57.5-217.9c0.7,0,26.3,0.1,26.3,0.1v22h22.3v-22h44.6v22h22.3v-22H312v22h22.3
	v-22h24.2c0,0,30.6,113,59,217.8h23.1l-59.7-220.7c14.7-3.9,28.2-11.6,39.3-22.7l7.9-7.9l-7.9-7.9c-14.3-14.3-32.8-23.1-52.7-25.1
	c-5.4-56.7-53.3-101.2-111.3-101.2S150.3,69.3,144.9,126c-19.9,2-38.3,10.8-52.7,25.1l-7.9,7.9l7.9,7.9
	C102.8,177.5,115.7,185,129.7,189.1z M154,147.9h57.7v-22.3h-44.2c5.5-44.1,43.2-78.4,88.8-78.4s83.3,34.3,88.8,78.4H233.9v22.3
	h124.6c13.2,0,25.8,3.9,36.4,11.2c-10.7,7.3-23.3,11.2-36.4,11.2H154c-13.2,0-25.8-3.9-36.4-11.2C128.2,151.8,140.8,147.9,154,147.9
	z"/>
<g>
	<g>
		<g>
			<g>
				<path class="st0" d="M230,372.5c-2.4-0.9-6.4-0.9-8.8,0s-2.4,2.3,0,3.2c0.6,0.2,1.3,0.4,2,0.5c0.7,0.1,1.5,0.2,2.4,0.2
					c3.4,0,6.2-1,6.2-2.3C231.8,373.5,231.2,372.9,230,372.5z"/>
			</g>
		</g>
		<g>
			<g>
				<path class="st0" d="M168.1,386c-1.8-0.6-4.4-0.8-6.7-0.5c-0.8,0.1-1.5,0.3-2,0.5c-2.4,0.9-2.4,2.3,0,3.2
					c1.2,0.4,2.8,0.7,4.4,0.7c3.4,0,6.2-1,6.2-2.3C169.9,387,169.3,386.4,168.1,386z"/>
			</g>
		</g>
		<g>
			<g>
				<path class="st0" d="M132.7,406.1c-2.5-0.8-6.3-0.8-8.8,0c-2.4,0.9-2.4,2.3,0,3.2c1.2,0.4,2.8,0.7,4.4,0.7c0.4,0,0.8,0,1.2,0
					c0.4,0,0.8-0.1,1.2-0.1c0.4,0,0.8-0.1,1.1-0.2c0.3-0.1,0.6-0.2,0.9-0.3C135.1,408.4,135.1,407,132.7,406.1z"/>
			</g>
		</g>
		<g>
			<g>
				<path class="st0" d="M183.8,416.8c-0.6-0.2-1.3-0.4-2-0.5c-3.2-0.5-6.8,0.1-8.1,1.2c-0.9,0.8-0.4,1.8,1.3,2.4
					c0.3,0.1,0.6,0.2,0.9,0.3c0.3,0.1,0.7,0.2,1.1,0.2c0.4,0.1,0.7,0.1,1.1,0.1c0.4,0,0.8,0,1.2,0c3.4,0,6.2-1,6.2-2.3
					C185.6,417.7,185,417.2,183.8,416.8z"/>
			</g>
		</g>
		<g>
			<g>
				<path class="st0" d="M334.8,416.2c-0.1-0.1-0.2-0.3-0.4-0.4c-0.1-0.1-0.3-0.3-0.6-0.4c-0.2-0.1-0.5-0.2-0.7-0.4
					c-2.4-0.9-6.3-0.9-8.8,0c-1.2,0.4-1.8,1-1.8,1.6c0,0.3,0.2,0.6,0.5,0.9c0.9,0.9,3.2,1.4,5.7,1.4c1.6,0,3.2-0.2,4.4-0.7
					c0.6-0.2,1-0.5,1.3-0.7c0.3-0.3,0.5-0.6,0.5-0.9C334.9,416.5,334.8,416.4,334.8,416.2z"/>
			</g>
		</g>
		<g>
			<g>
				<path class="st0" d="M299.8,434.2c-0.1-0.1-0.2-0.3-0.4-0.4c-0.1-0.1-0.3-0.3-0.6-0.4c-0.2-0.1-0.5-0.2-0.7-0.4
					c-2.5-0.8-6.3-0.8-8.8,0c-0.2,0.1-0.5,0.2-0.7,0.4c-0.2,0.1-0.4,0.2-0.6,0.4c-0.2,0.1-0.3,0.3-0.4,0.4c-0.1,0.1-0.1,0.3-0.1,0.4
					c0,0.6,0.7,1.2,1.8,1.6c0.3,0.1,0.6,0.2,0.9,0.3c0.3,0.1,0.7,0.2,1.1,0.2c0.4,0.1,0.7,0.1,1.1,0.1c0.4,0,0.8,0,1.2,0
					c3.4,0,6.2-1,6.2-2.2c0,0,0,0,0,0C300,434.5,299.9,434.3,299.8,434.2z"/>
			</g>
		</g>
		<g>
			<g>
				<path class="st0" d="M347.7,446.5c-0.3-0.1-0.6-0.2-0.9-0.3c-0.3-0.1-0.7-0.2-1.1-0.2c-0.4-0.1-0.7-0.1-1.1-0.1
					c-2-0.1-4.1,0.1-5.6,0.6c-0.3,0.1-0.5,0.2-0.7,0.3c-0.2,0.1-0.4,0.3-0.6,0.4c-0.2,0.1-0.3,0.3-0.4,0.4c-0.1,0.1-0.1,0.3-0.1,0.4
					c0,0.3,0.1,0.6,0.5,0.9c0.3,0.3,0.8,0.5,1.3,0.7c1.2,0.4,2.8,0.6,4.4,0.7c0.4,0,0.8,0,1.2,0c0.4,0,0.8-0.1,1.1-0.1
					c0.4,0,0.8-0.1,1.1-0.2c0.3-0.1,0.6-0.2,0.9-0.3c0.5-0.2,1-0.5,1.3-0.7c0.3-0.3,0.5-0.6,0.5-0.9
					C349.5,447.5,348.8,446.9,347.7,446.5z"/>
			</g>
		</g>
		<g>
			<g>
				<path class="st0" d="M395,399.4c-0.3-0.1-0.6-0.2-0.9-0.3c-0.3-0.1-0.7-0.2-1.1-0.2c-0.4-0.1-0.7-0.1-1.1-0.1
					c-2-0.1-4.1,0.1-5.6,0.6c-0.3,0.1-0.5,0.2-0.7,0.3c-0.2,0.1-0.4,0.3-0.6,0.4c-0.2,0.1-0.3,0.3-0.4,0.4c-0.1,0.1-0.1,0.3-0.1,0.4
					c0,0.3,0.1,0.6,0.5,0.9c0.3,0.3,0.8,0.5,1.3,0.7c1.2,0.4,2.8,0.6,4.4,0.7c0.4,0,0.8,0,1.2,0c0.4,0,0.8-0.1,1.1-0.1
					c0.4,0,0.8-0.1,1.1-0.2c0.3-0.1,0.6-0.2,0.9-0.3c0.5-0.2,1-0.5,1.3-0.7c0.3-0.3,0.5-0.6,0.5-0.9
					C396.8,400.4,396.2,399.9,395,399.4z"/>
			</g>
		</g>
		<g>
			<g>
				<path class="st0" d="M236.2,433c-2.3-0.9-6.2-0.9-8.6-0.1c-0.6,0.2-1.1,0.5-1.5,0.8c-0.3,0.3-0.5,0.6-0.5,0.9
					c0,0.1,0.1,0.3,0.1,0.4c0.1,0.1,0.2,0.3,0.4,0.4c0.1,0.1,0.3,0.3,0.6,0.4c0.2,0.1,0.5,0.2,0.7,0.4c0.6,0.2,1.3,0.4,2,0.5
					c0.7,0.1,1.5,0.2,2.4,0.2c1.6,0,3.2-0.2,4.4-0.7c0.2-0.1,0.5-0.2,0.7-0.4c0.2-0.1,0.4-0.2,0.6-0.4c0.2-0.1,0.3-0.3,0.4-0.4
					c0.1-0.1,0.1-0.3,0.1-0.4C238,434,237.4,433.5,236.2,433z"/>
			</g>
		</g>
		<g>
			<g>
				<path class="st0" d="M174.3,448.7c-0.6-0.2-1.3-0.4-2-0.5c-1.5-0.2-3.2-0.2-4.7,0c-0.4,0-0.8,0.1-1.1,0.2l-0.9,0.3
					c-1.1,0.4-1.8,1-1.8,1.6c0,0.3,0.2,0.6,0.5,0.9c0.3,0.3,0.7,0.5,1.3,0.7c0.3,0.1,0.6,0.2,0.9,0.3c0.3,0.1,0.7,0.2,1.1,0.2
					c1.5,0.2,3.2,0.2,4.7,0c0.7-0.1,1.4-0.3,2-0.5C176.7,451,176.7,449.6,174.3,448.7z"/>
			</g>
		</g>
		<g>
			<g>
				<path class="st0" d="M287.1,402.4c-0.3-0.3-0.8-0.5-1.3-0.7c-2.5-0.8-6.3-0.8-8.8,0c-0.5,0.2-1,0.5-1.3,0.7
					c-0.3,0.3-0.5,0.6-0.5,0.9c0,1.2,2.8,2.2,6.2,2.2s6.2-1,6.2-2.2C287.6,403,287.4,402.7,287.1,402.4z"/>
			</g>
		</g>
		<g>
			<g>
				<path class="st0" d="M287.1,375.5c-0.3-0.3-0.8-0.5-1.3-0.7c-2.5-0.8-6.3-0.8-8.8,0c-0.5,0.2-1,0.5-1.3,0.7
					c-0.7,0.5-0.7,1.2,0,1.7c0.3,0.3,0.8,0.5,1.3,0.7c2.4,0.9,6.4,0.9,8.8,0c0.5-0.2,1-0.5,1.3-0.7
					C287.7,376.7,287.7,376,287.1,375.5z"/>
			</g>
		</g>
		<g>
			<g>
				<path class="st0" d="M219.4,383.1c-13.7,0-24.8,4-24.8,9c0,4.9,11.1,9,24.8,9c13.7,0,24.8-4,24.8-9
					C244.2,387.1,233.1,383.1,219.4,383.1z M219.4,396.5c-6.8,0-12.4-2-12.4-4.5c0-2.5,5.5-4.5,12.4-4.5c6.8,0,12.4,2,12.4,4.5
					C231.8,394.5,226.3,396.5,219.4,396.5z"/>
			</g>
		</g>
		<g>
			<g>
				<path class="st0" d="M134.4,416.7c-13.7,0-24.8,4-24.8,9c0,4.9,11.1,9,24.8,9c13.7,0,24.8-4,24.8-9
					C159.2,420.7,148.1,416.7,134.4,416.7z M134.4,430.1c-6.8,0-12.4-2-12.4-4.5c0-2.5,5.5-4.5,12.4-4.5c6.8,0,12.4,2,12.4,4.5
					C146.8,428.1,141.3,430.1,134.4,430.1z"/>
			</g>
		</g>
		<g>
			<g>
				<path class="st0" d="M291.7,445.8c-13.7,0-24.8,4-24.8,9c0,5,11.1,9,24.8,9c13.7,0,24.8-4,24.8-9
					C316.5,449.8,305.4,445.8,291.7,445.8z M291.7,459.3c-6.8,0-12.4-2-12.4-4.5s5.5-4.5,12.4-4.5c6.8,0,12.4,2,12.4,4.5
					C304.1,457.3,298.6,459.3,291.7,459.3z"/>
			</g>
		</g>
		<g>
			<g>
				<path class="st0" d="M374.3,412.2c-13.7,0-24.8,4-24.8,9s11.1,9,24.8,9c13.7,0,24.8-4,24.8-9C399,416.2,388,412.2,374.3,412.2z
					 M374.3,425.7c-6.8,0-12.4-2-12.4-4.5s5.5-4.5,12.4-4.5c6.8,0,12.4,2,12.4,4.5C386.7,423.6,381.1,425.7,374.3,425.7z"/>
			</g>
		</g>
		<g>
			<g>
				<path class="st0" d="M213.3,445.8c-13.7,0-24.8,4-24.8,9c0,4.9,11.1,9,24.8,9c13.7,0,24.8-4,24.8-9S226.9,445.8,213.3,445.8z
					 M213.3,459.3c-6.8,0-12.4-2-12.4-4.5c0-2.5,5.5-4.5,12.4-4.5c6.8,0,12.4,2,12.4,4.5C225.6,457.3,220.1,459.3,213.3,459.3z"/>
			</g>
		</g>
		<g>
			<g>
				<path class="st0" d="M316.5,376.4c-13.7,0-24.8,4-24.8,9c0,5,11.1,9,24.8,9s24.8-4,24.8-9C341.3,380.4,330.2,376.4,316.5,376.4z
					 M316.5,389.8c-6.8,0-12.4-2-12.4-4.5s5.5-4.5,12.4-4.5c6.8,0,12.4,2,12.4,4.5C328.9,387.8,323.3,389.8,316.5,389.8z"/>
			</g>
		</g>
	</g>
	<ellipse class="st1" cx="255.8" cy="420.2" rx="175.7" ry="63.6"/>
	<line class="st2" x1="256" y1="356.6" x2="255.8" y2="476"/>
	<line class="st2" x1="113" y1="387.6" x2="403.1" y2="450.3"/>
	<line class="st2" x1="108.4" y1="454.8" x2="398.7" y2="381.9"/>
</g>
</svg>
