<?xml version="1.0" standalone="no"?>
<!DOCTYPE svg PUBLIC "-//W3C//DTD SVG 20010904//EN"
 "http://www.w3.org/TR/2001/REC-SVG-20010904/DTD/svg10.dtd">
<svg version="1.0" xmlns="http://www.w3.org/2000/svg"
 width="567.000000pt" height="567.000000pt" viewBox="0 0 567.000000 567.000000"
 preserveAspectRatio="xMidYMid meet">
<metadata>
Created by potrace 1.14, written by Peter Selinger 2001-2017
</metadata>
<g transform="translate(0.000000,567.000000) scale(0.100000,-0.100000)"
fill="#000000" stroke="none">
<path d="M0 2835 l0 -2835 2835 0 2835 0 0 2835 0 2835 -2835 0 -2835 0 0
-2835z m4101 2531 c43 -20 105 -79 125 -117 30 -59 32 -108 17 -417 -8 -169
-18 -310 -22 -313 -3 -3 -732 -325 -1619 -714 -887 -390 -1611 -710 -1609
-712 3 -2 3046 1110 3181 1163 l39 15 -7 -143 c-4 -79 -9 -144 -11 -146 -2 -2
-20 8 -42 22 -90 60 -215 74 -318 35 -78 -29 -164 -111 -201 -191 -26 -56 -29
-74 -29 -163 0 -87 3 -107 26 -156 36 -76 86 -129 161 -170 60 -32 68 -34 163
-34 91 0 106 3 154 28 30 15 55 26 57 24 2 -1 -6 -187 -17 -412 l-19 -410 -53
-48 c-158 -146 -501 -386 -782 -547 -289 -166 -813 -412 -847 -397 -16 7 -782
686 -786 697 -2 4 21 21 51 38 183 103 232 373 99 547 -106 140 -289 183 -447
106 -90 -45 -143 -107 -191 -230 -9 -22 -31 -4 -426 347 -470 419 -463 411
-463 542 0 64 4 83 29 128 16 28 43 63 60 76 25 18 3400 1510 3536 1562 46 18
145 13 191 -10z m702 -1686 c532 -43 761 -303 623 -708 -207 -608 -1203 -1417
-2396 -1947 -535 -238 -1039 -392 -1515 -465 -192 -30 -530 -38 -671 -16 -363
55 -564 228 -564 486 0 130 79 340 190 507 172 257 472 557 827 826 l101 76
-158 -157 c-218 -217 -333 -377 -391 -545 -51 -145 -36 -272 41 -360 157 -178
581 -210 1130 -85 687 156 1511 545 2115 998 587 441 883 869 789 1143 -22 66
-93 140 -167 176 -61 30 -161 60 -202 62 -20 0 -20 0 0 9 28 12 100 12 248 0z
m-171 -463 c42 -15 91 -36 110 -48 l33 -21 -40 6 c-93 15 -284 18 -369 7 -48
-7 -90 -10 -92 -8 -3 2 -2 23 2 45 8 50 12 51 164 48 93 -2 129 -8 192 -29z
m-2914 -1136 l34 -29 -54 -42 c-118 -92 -356 -325 -478 -470 -30 -35 32 77 91
166 78 117 164 218 267 314 53 49 99 90 102 90 3 -1 20 -14 38 -29z m2362
-640 c0 -158 -42 -761 -56 -804 -21 -64 -89 -130 -155 -152 -64 -22 -155 -16
-203 13 -49 29 -538 463 -531 471 9 9 929 520 938 520 4 1 7 -21 7 -48z"/>
<path d="M2896 3149 c-71 -17 -174 -79 -229 -138 -93 -102 -137 -212 -137
-346 1 -301 264 -533 551 -485 143 24 288 131 353 258 167 330 -67 725 -429
721 -38 -1 -87 -5 -109 -10z m173 -393 c25 -40 60 -65 116 -82 35 -11 37 -13
12 -13 -68 -2 -156 -86 -158 -153 0 -17 -5 -12 -20 22 -34 77 -97 130 -156
130 -22 1 -17 5 25 19 74 25 109 63 138 146 6 18 7 17 14 -7 5 -15 18 -43 29
-62z"/>
<path d="M950 3080 c-8 -5 -10 -10 -5 -10 6 0 17 5 25 10 8 5 11 10 5 10 -5 0
-17 -5 -25 -10z"/>
</g>
</svg>
