<?xml version="1.0" encoding="utf-8"?>
<!-- Generator: Adobe Illustrator 23.0.0, SVG Export Plug-In . SVG Version: 6.00 Build 0)  -->
<svg version="1.1" id="Layer_1" xmlns="http://www.w3.org/2000/svg" xmlns:xlink="http://www.w3.org/1999/xlink" x="0px" y="0px"
	 viewBox="0 0 338.4 133.9" style="enable-background:new 0 0 338.4 133.9;" xml:space="preserve">
<style type="text/css">
	.st0{fill:#161616;}
	.st1{fill:#FFFFFF;}
	.st2{fill:#EF520C;}
	.st3{fill:#3C200A;}
	.st4{fill:#FFBC0F;}
	.st5{fill:#EFA80A;}
</style>
<rect x="-14" y="-3548" class="st0" width="4043" height="3027.1"/>
<g>
	<g>
		<path class="st1" d="M2236.2-2220.3c-19.7-15.7-47.7-23.6-83.9-23.6h-108.7c-5.5,0-10.3,3.9-11.3,9.3l-51.3,256.5
			c-1.4,7.2,4,13.8,11.3,13.8h55.5c5.5,0,10.3-3.9,11.3-9.3l10.7-54.4c1.1-5.4,5.8-9.3,11.3-9.3h46.4c27.7,0,52-4.8,72.9-14.4
			c20.9-9.6,37-23.2,48.3-40.8c11.3-17.6,17-38.1,17-61.5C2265.8-2182.4,2255.9-2204.5,2236.2-2220.3z M2171.7-2112
			c-9.5,8.3-23,12.4-40.6,12.4h-33c-7.3,0-12.8-6.7-11.3-13.8l11.7-58.7c1.1-5.4,5.8-9.3,11.4-9.3h32.1c14.1,0,25,2.9,32.5,8.6
			c7.6,5.7,11.4,14.3,11.4,25.8C2185.9-2132,2181.2-2120.3,2171.7-2112z"/>
		<path class="st1" d="M2316.8-2243.8h55.5c7.3,0,12.8,6.7,11.3,13.8l-51.3,256.5c-1.1,5.4-5.8,9.3-11.3,9.3h-55.5
			c-7.3,0-12.8-6.7-11.3-13.8l51.3-256.5C2306.5-2239.9,2311.3-2243.8,2316.8-2243.8z"/>
		<path class="st1" d="M2643.8-2191.8l-149.2,145c-7.4,7.2-2.3,19.9,8.1,19.9h101.9c7.3,0,12.8,6.7,11.3,13.9l-8.1,39.6
			c-1.1,5.4-5.8,9.3-11.3,9.3h-226.9c-7.3,0-12.8-6.7-11.3-13.9l6.5-32.2c0.5-2.3,1.6-4.4,3.3-6l149.2-145
			c7.4-7.2,2.3-19.9-8.1-19.9h-92c-7.3,0-12.8-6.7-11.4-13.8l7.8-39.6c1.1-5.4,5.8-9.3,11.4-9.3h217.2c7.3,0,12.8,6.7,11.3,13.9
			l-6.5,32.2C2646.6-2195.5,2645.4-2193.4,2643.8-2191.8z"/>
		<path class="st1" d="M2913-2191.8l-149.2,145c-7.4,7.2-2.3,19.9,8.1,19.9h101.9c7.3,0,12.8,6.7,11.3,13.9l-8.1,39.6
			c-1.1,5.4-5.8,9.3-11.3,9.3h-226.9c-7.3,0-12.8-6.7-11.3-13.9l6.5-32.2c0.5-2.3,1.6-4.4,3.3-6l149.2-145
			c7.4-7.2,2.3-19.9-8.1-19.9h-92c-7.3,0-12.8-6.7-11.4-13.8l7.8-39.6c1.1-5.4,5.8-9.3,11.4-9.3h217.2c7.3,0,12.8,6.7,11.3,13.9
			l-6.5,32.2C2915.8-2195.5,2914.6-2193.4,2913-2191.8z"/>
		<path class="st1" d="M3207.4-1978.5l-61.9-256.5c-1.3-5.2-5.9-8.9-11.3-8.9h-62.5c-3.9,0-7.6,2-9.7,5.3L2897.5-1982
			c-4.9,7.7,0.6,17.8,9.7,17.8h55.7c4.1,0,7.9-2.1,9.9-5.7l25.6-43c2.1-3.5,5.9-5.6,9.9-5.6h103c5.5,0,10.2,3.9,11.3,9.2l7.4,35.9
			c1.1,5.4,5.8,9.2,11.3,9.2h54.5C3203.6-1964.2,3209.1-1971.2,3207.4-1978.5z M3094.7-2076.9h-37.8c-9,0-14.5-9.7-10-17.5l28-47.4
			c5.4-9.1,19.1-6.8,21.3,3.5l9.8,47.4C3107.6-2083.6,3102.1-2076.9,3094.7-2076.9z"/>
	</g>
	<g>
		<path class="st1" d="M1983.9-1897.6c2.9-15.8,12.1-23.8,28.6-23.8h66.7c48.8,0,81.9,30.4,85.4,71c0.6,6.9,0.3,14.2-0.8,21.5
			c-7.5,50.2-50.5,71.3-104.3,71.3h-44.9l-9.5,53.1c-2,11.5-12.4,20.1-24.3,20.1c-14.5,0-28.3-9.9-29.6-25.4
			c-0.2-2.6-0.2-5.6,0.6-8.6L1983.9-1897.6z M2024-1808.8h44.6c18.5,0,34.4-6.6,38-25.7c0.4-3,0.8-6.3,0.5-9.2
			c-1.3-14.8-12.9-26.4-34-26.4h-38L2024-1808.8z"/>
		<path class="st1" d="M2200.7-1687c-15.5,0-25.7-7.3-26.9-21.1c-0.3-3-0.2-6.3,0.5-9.9l33.6-185.8c2.2-12.2,12.4-20.1,24.3-20.1
			c15.8,0,28.2,13.2,29.5,27.4c0.2,2,0,4.3-0.4,6.6l-27.3,152.1h65.3c13.9,0,26.4,11.2,27.6,25.4c1.2,14.2-9.3,25.4-23.2,25.4
			H2200.7z"/>
		<path class="st1" d="M2558.6-1714.7c3.7,19.8-10.9,30.4-25.4,30.4c-13.2,0-27.2-8.6-30-26.1c-1.4-8.3-2.4-15.8-3.7-23.4h-82.2
			l-16.6,33.3c-5.9,11.9-15.4,16.5-25,16.5c-13.9,0-27.6-10.2-28.9-24.8c-0.5-5.3,0.7-10.9,4.1-17.2l95.2-175.9
			c7.7-14.2,18.1-19.5,33.6-19.5h12.9c17.8,0,29.9,9.6,33.1,28.1L2558.6-1714.7z M2492.8-1780.1c-4.7-30.7-7.3-53.1-8.7-69.3
			c-1.1-12.5-1.5-21.4-1.1-28c-4.8,16.8-15.3,40.6-43,97.4H2492.8z"/>
		<path class="st1" d="M2831.1-1896.2c0.2,2,0.3,4-0.1,5.9l-32.7,180.8c-2.7,14.2-14.6,25.1-30.5,25.1c-14.2,0-26.5-8.6-32.8-20.1
			l-70.9-131.7c-0.7,18.5-6.3,52.5-19.5,131.7c-2,11.2-11.8,20.1-24.3,20.1c-17.2,0-27.7-15.2-28.8-27.7c-0.2-2-0.3-4,0.1-5.9
			l32.7-180.8c2.7-14.2,14.6-25.1,30.5-25.1c13.9,0,26.1,8.3,32.5,20.1l70.3,132.3c1.1-18.2,6.7-51.8,20.4-132.3
			c2-11.2,11.8-20.1,24.3-20.1C2819.2-1924,2830-1909.1,2831.1-1896.2z"/>
		<path class="st1" d="M2869.2-1687c-17.5,0-27.5-8.6-28.7-22.8c-0.3-3-0.2-6.6,0.4-10.2l31.8-176.2c3.1-16.8,13-25.1,30.5-25.1
			h100.7c13.9,0,26.4,11.2,27.6,25.4c1.2,14.2-9.3,25.4-23.2,25.4h-82.5l-7.6,41.3h53.1c13.5,0,25.7,11.2,26.9,24.8
			c1.2,13.5-9.1,24.8-22.6,24.8h-66.3l-7.6,41.9h69c13.9,0,26.4,11.2,27.6,25.4c1.2,14.2-9.3,25.4-23.2,25.4H2869.2z"/>
		<path class="st1" d="M3075.9-1712.8c-0.2-2,0-4,0.2-5.6l27.6-152.1h-29c-13.9,0-26.4-11.2-27.6-25.4c-1.2-14.2,9.3-25.4,23.2-25.4
			h127.4c13.9,0,26.4,11.2,27.6,25.4c1.2,14.2-9.3,25.4-23.2,25.4h-42.2l-30,166c-2,11.5-12.4,20.1-24.3,20.1
			C3088.3-1684.4,3077-1699.9,3075.9-1712.8z"/>
	</g>
</g>
<rect x="-4842.7" y="-3530.9" class="st1" width="4010" height="3010"/>
<g>
	<path class="st2" d="M-2635.8-2220.3c-19.7-15.7-47.7-23.6-83.9-23.6h-108.8c-5.5,0-10.3,3.9-11.3,9.3l-51.3,256.5
		c-1.4,7.2,4,13.8,11.3,13.8h55.5c5.5,0,10.3-3.9,11.4-9.3l10.7-54.4c1.1-5.4,5.8-9.3,11.3-9.3h46.4c27.7,0,52-4.8,72.9-14.4
		c20.9-9.6,37-23.2,48.3-40.8c11.3-17.6,17-38.1,17-61.5C-2606.2-2182.4-2616.1-2204.5-2635.8-2220.3z M-2700.3-2112
		c-9.5,8.3-23,12.4-40.6,12.4h-33c-7.3,0-12.8-6.7-11.3-13.8l11.7-58.7c1.1-5.4,5.8-9.3,11.4-9.3h32.1c14.1,0,25,2.9,32.5,8.6
		c7.6,5.7,11.4,14.3,11.4,25.8C-2686.1-2132-2690.8-2120.3-2700.3-2112z"/>
	<path class="st2" d="M-2555.2-2243.8h55.5c7.3,0,12.8,6.7,11.3,13.8l-51.3,256.5c-1.1,5.4-5.8,9.3-11.3,9.3h-55.5
		c-7.3,0-12.8-6.7-11.3-13.8l51.3-256.5C-2565.5-2239.9-2560.7-2243.8-2555.2-2243.8z"/>
	<path class="st2" d="M-2228.2-2191.8l-149.2,145c-7.4,7.2-2.3,19.9,8.1,19.9h101.9c7.3,0,12.8,6.7,11.3,13.9l-8.1,39.6
		c-1.1,5.4-5.8,9.3-11.3,9.3h-226.9c-7.3,0-12.8-6.7-11.3-13.9l6.5-32.2c0.5-2.3,1.6-4.4,3.3-6l149.2-145c7.4-7.2,2.3-19.9-8.1-19.9
		h-92c-7.3,0-12.8-6.7-11.4-13.8l7.8-39.6c1.1-5.4,5.8-9.3,11.4-9.3h217.2c7.3,0,12.8,6.7,11.3,13.9l-6.5,32.2
		C-2225.4-2195.5-2226.6-2193.4-2228.2-2191.8z"/>
	<path class="st2" d="M-1959-2191.8l-149.2,145c-7.4,7.2-2.3,19.9,8.1,19.9h101.9c7.3,0,12.8,6.7,11.3,13.9l-8.1,39.6
		c-1.1,5.4-5.8,9.3-11.3,9.3h-226.9c-7.3,0-12.8-6.7-11.3-13.9l6.5-32.2c0.5-2.3,1.6-4.4,3.3-6l149.2-145c7.4-7.2,2.3-19.9-8.1-19.9
		h-92c-7.3,0-12.8-6.7-11.4-13.8l7.8-39.6c1.1-5.4,5.8-9.3,11.4-9.3h217.2c7.3,0,12.8,6.7,11.3,13.9l-6.5,32.2
		C-1956.2-2195.5-1957.4-2193.4-1959-2191.8z"/>
	<path class="st2" d="M-1664.6-1978.5l-61.9-256.5c-1.3-5.2-5.9-8.9-11.3-8.9h-62.5c-3.9,0-7.6,2-9.7,5.3l-164.5,256.5
		c-4.9,7.7,0.6,17.8,9.7,17.8h55.7c4.1,0,7.9-2.1,9.9-5.7l25.6-43c2.1-3.5,5.9-5.6,9.9-5.6h103c5.5,0,10.2,3.9,11.3,9.2l7.4,35.9
		c1.1,5.4,5.8,9.2,11.3,9.2h54.6C-1668.4-1964.2-1662.9-1971.2-1664.6-1978.5z M-1777.3-2076.9h-37.8c-9,0-14.5-9.7-10-17.5l28-47.4
		c5.4-9.1,19.2-6.8,21.3,3.5l9.8,47.4C-1764.4-2083.6-1769.9-2076.9-1777.3-2076.9z"/>
</g>
<g>
	<path class="st3" d="M-3760.4-1928.1l13.7,11.9c-52.8,38.2-95.2,77.1-123.7,113.4C-3854.3-1840.3-3815.5-1884.2-3760.4-1928.1z"/>
	<path class="st3" d="M-3167.5-2116.8c-19.8-4.2-43.3-5.6-69.7-4.4l0.8-15.5C-3206.9-2135-3183.2-2128.4-3167.5-2116.8z"/>
	<path class="st2" d="M-3231.5-2510.8l-5.7,115.2l-682.6,292.4l-87.4-75.4c-28.7-24.8-21.5-71,13.3-86l691-296
		C-3268.1-2575.4-3229.6-2548.7-3231.5-2510.8z"/>
	<path class="st4" d="M-3318.5-2300.9c26.3-11.3,55.6-5.9,76,11.5l2.8-57.1l-680.2,243.2l72.3,62.3c4.8-22.3,20-42,42.6-51.7
		c37-15.9,79.8,1.3,95.7,38.3c2.4,5.6,4.1,11.4,5,17.1c1.5,9.1,1.2,18.2-0.7,26.9c-4.8,22.3-20,42-42.6,51.7c-1,0.4-2.1,0.9-3.1,1.2
		l159.5,137.6c33.5-12.6,67.5-27.2,101.4-43.6c91.5-44.1,173-96.4,233.5-149.5l8-160.6l0-0.7c-0.4,0.3-0.8,0.5-1.1,0.8
		c-3.6,2.4-7.6,4.6-11.8,6.4c-17,7.3-35.3,7.6-51.6,2.2c-10.7-3.5-20.5-9.5-28.6-17.6c-6.4-6.4-11.7-14.1-15.5-22.9
		C-3372.7-2242.2-3355.5-2285-3318.5-2300.9z M-3442.4-1946.1c-49.1,21-105.9-1.7-126.9-50.8c-12.4-29-9.6-60.7,5-86.1
		c10.1-17.6,25.7-32.2,45.8-40.8c21.9-9.4,45.3-10,66.4-3.6c26.2,8,48.9,27.2,60.5,54.4C-3370.6-2024-3393.3-1967.2-3442.4-1946.1z
		 M-3323.2-1775.4c-39.6,23.8-81.6,46.5-125.4,67.6c-2.8,1.3-5.5,2.7-8.3,4l98.2,84.7c32.3,27.9,82.6,6.4,84.7-36.3l5.8-117.3
		C-3286.7-1766.2-3306.4-1767.6-3323.2-1775.4z"/>
	<polygon class="st5" points="-3237.2,-2395.6 -3239.7,-2346.4 -3919.8,-2103.2 	"/>
	<path class="st3" d="M-4058.1-1668.4c49,101.6,317,73.9,598.6-61.9c281.5-135.8,470-328.4,421-430c-22.2-45.9-89.1-65.4-181.7-60.5
		c40.4,4.9,68.7,19.1,80.3,43.2c37.5,77.6-114.3,228.5-339.1,336.9c-224.7,108.4-437.3,133.3-474.7,55.7
		c-22.5-46.7,23.4-119.8,112.3-194.3C-4002.8-1865.5-4093.9-1742.7-4058.1-1668.4z"/>
	<path class="st2" d="M-3090.7-2368.5c-21.7,0-39.3,17.6-39.3,39.4c0-21.7-17.6-39.4-39.4-39.4c21.7,0,39.4-17.6,39.4-39.3
		C-3130-2386.1-3112.4-2368.5-3090.7-2368.5z"/>
	<path class="st2" d="M-2968.3-2278.9c-8.8,0-16,7.2-16,16c0-8.8-7.2-16-16-16c8.8,0,16-7.2,16-16
		C-2984.3-2286.1-2977.1-2278.9-2968.3-2278.9z"/>
	<path class="st2" d="M-3649.3-1526.4c-21.7,0-39.3,17.6-39.3,39.4c0-21.7-17.6-39.4-39.4-39.4c21.7,0,39.4-17.6,39.4-39.3
		C-3688.6-1544-3671-1526.4-3649.3-1526.4z"/>
	<path class="st2" d="M-3841.1-2505c-21.7,0-39.3,17.6-39.3,39.4c0-21.7-17.6-39.4-39.4-39.4c21.7,0,39.4-17.6,39.4-39.3
		C-3880.5-2522.6-3862.9-2505-3841.1-2505z"/>
</g>
<g>
	<path d="M-2888.1-1897.6c2.9-15.8,12.1-23.8,28.6-23.8h66.7c48.8,0,81.9,30.4,85.4,71c0.6,6.9,0.3,14.2-0.8,21.5
		c-7.5,50.2-50.5,71.3-104.3,71.3h-44.9l-9.5,53.1c-2,11.5-12.4,20.1-24.3,20.1c-14.5,0-28.3-9.9-29.6-25.4
		c-0.2-2.6-0.2-5.6,0.6-8.6L-2888.1-1897.6z M-2848-1808.8h44.6c18.5,0,34.4-6.6,38-25.7c0.4-3,0.8-6.3,0.5-9.2
		c-1.3-14.8-12.9-26.4-34-26.4h-38L-2848-1808.8z"/>
	<path d="M-2671.3-1687c-15.5,0-25.7-7.3-26.9-21.1c-0.3-3-0.2-6.3,0.5-9.9l33.6-185.8c2.2-12.2,12.4-20.1,24.3-20.1
		c15.8,0,28.2,13.2,29.5,27.4c0.2,2,0,4.3-0.4,6.6l-27.3,152.1h65.3c13.9,0,26.4,11.2,27.6,25.4c1.2,14.2-9.3,25.4-23.2,25.4
		H-2671.3z"/>
	<path d="M-2313.4-1714.7c3.7,19.8-10.9,30.4-25.4,30.4c-13.2,0-27.2-8.6-30-26.1c-1.4-8.3-2.4-15.8-3.7-23.4h-82.2l-16.6,33.3
		c-5.9,11.9-15.4,16.5-25,16.5c-13.9,0-27.6-10.2-28.9-24.8c-0.5-5.3,0.7-10.9,4.1-17.2l95.2-175.9c7.7-14.2,18.1-19.5,33.6-19.5
		h12.9c17.8,0,29.9,9.6,33.1,28.1L-2313.4-1714.7z M-2379.2-1780.1c-4.7-30.7-7.3-53.1-8.7-69.3c-1.1-12.5-1.5-21.4-1.1-28
		c-4.8,16.8-15.3,40.6-43,97.4H-2379.2z"/>
	<path d="M-2040.9-1896.2c0.2,2,0.3,4-0.1,5.9l-32.7,180.8c-2.7,14.2-14.6,25.1-30.5,25.1c-14.2,0-26.5-8.6-32.8-20.1l-70.9-131.7
		c-0.7,18.5-6.3,52.5-19.5,131.7c-2,11.2-11.8,20.1-24.3,20.1c-17.2,0-27.7-15.2-28.8-27.7c-0.2-2-0.3-4,0.1-5.9l32.7-180.8
		c2.7-14.2,14.6-25.1,30.5-25.1c13.9,0,26.1,8.3,32.5,20.1l70.3,132.3c1.1-18.2,6.7-51.8,20.4-132.3c2-11.2,11.8-20.1,24.3-20.1
		C-2052.8-1924-2042-1909.1-2040.9-1896.2z"/>
	<path d="M-2002.8-1687c-17.5,0-27.5-8.6-28.7-22.8c-0.3-3-0.2-6.6,0.4-10.2l31.8-176.2c3.1-16.8,13-25.1,30.5-25.1h100.7
		c13.9,0,26.4,11.2,27.6,25.4c1.2,14.2-9.3,25.4-23.2,25.4h-82.5l-7.6,41.3h53.1c13.5,0,25.7,11.2,26.9,24.8
		c1.2,13.5-9.1,24.8-22.6,24.8h-66.3l-7.6,41.9h69c13.9,0,26.4,11.2,27.6,25.4s-9.3,25.4-23.2,25.4H-2002.8z"/>
	<path d="M-1796.1-1712.8c-0.2-2,0-4,0.2-5.6l27.6-152.1h-29c-13.9,0-26.4-11.2-27.6-25.4c-1.2-14.2,9.3-25.4,23.2-25.4h127.4
		c13.9,0,26.4,11.2,27.6,25.4c1.2,14.2-9.3,25.4-23.2,25.4h-42.2l-30,166c-2,11.5-12.4,20.1-24.3,20.1
		C-1783.7-1684.4-1795-1699.9-1796.1-1712.8z"/>
</g>
<g>
	<path class="st1" d="M1085.4-1914.4c4.7,3.5,9.3,7,14,10.5c-18,13.1-37.6,28.9-57.7,47.6c-20.7,19.4-38.2,38.4-52.7,55.9
		c9.3-17.5,22.3-38.5,40.4-60.2C1048.9-1883.9,1068.8-1901.6,1085.4-1914.4z"/>
	<path class="st1" d="M1704.5-2116.8c-9.8-1.9-20.7-3.4-32.4-4.2c-26.5-1.9-49.8,0.3-68.6,3.6c0.3-5.5,0.5-11.1,0.8-16.6
		c14.6-3,41-6.1,70.9,3.6C1687-2126.7,1696.8-2121.6,1704.5-2116.8z"/>
	<path class="st1" d="M1599.7-2499.5l-5.7,115.2l-682.6,292.4l-87.4-75.4c-28.7-24.8-21.5-71,13.3-86l691-296
		C1563.1-2564.1,1601.6-2537.3,1599.7-2499.5z"/>
	<path class="st1" d="M1512.7-2289.5c26.3-11.3,55.6-5.9,76,11.5l2.8-57.1l-680.2,243.2l72.3,62.3c4.8-22.3,20-42,42.6-51.7
		c37-15.9,79.9,1.3,95.7,38.3c2.4,5.6,4,11.4,5,17.1c1.5,9.1,1.2,18.2-0.7,26.9c-4.8,22.3-20,42-42.6,51.7c-1,0.4-2,0.9-3.1,1.2
		l159.5,137.6c33.5-12.6,67.5-27.2,101.4-43.6c91.5-44.1,173-96.4,233.5-149.5l8-160.6l0-0.7c-0.4,0.3-0.8,0.5-1.1,0.8
		c-3.6,2.4-7.6,4.6-11.8,6.4c-17,7.3-35.3,7.6-51.6,2.2c-10.7-3.5-20.5-9.5-28.5-17.6c-6.4-6.4-11.7-14.1-15.5-22.9
		C1458.5-2230.8,1475.7-2273.7,1512.7-2289.5z M1388.8-1934.8c-49.1,21-105.9-1.7-126.9-50.8c-12.4-29-9.6-60.7,5-86.1
		c10.1-17.6,25.7-32.2,45.8-40.8c21.9-9.4,45.3-10,66.4-3.6c26.2,8,48.9,27.2,60.5,54.4C1460.6-2012.7,1437.9-1955.8,1388.8-1934.8z
		 M1382.6-1696.5c-2.8,1.3-5.5,2.7-8.3,4l98.2,84.7c32.3,27.9,82.6,6.4,84.7-36.3c2.8-50.1,5.6-100.3,8.4-150.4"/>
	<path class="st1" d="M813.9-1668.4c49,101.6,317,73.9,598.6-61.9c281.5-135.8,470-328.4,421-430c-22.2-45.9-89.1-65.4-181.7-60.5
		c40.4,4.9,68.7,19.1,80.3,43.2c37.5,77.6-114.4,228.5-339.1,336.9c-224.7,108.4-437.3,133.3-474.7,55.7
		c-22.5-46.7,23.4-119.8,112.3-194.3C869.2-1865.5,778.1-1742.7,813.9-1668.4z"/>
	<path class="st1" d="M1742-2357.7c-21.7,0-39.3,17.6-39.3,39.4c0-21.7-17.6-39.4-39.4-39.4c21.7,0,39.4-17.6,39.4-39.3
		C1702.6-2375.3,1720.2-2357.7,1742-2357.7z"/>
	<path class="st1" d="M887.5-2381c-8.8,0-16,7.2-16,16c0-8.8-7.2-16-16-16c8.8,0,16-7.2,16-16C871.5-2388.2,878.7-2381,887.5-2381z"
		/>
	<path class="st1" d="M1662.3-1818c-8.8,0-16,7.2-16,16c0-8.8-7.2-16-16-16c8.8,0,16-7.2,16-16
		C1646.3-1825.1,1653.5-1818,1662.3-1818z"/>
	<path class="st1" d="M1352.2-1570.8c-21.7,0-39.3,17.6-39.3,39.4c0-21.7-17.6-39.4-39.4-39.4c21.7,0,39.4-17.6,39.4-39.3
		C1312.9-1588.4,1330.5-1570.8,1352.2-1570.8z"/>
	<path class="st1" d="M871.5-2003.5c-21.7,0-39.3,17.6-39.3,39.4c0-21.7-17.6-39.4-39.4-39.4c21.7,0,39.4-17.6,39.4-39.3
		C832.2-2021.1,849.8-2003.5,871.5-2003.5z"/>
	<path class="st1" d="M1391.6-2024.2c-21.7,0-39.3,17.6-39.3,39.4c0-21.7-17.6-39.4-39.4-39.4c21.7,0,39.4-17.6,39.4-39.3
		C1352.2-2041.8,1369.8-2024.2,1391.6-2024.2z"/>
	<path class="st1" d="M1612.4-2152.9"/>
	<path class="st1" d="M1603.1-2142.8"/>
</g>
<g>
	<g>
		<path class="st1" d="M199.7,39c-2.7-2.2-6.6-3.2-11.5-3.2h-15c-0.8,0-1.4,0.5-1.6,1.3l-7.1,35.3c-0.2,1,0.6,1.9,1.6,1.9h7.6
			c0.8,0,1.4-0.5,1.6-1.3l1.5-7.5c0.1-0.7,0.8-1.3,1.6-1.3h6.4c3.8,0,7.1-0.7,10-2c2.9-1.3,5.1-3.2,6.6-5.6c1.6-2.4,2.3-5.2,2.3-8.5
			C203.7,44.2,202.4,41.2,199.7,39z M190.8,53.9c-1.3,1.1-3.2,1.7-5.6,1.7h-4.5c-1,0-1.8-0.9-1.6-1.9l1.6-8.1
			c0.1-0.7,0.8-1.3,1.6-1.3h4.4c1.9,0,3.4,0.4,4.5,1.2c1,0.8,1.6,2,1.6,3.5C192.8,51.2,192.1,52.8,190.8,53.9z"/>
		<path class="st1" d="M210.8,35.8h7.6c1,0,1.8,0.9,1.6,1.9L212.9,73c-0.1,0.7-0.8,1.3-1.6,1.3h-7.6c-1,0-1.8-0.9-1.6-1.9l7.1-35.3
			C209.3,36.3,210,35.8,210.8,35.8z"/>
		<path class="st1" d="M255.7,43l-20.5,19.9c-1,1-0.3,2.7,1.1,2.7h14c1,0,1.8,0.9,1.6,1.9l-1.1,5.4c-0.2,0.7-0.8,1.3-1.6,1.3H218
			c-1,0-1.8-0.9-1.6-1.9l0.9-4.4c0.1-0.3,0.2-0.6,0.5-0.8l20.5-19.9c1-1,0.3-2.7-1.1-2.7h-12.7c-1,0-1.8-0.9-1.6-1.9l1.1-5.4
			c0.1-0.7,0.8-1.3,1.6-1.3h29.9c1,0,1.8,0.9,1.6,1.9l-0.9,4.4C256.1,42.4,255.9,42.7,255.7,43z"/>
		<path class="st1" d="M292.7,43l-20.5,19.9c-1,1-0.3,2.7,1.1,2.7h14c1,0,1.8,0.9,1.6,1.9l-1.1,5.4c-0.2,0.7-0.8,1.3-1.6,1.3H255
			c-1,0-1.8-0.9-1.6-1.9l0.9-4.4c0.1-0.3,0.2-0.6,0.5-0.8l20.5-19.9c1-1,0.3-2.7-1.1-2.7h-12.7c-1,0-1.8-0.9-1.6-1.9l1.1-5.4
			c0.1-0.7,0.8-1.3,1.6-1.3h29.9c1,0,1.8,0.9,1.6,1.9l-0.9,4.4C293.1,42.4,292.9,42.7,292.7,43z"/>
		<path class="st1" d="M333.2,72.3L324.7,37c-0.2-0.7-0.8-1.2-1.5-1.2h-8.6c-0.5,0-1,0.3-1.3,0.7l-22.6,35.3
			c-0.7,1.1,0.1,2.4,1.3,2.4h7.7c0.6,0,1.1-0.3,1.4-0.8l3.5-5.9c0.3-0.5,0.8-0.8,1.4-0.8H320c0.8,0,1.4,0.5,1.6,1.3l1,4.9
			c0.2,0.7,0.8,1.3,1.6,1.3h7.5C332.7,74.2,333.4,73.3,333.2,72.3z M317.7,58.8h-5.2c-1.2,0-2-1.3-1.4-2.4l3.8-6.5
			c0.7-1.3,2.6-0.9,2.9,0.5l1.4,6.5C319.5,57.8,318.7,58.8,317.7,58.8z"/>
	</g>
	<g>
		<path class="st1" d="M165,83.4c0.4-2.2,1.7-3.3,3.9-3.3h9.2c6.7,0,11.3,4.2,11.7,9.8c0.1,1,0,2-0.1,2.9c-1,6.9-6.9,9.8-14.3,9.8
			h-6.2l-1.3,7.3c-0.3,1.6-1.7,2.8-3.3,2.8c-2,0-3.9-1.4-4.1-3.5c0-0.4,0-0.8,0.1-1.2L165,83.4z M170.5,95.6h6.1
			c2.5,0,4.7-0.9,5.2-3.5c0.1-0.4,0.1-0.9,0.1-1.3c-0.2-2-1.8-3.6-4.7-3.6H172L170.5,95.6z"/>
		<path class="st1" d="M194.8,112.4c-2.1,0-3.5-1-3.7-2.9c0-0.4,0-0.9,0.1-1.4l4.6-25.5c0.3-1.7,1.7-2.8,3.3-2.8
			c2.2,0,3.9,1.8,4,3.8c0,0.3,0,0.6-0.1,0.9l-3.8,20.9h9c1.9,0,3.6,1.5,3.8,3.5c0.2,2-1.3,3.5-3.2,3.5H194.8z"/>
		<path class="st1" d="M244,108.5c0.5,2.7-1.5,4.2-3.5,4.2c-1.8,0-3.7-1.2-4.1-3.6c-0.2-1.1-0.3-2.2-0.5-3.2h-11.3l-2.3,4.6
			c-0.8,1.6-2.1,2.3-3.4,2.3c-1.9,0-3.8-1.4-4-3.4c-0.1-0.7,0.1-1.5,0.6-2.4l13.1-24.2c1.1-2,2.5-2.7,4.6-2.7h1.8
			c2.4,0,4.1,1.3,4.6,3.9L244,108.5z M235,99.6c-0.6-4.2-1-7.3-1.2-9.5c-0.2-1.7-0.2-2.9-0.2-3.9c-0.7,2.3-2.1,5.6-5.9,13.4H235z"/>
		<path class="st1" d="M281.5,83.6c0,0.3,0,0.5,0,0.8l-4.5,24.9c-0.4,2-2,3.4-4.2,3.4c-2,0-3.6-1.2-4.5-2.8l-9.7-18.1
			c-0.1,2.5-0.9,7.2-2.7,18.1c-0.3,1.5-1.6,2.8-3.3,2.8c-2.4,0-3.8-2.1-4-3.8c0-0.3,0-0.5,0-0.8l4.5-24.9c0.4-2,2-3.4,4.2-3.4
			c1.9,0,3.6,1.1,4.5,2.8l9.7,18.2c0.1-2.5,0.9-7.1,2.8-18.2c0.3-1.5,1.6-2.8,3.3-2.8C279.8,79.8,281.3,81.8,281.5,83.6z"/>
		<path class="st1" d="M286.7,112.4c-2.4,0-3.8-1.2-3.9-3.1c0-0.4,0-0.9,0.1-1.4l4.4-24.2c0.4-2.3,1.8-3.4,4.2-3.4h13.8
			c1.9,0,3.6,1.5,3.8,3.5c0.2,2-1.3,3.5-3.2,3.5h-11.3l-1,5.7h7.3c1.9,0,3.5,1.5,3.7,3.4c0.2,1.9-1.2,3.4-3.1,3.4h-9.1l-1,5.8h9.5
			c1.9,0,3.6,1.5,3.8,3.5c0.2,2-1.3,3.5-3.2,3.5H286.7z"/>
		<path class="st1" d="M315.1,108.8c0-0.3,0-0.5,0-0.8l3.8-20.9h-4c-1.9,0-3.6-1.5-3.8-3.5c-0.2-2,1.3-3.5,3.2-3.5h17.5
			c1.9,0,3.6,1.5,3.8,3.5c0.2,2-1.3,3.5-3.2,3.5h-5.8l-4.1,22.8c-0.3,1.6-1.7,2.8-3.3,2.8C316.8,112.7,315.3,110.6,315.1,108.8z"/>
	</g>
</g>
<g>
	<path class="st1" d="M41.5,89.3c0.6,0.5,1.3,1,1.9,1.5c-2.5,1.8-5.2,4-7.9,6.6c-2.8,2.7-5.2,5.3-7.2,7.7c1.3-2.4,3.1-5.3,5.5-8.3
		C36.5,93.5,39.2,91.1,41.5,89.3z"/>
	<path class="st1" d="M126.6,61.5c-1.4-0.3-2.8-0.5-4.4-0.6c-3.6-0.3-6.9,0-9.4,0.5c0-0.8,0.1-1.5,0.1-2.3c2-0.4,5.6-0.8,9.7,0.5
		C124.2,60.1,125.5,60.8,126.6,61.5z"/>
	<path class="st1" d="M112.2,8.9l-0.8,15.8L17.5,64.9l-12-10.4c-3.9-3.4-3-9.8,1.8-11.8l95-40.7C107.1,0,112.4,3.7,112.2,8.9z"/>
	<path class="st1" d="M100.2,37.7c3.6-1.6,7.6-0.8,10.4,1.6l0.4-7.8L17.5,64.9l9.9,8.6c0.7-3.1,2.7-5.8,5.9-7.1
		c5.1-2.2,11,0.2,13.2,5.3c0.3,0.8,0.6,1.6,0.7,2.4c0.2,1.2,0.2,2.5-0.1,3.7c-0.7,3.1-2.7,5.8-5.9,7.1c-0.1,0.1-0.3,0.1-0.4,0.2
		l21.9,18.9c4.6-1.7,9.3-3.7,13.9-6c12.6-6.1,23.8-13.3,32.1-20.6l1.1-22.1l0-0.1c-0.1,0-0.1,0.1-0.2,0.1c-0.5,0.3-1,0.6-1.6,0.9
		c-2.3,1-4.9,1-7.1,0.3c-1.5-0.5-2.8-1.3-3.9-2.4c-0.9-0.9-1.6-1.9-2.1-3.2C92.8,45.8,95.1,39.9,100.2,37.7z M83.2,86.5
		c-6.7,2.9-14.6-0.2-17.4-7c-1.7-4-1.3-8.3,0.7-11.8c1.4-2.4,3.5-4.4,6.3-5.6c3-1.3,6.2-1.4,9.1-0.5c3.6,1.1,6.7,3.7,8.3,7.5
		C93.1,75.8,89.9,83.6,83.2,86.5z M82.3,119.3c-0.4,0.2-0.8,0.4-1.1,0.5l13.5,11.6c4.4,3.8,11.4,0.9,11.6-5
		c0.4-6.9,0.8-13.8,1.2-20.7"/>
	<path class="st1" d="M4.2,123.1c6.7,14,43.6,10.2,82.3-8.5c38.7-18.7,64.6-45.1,57.9-59.1c-3-6.3-12.2-9-25-8.3
		c5.5,0.7,9.5,2.6,11,5.9c5.2,10.7-15.7,31.4-46.6,46.3c-30.9,14.9-60.1,18.3-65.3,7.7c-3.1-6.4,3.2-16.5,15.4-26.7
		C11.7,96-0.8,112.9,4.2,123.1z"/>
	<path class="st1" d="M84,74.3c-3,0-5.4,2.4-5.4,5.4c0-3-2.4-5.4-5.4-5.4c3,0,5.4-2.4,5.4-5.4C78.6,71.9,81.1,74.3,84,74.3z"/>
	<path class="st1" d="M113.9,56.5"/>
	<path class="st1" d="M112.6,57.9"/>
</g>
</svg>
